SplineFontDB: 3.0
FontName: Oxygen-Regular
FullName: Oxygen Regular
FamilyName: Oxygen
Weight: Regular
Copyright: 2013 (c) Vernon Adams
Version: 0.45
ItalicAngle: 0
UnderlinePosition: 0
UnderlineWidth: 0
Ascent: 1638
Descent: 410
UFOAscent: 1560
UFODescent: -511
LayerCount: 2
Layer: 0 0 "Back"  1
Layer: 1 0 "Fore"  0
FSType: 0
OS2Version: 0
OS2_WeightWidthSlopeOnly: 0
OS2_UseTypoMetrics: 1
CreationTime: 1383372141
ModificationTime: 1383372722
PfmFamily: 17
TTFWeight: 400
TTFWidth: 5
LineGap: 0
VLineGap: 0
OS2TypoAscent: 1638
OS2TypoAOffset: 0
OS2TypoDescent: -410
OS2TypoDOffset: 0
OS2TypoLinegap: 0
OS2WinAscent: 1638
OS2WinAOffset: 0
OS2WinDescent: 410
OS2WinDOffset: 0
HheadAscent: 1638
HheadAOffset: 0
HheadDescent: -410
HheadDOffset: 0
OS2Vendor: 'newt'
Lookup: 258 0 0 "'kern' Horizontal Kerning lookup 0"  {"'kern' Horizontal Kerning lookup 0 per glyph data 0"  "'kern' Horizontal Kerning lookup 0 kerning class 1"  } ['kern' ('DFLT' <'dflt' > 'latn' <'dflt' > ) ]
MarkAttachClasses: 1
DEI: 91125
KernClass2: 24 29 "'kern' Horizontal Kerning lookup 0 kerning class 1" 
 124 A Aacute Abreve Acircumflex Adieresis Agrave Amacron Aogonek Aring Aringacute Atilde uni01CD uni01DE uni0200 uni0202 uni0226
 9 B uni1E02
 47 C Cacute Ccaron Ccedilla Ccircumflex Cdotaccent
 16 D Dcaron uni1E0A
 9 F uni1E1E
 22 K Kcommaaccent uni01E8
 28 L Lacute Lcaron Lcommaaccent
 151 O Oacute Obreve Ocircumflex Odieresis Ograve Ohorn Ohungarumlaut Omacron Otilde uni01D1 uni01EA uni01EC uni020C uni020E uni022A uni022C uni022E uni0230
 9 P uni1E56
 44 R Racute Rcaron Rcommaaccent uni0210 uni0212
 37 T Tcaron Tcommaaccent uni021A uni1E6A
 149 U Uacute Ubreve Ucircumflex Udieresis Ugrave Uhorn Uhungarumlaut Umacron Uogonek Uring Utilde uni01D3 uni01D5 uni01D7 uni01D9 uni01DB uni0214 uni0216
 1 V
 37 W Wacute Wcircumflex Wdieresis Wgrave
 53 Y Yacute Ycircumflex Ydieresis Ygrave uni0232 uni1EF8

StartChar: .notdef
Encoding: 65536 -1 0
Width: 1164
VWidth: 0
Flags: W
PickledData: "(dp1
S'org.pippin.gimp.org.kernagic'
p2
(dp3
S'lstem'
p4
I0
sS'rstem'
p5
I0
ssS'com.typemytype.robofont.layerData'
p6
(dp7
S'b'
(dp8
S'name'
p9
S'.notdef'
p10
sS'lib'
p11
(dp12
sS'unicodes'
p13
(tsS'width'
p14
I1164
sS'contours'
p15
(tsS'components'
p16
(tsS'anchors'
p17
(tsssS'com.fontlab.hintData'
p18
(dp19
S'vhints'
p20
((dp21
S'position'
p22
I96
sg14
I97
s(dp23
g22
I775
sg14
I96
stp24
sS'hhints'
p25
((dp26
g22
I89
sg14
I97
s(dp27
g22
I870
sg14
I97
stp28
ss."
HStem: 89 99<285 867> 890 99<285 867>
VStem: 188 97<188 890> 867 96<188 890>
LayerCount: 2
Fore
SplineSet
188 89 m 1
 188 989 l 1
 963 989 l 1
 963 89 l 1
 188 89 l 1
285 188 m 1
 867 188 l 1
 867 890 l 1
 285 890 l 1
 285 188 l 1
EndSplineSet
EndChar

StartChar: A
Encoding: 65 65 1
Width: 1391
VWidth: 0
Flags: W
PickledData: "(dp1
S'org.pippin.gimp.org.kernagic'
p2
(dp3
S'lstem'
p4
I0
sS'rstem'
p5
I0
ssS'com.typemytype.robofont.layerData'
p6
(dp7
S'b'
(dp8
S'name'
p9
S'A'
sS'lib'
p10
(dp11
sS'unicodes'
p12
(tsS'width'
p13
I1391
sS'contours'
p14
((dp15
S'points'
p16
((dp17
S'segmentType'
p18
S'line'
p19
sS'x'
F930
sS'smooth'
p20
I00
sS'y'
F587
s(dp21
g18
S'line'
p22
sS'x'
F422
sg20
I00
sS'y'
F587
s(dp23
g18
S'line'
p24
sS'x'
F675
sg20
I00
sS'y'
F1280
stp25
s(dp26
g16
((dp27
g18
S'line'
p28
sS'x'
F30
sg20
I00
sS'y'
F0
s(dp29
g18
S'line'
p30
sS'x'
F210
sg20
I00
sS'y'
F0
s(dp31
g18
S'line'
p32
sS'x'
F381
sg20
I00
sS'y'
F462
s(dp33
g18
S'line'
p34
sS'x'
F970
sg20
I00
sS'y'
F462
s(dp35
g18
S'line'
p36
sS'x'
F1142
sg20
I00
sS'y'
F0
s(dp37
g18
S'line'
p38
sS'x'
F1316
sg20
I00
sS'y'
F0
s(dp39
g18
S'line'
p40
sS'x'
F759
sg20
I00
sS'y'
F1456
s(dp41
g18
S'line'
p42
sS'x'
F588
sg20
I00
sS'y'
F1456
stp43
stp44
sS'components'
p45
(tsS'anchors'
p46
(tsss."
HStem: 0 21G<46 226.446 1143.51 1325> 462 125<431 938> 1436 20G<589.431 775.651>
LayerCount: 2
Fore
SplineSet
938 587 m 1
 683 1279 l 1
 431 587 l 1
 938 587 l 1
46 0 m 1
 597 1456 l 1
 768 1456 l 1
 1325 0 l 1
 1151 0 l 1
 978 462 l 1
 391 462 l 1
 219 0 l 1
 46 0 l 1
EndSplineSet
EndChar

StartChar: AE
Encoding: 198 198 2
Width: 1562
VWidth: 0
Flags: W
PickledData: "(dp1
S'org.pippin.gimp.org.kernagic'
p2
(dp3
S'lstem'
p4
I0
sS'rstem'
p5
I0
ssS'com.typemytype.robofont.layerData'
p6
(dp7
S'b'
(dp8
S'name'
p9
S'AE'
p10
sS'lib'
p11
(dp12
sS'unicodes'
p13
(tsS'width'
p14
I1562
sS'contours'
p15
(tsS'components'
p16
(tsS'anchors'
p17
(tsss."
HStem: 0 137<896 1517> 472 125<432 727> 696 136<896 1446> 1321 135<896 1508>
VStem: 727 169<137 472 597 696 832 1301>
LayerCount: 2
Fore
SplineSet
727 0 m 1
 727 472 l 1
 384 472 l 1
 183 0 l 1
 7 0 l 1
 643 1456 l 1
 1514 1456 l 1
 1508 1321 l 1
 896 1321 l 1
 896 832 l 1
 1446 832 l 1
 1446 696 l 1
 896 696 l 1
 896 137 l 1
 1529 137 l 1
 1517 0 l 1
 727 0 l 1
727 597 m 1
 727 1301 l 1
 432 597 l 1
 727 597 l 1
EndSplineSet
EndChar

StartChar: B
Encoding: 66 66 15
Width: 1334
VWidth: 0
Flags: W
PickledData: "(dp1
S'org.pippin.gimp.org.kernagic'
p2
(dp3
S'lstem'
p4
I0
sS'rstem'
p5
I0
ssS'com.typemytype.robofont.layerData'
p6
(dp7
S'b'
(dp8
S'name'
p9
S'B'
sS'lib'
p10
(dp11
sS'unicodes'
p12
(tsS'width'
p13
I1334
sS'contours'
p14
((dp15
S'points'
p16
((dp17
S'segmentType'
p18
S'line'
p19
sS'x'
I252
sS'smooth'
p20
I00
sS'y'
I1315
s(dp21
S'y'
I1383
sS'x'
I850
sg20
I00
s(dp22
S'y'
I1284
sS'x'
I965
sg20
I00
s(dp23
g18
S'curve'
p24
sS'x'
I965
sg20
I01
sS'y'
I1066
s(dp25
S'y'
I838
sS'x'
I965
sg20
I00
s(dp26
S'y'
I720
sS'x'
I868
sg20
I00
s(dp27
g18
S'curve'
p28
sS'x'
I252
sg20
I00
sS'y'
I784
s(dp29
g18
S'line'
p30
sS'x'
I312
sg20
I00
sS'y'
I740
s(dp31
g18
S'line'
p32
sS'x'
I312
sg20
I00
sS'y'
I1372
stp33
s(dp34
g16
((dp35
g18
S'line'
p36
sS'x'
I136
sg20
I00
sS'y'
I0
s(dp37
g18
S'line'
p38
sS'x'
I312
sg20
I00
sS'y'
I0
s(dp39
g18
S'line'
p40
sS'x'
I312
sg20
I00
sS'y'
I698
s(dp41
g18
S'line'
p42
sS'x'
I252
sg20
I00
sS'y'
I656
s(dp43
S'y'
I580
sS'x'
I981
sg20
I00
s(dp44
S'y'
I783
sS'x'
I1125
sg20
I00
s(dp45
g18
S'curve'
p46
sS'x'
I1125
sg20
I01
sS'y'
I1068
s(dp47
S'y'
I1403
sS'x'
I1125
sg20
I00
s(dp48
S'y'
I1526
sS'x'
I891
sg20
I00
s(dp49
g18
S'curve'
p50
sS'x'
I136
sg20
I00
sS'y'
I1432
stp51
stp52
sS'components'
p53
(tsS'anchors'
p54
(tsss."
HStem: -10 134<357.929 881.48> 723 126<355 885.153> 1336 128<359.642 869.21>
VStem: 179 176<129.405 723 849 1326.26> 993 157<944.011 1235.09> 1029 174<240.533 598.234>
LayerCount: 2
Fore
SplineSet
355 723 m 1xf4
 355 132 l 1
 431 127 498 124 558 124 c 0
 1001 124 1029 263 1029 424 c 0
 1029 635 908 723 626 723 c 2
 355 723 l 1xf4
355 1322 m 1
 355 849 l 1
 637 849 l 2
 827 849 993 886 993 1089 c 0xf8
 993 1250 900 1336 602 1336 c 0
 532 1336 450 1332 355 1322 c 1
527 -10 m 0
 424 -10 308 -4 179 7 c 1
 179 1432 l 1
 344 1454 481 1464 595 1464 c 0
 1145 1464 1150 1237 1150 1099 c 0xf8
 1150 969 1093 852 907 791 c 1
 1120 739 1203 610 1203 432 c 0xf4
 1203 116 1002 -10 527 -10 c 0
EndSplineSet
EndChar

StartChar: C
Encoding: 67 67 16
Width: 1391
VWidth: 0
Flags: W
PickledData: "(dp1
S'org.pippin.gimp.org.kernagic'
p2
(dp3
S'lstem'
p4
I0
sS'rstem'
p5
I0
ssS'com.typemytype.robofont.layerData'
p6
(dp7
S'b'
(dp8
S'name'
p9
S'C'
sS'lib'
p10
(dp11
S'org.robofab.postScriptHintData'
p12
(dp13
sg6
(dp14
S'b'
(dp15
g9
S'C'
sg10
(dp16
sS'unicodes'
p17
(tsS'width'
p18
I1293
sS'contours'
p19
((dp20
S'points'
p21
((dp22
S'segmentType'
p23
S'curve'
p24
sS'x'
F1089
sS'smooth'
p25
I01
sS'y'
F393
s(dp26
S'y'
F186
sS'x'
F1089
sg25
I00
s(dp27
S'y'
F120
sS'x'
F960
sg25
I00
s(dp28
g23
S'curve'
p29
sS'x'
F775
sg25
I01
sS'y'
F120
s(dp30
S'y'
F120
sS'x'
F649
sg25
I00
s(dp31
S'y'
F150
sS'x'
F508
sg25
I00
s(dp32
g23
S'curve'
p33
sS'x'
F373
sg25
I00
sS'y'
F233
s(dp34
g23
S'line'
p35
sS'x'
F326
sg25
I00
sS'y'
F100
s(dp36
S'y'
F33
sS'x'
F424
sg25
I00
s(dp37
S'y'
F-20
sS'x'
F589
sg25
I00
s(dp38
g23
S'curve'
p39
sS'x'
F772
sg25
I01
sS'y'
F-20
s(dp40
S'y'
F-20
sS'x'
F1014
sg25
I00
s(dp41
S'y'
F71
sS'x'
F1254
sg25
I00
s(dp42
g23
S'curve'
p43
sS'x'
F1254
sg25
I01
sS'y'
F384
s(dp44
S'y'
F719
sS'x'
F1254
sg25
I00
s(dp45
S'y'
F735
sS'x'
F1055
sg25
I00
s(dp46
g23
S'curve'
p47
sS'x'
F670
sg25
I01
sS'y'
F889
s(dp48
S'y'
F941
sS'x'
F538
sg25
I00
s(dp49
S'y'
F976
sS'x'
F474
sg25
I00
s(dp50
g23
S'curve'
p51
sS'x'
F484
sg25
I01
sS'y'
F1119
s(dp52
S'y'
F1307
sS'x'
F497
sg25
I00
s(dp53
S'y'
F1340
sS'x'
F618
sg25
I00
s(dp54
g23
S'curve'
p55
sS'x'
F792
sg25
I01
sS'y'
F1340
s(dp56
S'y'
F1340
sS'x'
F915
sg25
I00
s(dp57
S'y'
F1298
sS'x'
F1052
sg25
I00
s(dp58
g23
S'curve'
p59
sS'x'
F1145
sg25
I00
sS'y'
F1240
s(dp60
g23
S'line'
p61
sS'x'
F1202
sg25
I00
sS'y'
F1372
s(dp62
S'y'
F1443
sS'x'
F1087
sg25
I00
s(dp63
S'y'
F1480
sS'x'
F932
sg25
I00
s(dp64
g23
S'curve'
p65
sS'x'
F786
sg25
I01
sS'y'
F1480
s(dp66
S'y'
F1480
sS'x'
F543
sg25
I00
s(dp67
S'y'
F1403
sS'x'
F336
sg25
I00
s(dp68
g23
S'curve'
p69
sS'x'
F317
sg25
I01
sS'y'
F1132
s(dp70
S'y'
F811
sS'x'
F295
sg25
I00
s(dp71
S'y'
F797
sS'x'
F491
sg25
I00
s(dp72
g23
S'curve'
p73
sS'x'
F851
sg25
I01
sS'y'
F651
s(dp74
S'y'
F582
sS'x'
F1022
sg25
I00
s(dp75
S'y'
F549
sS'x'
F1089
sg25
I00
stp76
stp77
sS'components'
p78
(tsS'anchors'
p79
(tssS'background'
p80
(dp81
g9
S'C'
sg10
(dp82
sg17
(tsg18
I1293
sg19
(tsg78
(tsg79
(tssssg17
(tsg18
I1391
sg19
((dp83
g21
((dp84
g23
S'curve'
p85
sS'x'
I737
sg25
I01
sS'y'
I-20
s(dp86
S'y'
I-20
sS'x'
I1179
sg25
I00
s(dp87
S'y'
I275
sS'x'
I1382
sg25
I00
s(dp88
g23
S'curve'
p89
sS'x'
I1382
sg25
I01
sS'y'
I718
s(dp90
S'y'
I1181
sS'x'
I1382
sg25
I00
s(dp91
S'y'
I1476
sS'x'
I1167
sg25
I00
s(dp92
g23
S'curve'
p93
sS'x'
I738
sg25
I01
sS'y'
I1476
s(dp94
S'y'
I1476
sS'x'
I300
sg25
I00
s(dp95
S'y'
I1184
sS'x'
I86
sg25
I00
s(dp96
g23
S'curve'
p97
sS'x'
I86
sg25
I01
sS'y'
I721
s(dp98
S'y'
I269
sS'x'
I86
sg25
I00
s(dp99
S'y'
I-20
sS'x'
I290
sg25
I00
stp100
s(dp101
g21
((dp102
g23
S'curve'
p103
sS'x'
I735
sg25
I01
sS'y'
I122
s(dp104
S'y'
I122
sS'x'
I385
sg25
I00
s(dp105
S'y'
I365
sS'x'
I263
sg25
I00
s(dp106
g23
S'curve'
p107
sS'x'
I263
sg25
I01
sS'y'
I720
s(dp108
S'y'
I1091
sS'x'
I263
sg25
I00
s(dp109
S'y'
I1334
sS'x'
I397
sg25
I00
s(dp110
g23
S'curve'
p111
sS'x'
I737
sg25
I01
sS'y'
I1334
s(dp112
S'y'
I1334
sS'x'
I1078
sg25
I00
s(dp113
S'y'
I1089
sS'x'
I1206
sg25
I00
s(dp114
g23
S'curve'
p115
sS'x'
I1206
sg25
I01
sS'y'
I720
s(dp116
S'y'
I365
sS'x'
I1206
sg25
I00
s(dp117
S'y'
I122
sS'x'
I1085
sg25
I00
stp118
stp119
sg78
(tsg79
(tsss."
HStem: -20 143<577.881 967.882> 1335 143<577.881 967.882>
VStem: 154 177<419.436 1038.56> 1126 141<275.669 339.12 1118.88 1182.33>
LayerCount: 2
Fore
SplineSet
1126 379 m 1
 1141 379 l 1
 1267 334 l 1
 1212 72 984 -20 764 -20 c 0
 383 -20 154 262 154 729 c 0
 154 1196 383 1478 764 1478 c 0
 984 1478 1212 1386 1267 1124 c 1
 1141 1079 l 1
 1126 1079 l 1
 1090 1242 956 1335 774 1335 c 0
 489 1335 331 1130 331 729 c 0
 331 328 489 123 774 123 c 0
 956 123 1090 216 1126 379 c 1
EndSplineSet
EndChar

StartChar: D
Encoding: 68 68 23
Width: 1476
VWidth: 0
Flags: W
PickledData: "(dp1
S'org.pippin.gimp.org.kernagic'
p2
(dp3
S'lstem'
p4
I0
sS'rstem'
p5
I0
ssS'com.typemytype.robofont.layerData'
p6
(dp7
S'b'
(dp8
S'name'
p9
S'D'
sS'lib'
p10
(dp11
sS'unicodes'
p12
(tsS'width'
p13
I1476
sS'contours'
p14
((dp15
S'points'
p16
((dp17
S'segmentType'
p18
S'line'
p19
sS'x'
I262
sS'smooth'
p20
I00
sS'y'
I70
s(dp21
g18
S'line'
p22
sS'x'
I262
sg20
I00
sS'y'
I1372
s(dp23
g18
S'line'
p24
sS'x'
I202
sg20
I00
sS'y'
I1315
s(dp25
S'y'
I1412
sS'x'
I929
sg20
I00
s(dp26
S'y'
I1173
sS'x'
I1088
sg20
I00
s(dp27
g18
S'curve'
p28
sS'x'
I1088
sg20
I01
sS'y'
I739
s(dp29
S'y'
I326
sS'x'
I1088
sg20
I00
s(dp30
S'y'
I40
sS'x'
I923
sg20
I00
s(dp31
g18
S'curve'
p32
sS'x'
I203
sg20
I00
sS'y'
I129
stp33
s(dp34
g16
((dp35
g18
S'line'
p36
sS'x'
I86
sg20
I00
sS'y'
I11
s(dp37
S'y'
I-98
sS'x'
I985
sg20
I00
s(dp38
S'y'
I230
sS'x'
I1264
sg20
I00
s(dp39
g18
S'curve'
p40
sS'x'
I1264
sg20
I01
sS'y'
I744
s(dp41
S'y'
I1241
sS'x'
I1264
sg20
I00
s(dp42
S'y'
I1564
sS'x'
I1076
sg20
I00
s(dp43
g18
S'curve'
p44
sS'x'
I86
sg20
I00
sS'y'
I1432
stp45
stp46
sS'components'
p47
(tsS'anchors'
p48
(tsssS'com.fontlab.hintData'
p49
(dp50
S'vhints'
p51
((dp52
S'position'
p53
I1280
sg13
I122
stp54
sS'hhints'
p55
((dp56
g53
I0
sg13
I94
s(dp57
g53
I1355
sg13
I94
stp58
ss."
HStem: -10 123<364.474 820.179> 1336 126<364.919 862.165>
VStem: 186 176<118.276 1326.63> 1142 176<435.506 1051.81>
LayerCount: 2
Fore
SplineSet
362 1322 m 1
 362 122 l 1
 425 116 483 113 536 113 c 0
 1026 113 1142 377 1142 739 c 0
 1142 1108 1037 1336 579 1336 c 0
 514 1336 442 1331 362 1322 c 1
186 11 m 1
 186 1432 l 1
 329 1452 455 1462 566 1462 c 0
 1182 1462 1318 1165 1318 744 c 0
 1318 297 1109 -10 490 -10 c 0
 398 -10 297 -3 186 11 c 1
EndSplineSet
EndChar

StartChar: Delta
Encoding: 916 916 26
Width: 1334
VWidth: 0
Flags: W
PickledData: "(dp1
S'org.pippin.gimp.org.kernagic'
p2
(dp3
S'lstem'
p4
I0
sS'rstem'
p5
I0
ssS'com.typemytype.robofont.layerData'
p6
(dp7
S'b'
(dp8
S'name'
p9
S'Delta'
p10
sS'lib'
p11
(dp12
sS'unicodes'
p13
(tsS'width'
p14
I1334
sS'contours'
p15
(tsS'components'
p16
(tsS'anchors'
p17
(tsss."
HStem: 0 146<258 1072> 1462 20G<571.807 752.301>
LayerCount: 2
Fore
SplineSet
258 146 m 1
 1072 146 l 1
 662 1307 l 1
 258 146 l 1
46 0 m 1
 579 1482 l 1
 745 1482 l 1
 1286 0 l 1
 46 0 l 1
EndSplineSet
EndChar

StartChar: E
Encoding: 69 69 27
Width: 1278
VWidth: 0
Flags: W
PickledData: "(dp1
S'org.pippin.gimp.org.kernagic'
p2
(dp3
S'lstem'
p4
I0
sS'rstem'
p5
I0
ssS'com.typemytype.robofont.layerData'
p6
(dp7
S'b'
(dp8
S'name'
p9
S'E'
sS'lib'
p10
(dp11
sS'unicodes'
p12
(tsS'width'
p13
I1278
sS'contours'
p14
(tsS'components'
p15
(tsS'anchors'
p16
(tsss."
HStem: 0 137<355 1133> 686 136<355 1062> 1321 135<355 1124>
VStem: 179 176<137 686 822 1321>
LayerCount: 2
Fore
SplineSet
179 0 m 1
 179 1456 l 1
 1130 1456 l 1
 1124 1321 l 1
 355 1321 l 1
 355 822 l 1
 1062 822 l 1
 1062 686 l 1
 355 686 l 1
 355 137 l 1
 1145 137 l 1
 1133 0 l 1
 179 0 l 1
EndSplineSet
EndChar

StartChar: Eng
Encoding: 330 330 36
Width: 1505
VWidth: 0
Flags: W
PickledData: "(dp1
S'org.pippin.gimp.org.kernagic'
p2
(dp3
S'lstem'
p4
I0
sS'rstem'
p5
I0
ssS'com.typemytype.robofont.layerData'
p6
(dp7
S'b'
(dp8
S'name'
p9
S'Eng'
p10
sS'lib'
p11
(dp12
sS'unicodes'
p13
(tsS'width'
p14
I1505
sS'contours'
p15
(tsS'components'
p16
(tsS'anchors'
p17
(tsss."
HStem: -316 135<665.496 1058.43> 1370 150<633.071 1032.61>
VStem: 214 137<8 1151.82 1402.91 1504> 1139 137<-95.1905 1256.82>
LayerCount: 2
Fore
SplineSet
881 -316 m 0
 850 -316 801 -314 663 -301 c 1
 641 -170 l 1
 794 -180 804 -181 827 -181 c 0
 1119 -181 1139 -104 1139 181 c 2
 1139 1012 l 2
 1139 1281 1065 1370 843 1370 c 0
 609 1370 445 1234 351 1093 c 1
 351 8 l 1
 214 8 l 1
 211 1504 l 1
 338 1504 l 1
 354 1277 l 1
 547 1485 720 1520 892 1520 c 0
 1145 1520 1276 1346 1276 1016 c 2
 1276 173 l 2
 1276 -130 1227 -316 881 -316 c 0
EndSplineSet
EndChar

StartChar: Euro
Encoding: 8364 8364 40
Width: 1391
VWidth: 0
Flags: W
PickledData: "(dp1
S'org.pippin.gimp.org.kernagic'
p2
(dp3
S'lstem'
p4
I0
sS'rstem'
p5
I0
ssS'com.typemytype.robofont.layerData'
p6
(dp7
S'b'
(dp8
S'name'
p9
S'Euro'
p10
sS'lib'
p11
(dp12
sS'unicodes'
p13
(tsS'width'
p14
I1391
sS'contours'
p15
(tsS'components'
p16
(tsS'anchors'
p17
(tsss."
HStem: -20 143<497.29 889.586> 538 111<-15 78 267 834> 829 108<-10 79 269 842> 1335 143<500.077 889.586>
VStem: 75 177<649 829> 1047 141<275.669 339.12 1118.88 1182.33>
LayerCount: 2
Fore
SplineSet
1047 379 m 1
 1062 379 l 1
 1188 334 l 1
 1133 72 906 -20 686 -20 c 0
 360 -20 145 186 90 538 c 1
 -23 538 l 1
 -15 649 l 1
 78 649 l 1
 76 675 75 702 75 729 c 0
 75 763 77 797 79 829 c 1
 -16 829 l 1
 -10 937 l 1
 92 937 l 1
 152 1278 365 1478 686 1478 c 0
 906 1478 1133 1386 1188 1124 c 1
 1062 1079 l 1
 1047 1079 l 1
 1011 1242 878 1335 696 1335 c 0
 465 1335 317 1201 269 937 c 1
 850 937 l 1
 842 829 l 1
 256 829 l 1
 254 797 252 764 252 729 c 0
 252 701 254 675 255 649 c 1
 842 649 l 1
 834 538 l 1
 267 538 l 1
 312 263 461 123 696 123 c 0
 878 123 1011 216 1047 379 c 1
EndSplineSet
EndChar

StartChar: F
Encoding: 70 70 41
Width: 1192
VWidth: 0
Flags: W
PickledData: "(dp1
S'org.pippin.gimp.org.kernagic'
p2
(dp3
S'lstem'
p4
I0
sS'rstem'
p5
I705
ssS'com.typemytype.robofont.layerData'
p6
(dp7
S'b'
(dp8
S'name'
p9
S'F'
sS'lib'
p10
(dp11
sS'unicodes'
p12
(tsS'width'
p13
I1192
sS'contours'
p14
(tsS'components'
p15
(tsS'anchors'
p16
(tsss."
HStem: 0 21G<192 368> 666 131<368 1050> 1318 138<368 1145>
VStem: 192 176<0 666 797 1318>
LayerCount: 2
Fore
SplineSet
192 0 m 1
 192 1456 l 1
 1155 1456 l 1
 1145 1318 l 1
 368 1318 l 1
 368 797 l 1
 1050 797 l 1
 1050 666 l 1
 368 666 l 1
 368 0 l 1
 192 0 l 1
EndSplineSet
EndChar

StartChar: G
Encoding: 71 71 42
Width: 1448
VWidth: 0
Flags: W
PickledData: "(dp1
S'org.pippin.gimp.org.kernagic'
p2
(dp3
S'lstem'
p4
I0
sS'rstem'
p5
I0
ssS'com.typemytype.robofont.layerData'
p6
(dp7
S'b'
(dp8
S'name'
p9
S'G'
sS'lib'
p10
(dp11
sS'unicodes'
p12
(tsS'width'
p13
I1448
sS'contours'
p14
((dp15
S'points'
p16
((dp17
S'segmentType'
p18
S'curve'
p19
sS'x'
F751
sS'smooth'
p20
I01
sS'y'
I-20
s(dp21
S'y'
I-20
sS'x'
F947
sg20
I00
s(dp22
S'y'
I14
sS'x'
F1072
sg20
I00
s(dp23
g18
S'curve'
p24
sS'x'
F1219
sg20
I00
sS'y'
I72
s(dp25
g18
S'line'
p26
sS'x'
F1219
sg20
I00
sS'y'
I764
s(dp27
g18
S'line'
p28
sS'x'
F768
sg20
I00
sS'y'
I764
s(dp29
g18
S'line'
p30
sS'x'
F760
sg20
I00
sS'y'
I634
s(dp31
g18
S'line'
p32
sS'x'
F1104
sg20
I00
sS'y'
I621
s(dp33
g18
S'line'
p34
sS'x'
F1056
sg20
I00
sS'y'
I676
s(dp35
g18
S'line'
p36
sS'x'
F1056
sg20
I00
sS'y'
I108
s(dp37
g18
S'line'
p38
sS'x'
F1116
sg20
I00
sS'y'
I183
s(dp39
S'y'
I161
sS'x'
F1048
sg20
I00
s(dp40
S'y'
I123
sS'x'
F961
sg20
I00
s(dp41
g18
S'curve'
p42
sS'x'
F782
sg20
I01
sS'y'
I123
s(dp43
S'y'
I123
sS'x'
F397
sg20
I00
s(dp44
S'y'
I369
sS'x'
F264
sg20
I00
s(dp45
g18
S'curve'
p46
sS'x'
F264
sg20
I01
sS'y'
I738
s(dp47
S'y'
I1091
sS'x'
F264
sg20
I00
s(dp48
S'y'
I1334
sS'x'
F441
sg20
I00
s(dp49
g18
S'curve'
p50
sS'x'
F783
sg20
I01
sS'y'
I1334
s(dp51
S'y'
I1334
sS'x'
F973
sg20
I00
s(dp52
S'y'
I1254
sS'x'
F1066
sg20
I00
s(dp53
g18
S'curve'
p54
sS'x'
F1130
sg20
I00
sS'y'
I1186
s(dp55
g18
S'line'
p56
sS'x'
F1217
sg20
I00
sS'y'
I1294
s(dp57
S'y'
I1400
sS'x'
F1135
sg20
I00
s(dp58
S'y'
I1476
sS'x'
F991
sg20
I00
s(dp59
g18
S'curve'
p60
sS'x'
F780
sg20
I01
sS'y'
I1476
s(dp61
S'y'
I1476
sS'x'
F341
sg20
I00
s(dp62
S'y'
I1176
sS'x'
F87
sg20
I00
s(dp63
g18
S'curve'
p64
sS'x'
F87
sg20
I01
sS'y'
I737
s(dp65
S'y'
I303
sS'x'
F87
sg20
I00
s(dp66
S'y'
I-20
sS'x'
F302
sg20
I00
stp67
stp68
sS'components'
p69
(tsS'anchors'
p70
(tsss."
HStem: -20 143<599.383 1112.19> 646 118<828 1012.54> 1334 142<624.006 1055.97>
VStem: 147 177<433.738 1005.12> 1116 163<150.084 624>
LayerCount: 2
Fore
SplineSet
811 -20 m 0
 362 -20 147 303 147 737 c 0
 147 1176 401 1476 840 1476 c 0
 1051 1476 1196 1400 1283 1298 c 1
 1203 1194 l 1
 1187 1194 l 1
 1123 1260 1026 1334 843 1334 c 0
 501 1334 324 1091 324 738 c 0
 324 369 457 123 842 123 c 0
 973 123 1055 143 1116 163 c 1
 1116 624 l 1
 819 646 l 1
 828 764 l 1
 1279 764 l 1
 1279 72 l 1
 1132 14 1007 -20 811 -20 c 0
EndSplineSet
EndChar

StartChar: Gamma
Encoding: 915 915 43
Width: 1107
VWidth: 0
Flags: W
PickledData: "(dp1
S'org.pippin.gimp.org.kernagic'
p2
(dp3
S'lstem'
p4
I0
sS'rstem'
p5
I0
ssS'com.typemytype.robofont.layerData'
p6
(dp7
S'b'
(dp8
S'name'
p9
S'Gamma'
p10
sS'lib'
p11
(dp12
sS'unicodes'
p13
(tsS'width'
p14
I1107
sS'contours'
p15
(tsS'components'
p16
(tsS'anchors'
p17
(tsss."
HStem: 0 21G<224 346> 1389 96<346 1071>
VStem: 224 122<0 1389>
LayerCount: 2
Fore
SplineSet
224 0 m 1
 224 1485 l 1
 1076 1484 l 1
 1071 1388 l 1
 346 1389 l 1
 346 0 l 1
 224 0 l 1
EndSplineSet
EndChar

StartChar: H
Encoding: 72 72 49
Width: 1476
VWidth: 0
Flags: W
PickledData: "(dp1
S'org.pippin.gimp.org.kernagic'
p2
(dp3
S'lstem'
p4
I0
sS'rstem'
p5
I0
ssS'com.typemytype.robofont.layerData'
p6
(dp7
S'b'
(dp8
S'name'
p9
S'H'
sS'lib'
p10
(dp11
sS'unicodes'
p12
(tsS'width'
p13
I1476
sS'contours'
p14
(tsS'components'
p15
(tsS'anchors'
p16
(tsss."
HStem: 0 21G<186 362 1111 1287> 678 142<362 1111> 1436 20G<186 362 1111 1287>
VStem: 186 176<0 678 820 1456> 1111 176<0 678 820 1456>
LayerCount: 2
Fore
SplineSet
186 0 m 1
 186 1456 l 1
 362 1456 l 1
 362 820 l 1
 1111 820 l 1
 1111 1456 l 1
 1287 1456 l 1
 1287 0 l 1
 1111 0 l 1
 1111 678 l 1
 362 678 l 1
 362 0 l 1
 186 0 l 1
EndSplineSet
EndChar

StartChar: I
Encoding: 73 73 52
Width: 965
VWidth: 0
Flags: W
PickledData: "(dp1
S'org.pippin.gimp.org.kernagic'
p2
(dp3
S'lstem'
p4
I0
sS'rstem'
p5
I0
ssS'com.typemytype.robofont.layerData'
p6
(dp7
S'b'
(dp8
S'name'
p9
S'I'
sS'lib'
p10
(dp11
sS'unicodes'
p12
(tsS'width'
p13
I965
sS'contours'
p14
(tsS'components'
p15
(tsS'anchors'
p16
(tsssS'com.fontlab.hintData'
p17
(dp18
S'vhints'
p19
((dp20
S'position'
p21
I111
sg13
I529
stp22
sS'hhints'
p23
((dp24
g21
I0
sg13
I86
s(dp25
g21
I1363
sg13
I86
stp26
ss."
HStem: 0 110<198 390 566 756> 1347 109<198 390 566 756>
VStem: 390 176<110 1347>
LayerCount: 2
Fore
SplineSet
198 1456 m 1
 756 1456 l 1
 756 1347 l 1
 566 1347 l 1
 566 110 l 1
 756 110 l 1
 756 0 l 1
 198 0 l 1
 198 110 l 1
 390 110 l 1
 390 1347 l 1
 198 1347 l 1
 198 1456 l 1
EndSplineSet
EndChar

StartChar: J
Encoding: 74 74 63
Width: 795
VWidth: 0
Flags: W
PickledData: "(dp1
S'org.pippin.gimp.org.kernagic'
p2
(dp3
S'lstem'
p4
I132
sS'rstem'
p5
I0
ssS'com.typemytype.robofont.layerData'
p6
(dp7
S'b'
(dp8
S'name'
p9
S'J'
sS'lib'
p10
(dp11
sS'unicodes'
p12
(tsS'width'
p13
I795
sS'contours'
p14
((dp15
S'points'
p16
((dp17
S'segmentType'
p18
S'line'
p19
sS'x'
I688
sS'smooth'
p20
I00
sS'y'
I-6
s(dp21
g18
S'line'
p22
sS'x'
I688
sg20
I00
sS'y'
I1082
s(dp23
g18
S'line'
p24
sS'x'
I524
sg20
I00
sS'y'
I1082
s(dp25
g18
S'line'
p26
sS'x'
I524
sg20
I00
sS'y'
I-6
stp27
s(dp28
g16
((dp29
g18
S'line'
p30
sS'x'
I411
sg20
I01
sS'y'
I-362
s(dp31
S'y'
I-296
sS'x'
I615
sg20
I00
s(dp32
S'y'
I-261
sS'x'
I688
sg20
I00
s(dp33
g18
S'curve'
p34
sS'x'
I688
sg20
I01
sS'y'
I-5
s(dp35
S'y'
I-5
sS'x'
I688
sg20
I00
s(dp36
S'y'
I-5
sS'x'
I524
sg20
I00
s(dp37
g18
S'curve'
p38
sS'x'
I524
sg20
I01
sS'y'
I-5
s(dp39
S'y'
I-162
sS'x'
I524
sg20
I00
s(dp40
S'y'
I-179
sS'x'
I499
sg20
I00
s(dp41
g18
S'curve'
p42
sS'x'
I402
sg20
I01
sS'y'
I-219
s(dp43
g18
S'line'
p44
sS'x'
I289
sg20
I00
sS'y'
I-265
s(dp45
g18
S'line'
p46
sS'x'
I337
sg20
I00
sS'y'
I-386
stp47
stp48
sS'components'
p49
(tsS'anchors'
p50
(tsss."
HStem: -395 21G<200.908 266.857> 1436 20G<381 557>
VStem: 381 176<-179.812 1456>
LayerCount: 2
Fore
SplineSet
557 5 m 2
 557 -251 503 -293 290 -367 c 2
 209 -395 l 1
 156 -264 l 1
 272 -216 l 2
 375 -174 381 -152 381 5 c 2
 381 1456 l 1
 557 1456 l 1
 557 5 l 2
EndSplineSet
EndChar

StartChar: K
Encoding: 75 75 65
Width: 1334
VWidth: 0
Flags: W
PickledData: "(dp1
S'org.pippin.gimp.org.kernagic'
p2
(dp3
S'lstem'
p4
I0
sS'rstem'
p5
I851
ssS'com.typemytype.robofont.layerData'
p6
(dp7
S'b'
(dp8
S'name'
p9
S'K'
sS'lib'
p10
(dp11
sS'unicodes'
p12
(tsS'width'
p13
I1334
sS'contours'
p14
(tsS'components'
p15
(tsS'anchors'
p16
(tsss."
HStem: 0 21G<186 362 1096.69 1310> 1436 20G<186 362 1061.69 1274>
VStem: 186 176<0 582 747 1456>
LayerCount: 2
Fore
SplineSet
186 0 m 1
 186 1456 l 1
 362 1456 l 1
 362 747 l 1
 1082 1456 l 1
 1274 1456 l 1
 1274 1434 l 1
 669 842 l 1
 1310 20 l 1
 1310 0 l 1
 1112 0 l 1
 540 747 l 1
 362 582 l 1
 362 0 l 1
 186 0 l 1
EndSplineSet
EndChar

StartChar: L
Encoding: 76 76 67
Width: 1079
VWidth: 0
Flags: W
PickledData: "(dp1
S'org.pippin.gimp.org.kernagic'
p2
(dp3
S'lstem'
p4
I0
sS'rstem'
p5
I597
ssS'com.typemytype.robofont.layerData'
p6
(dp7
S'b'
(dp8
S'name'
p9
S'L'
sS'lib'
p10
(dp11
sS'unicodes'
p12
(tsS'width'
p13
I1079
sS'contours'
p14
(tsS'components'
p15
(tsS'anchors'
p16
(tsss."
HStem: 0 137<368 1074> 1436 20G<192 368>
VStem: 192 176<137 1456>
LayerCount: 2
Fore
SplineSet
192 0 m 1
 192 1456 l 1
 368 1456 l 1
 368 137 l 1
 1078 137 l 1
 1074 0 l 1
 192 0 l 1
EndSplineSet
EndChar

StartChar: Lambda
Encoding: 923 923 69
Width: 1363
VWidth: 0
Flags: W
PickledData: "(dp1
S'org.pippin.gimp.org.kernagic'
p2
(dp3
S'lstem'
p4
I0
sS'rstem'
p5
I0
ssS'com.typemytype.robofont.layerData'
p6
(dp7
S'b'
(dp8
S'name'
p9
S'Lambda'
p10
sS'lib'
p11
(dp12
sS'unicodes'
p13
(tsS'width'
p14
I1363
sS'contours'
p15
(tsS'components'
p16
(tsS'anchors'
p17
(tsss."
HStem: 0 21G<52 233.836 1117.06 1296> 1462 20G<576.821 768.22>
LayerCount: 2
Fore
SplineSet
52 0 m 1
 584 1482 l 1
 761 1482 l 1
 1296 0 l 1
 1124 0 l 1
 672 1302 l 1
 227 0 l 1
 52 0 l 1
EndSplineSet
EndChar

StartChar: M
Encoding: 77 77 74
Width: 1789
VWidth: 0
Flags: W
PickledData: "(dp1
S'org.pippin.gimp.org.kernagic'
p2
(dp3
S'lstem'
p4
I0
sS'rstem'
p5
I0
ssS'com.typemytype.robofont.layerData'
p6
(dp7
S'b'
(dp8
S'name'
p9
S'M'
sS'lib'
p10
(dp11
sS'unicodes'
p12
(tsS'width'
p13
I1789
sS'contours'
p14
(tsS'components'
p15
(tsS'anchors'
p16
(tsssS'com.typemytype.robofont.guides'
p17
((dp18
S'angle'
p19
I0
sg9
NsS'magnetic'
p20
I5
sS'isGlobal'
p21
I00
sS'y'
I378
sS'x'
I548
stp22
sS'com.fontlab.hintData'
p23
(dp24
S'vhints'
p25
((dp26
S'position'
p27
I185
sg13
I166
s(dp28
g27
I214
sg13
I151
s(dp29
g27
I332
sg13
I33
s(dp30
g27
I1463
sg13
I149
s(dp31
g27
I1463
sg13
I39
s(dp32
g27
I1477
sg13
I164
stp33
ss."
HStem: 0 21G<179 345 1449 1613> 1436 20G<202.512 427.787 1370.14 1589.49>
VStem: 179 166<0 1059.78> 203 151<868.224 1235> 1440 149<868.224 1222> 1449 164<0 1059.78>
LayerCount: 2
Fore
SplineSet
179 0 m 1xe0
 179 472 l 1xe0
 203 1456 l 1
 419 1456 l 1
 897 368 l 1
 1379 1456 l 1
 1589 1456 l 1xd8
 1613 472 l 1
 1613 0 l 1
 1449 0 l 1
 1449 474 l 1xc4
 1440 928 l 1
 1440 1222 l 1
 971 167 l 1
 820 167 l 1
 354 1235 l 1
 354 924 l 1xd8
 345 471 l 1
 345 0 l 1
 179 0 l 1xe0
EndSplineSet
EndChar

StartChar: N
Encoding: 78 78 76
Width: 1505
VWidth: 0
Flags: W
PickledData: "(dp1
S'org.pippin.gimp.org.kernagic'
p2
(dp3
S'lstem'
p4
I0
sS'rstem'
p5
I0
ssS'com.typemytype.robofont.layerData'
p6
(dp7
S'b'
(dp8
S'name'
p9
S'N'
sS'lib'
p10
(dp11
sS'unicodes'
p12
(tsS'width'
p13
I1505
sS'contours'
p14
(tsS'components'
p15
(tsS'anchors'
p16
(tsss."
HStem: 0 21G<205 364 1108.37 1306> 1436 20G<205 395.561 1148 1306>
VStem: 205 159<0 1175.85> 205 143<809.152 1224> 1148 158<222 1456>
LayerCount: 2
Fore
SplineSet
205 0 m 1xe8
 205 1456 l 1
 383 1456 l 1
 1158 222 l 1
 1148 644 l 1
 1148 1456 l 1
 1306 1456 l 1
 1306 0 l 1
 1121 0 l 1
 348 1224 l 1xd8
 364 761 l 1
 364 0 l 1
 205 0 l 1xe8
EndSplineSet
EndChar

StartChar: O
Encoding: 79 79 81
Width: 1590
VWidth: 0
Flags: W
PickledData: "(dp1
S'org.pippin.gimp.org.kernagic'
p2
(dp3
S'lstem'
p4
I0
sS'rstem'
p5
I0
ssS'com.typemytype.robofont.layerData'
p6
(dp7
S'b'
(dp8
S'name'
p9
S'O'
sS'lib'
p10
(dp11
sS'unicodes'
p12
(tsS'width'
p13
I1590
sS'contours'
p14
(tsS'components'
p15
(tsS'anchors'
p16
(tsssS'com.typemytype.robofont.guides'
p17
(tsS'com.fontlab.hintData'
p18
(dp19
S'vhints'
p20
((dp21
S'position'
p22
I150
sg13
I122
s(dp23
g22
I1390
sg13
I122
stp24
sS'hhints'
p25
((dp26
g22
I-19
sg13
I96
s(dp27
g22
I1372
sg13
I96
stp28
ss."
HStem: -20 142<573.264 1011.08> 1334 142<586.729 1008.19>
VStem: 147 177<412.941 1030.55> 1267 176<413.574 1035.34>
LayerCount: 2
Fore
SplineSet
796 122 m 0
 1146 122 1267 365 1267 720 c 0
 1267 1089 1139 1334 798 1334 c 0
 458 1334 324 1091 324 720 c 0
 324 365 446 122 796 122 c 0
798 -20 m 0
 351 -20 147 269 147 721 c 0
 147 1184 361 1476 799 1476 c 0
 1228 1476 1443 1181 1443 718 c 0
 1443 275 1240 -20 798 -20 c 0
EndSplineSet
EndChar

StartChar: OE
Encoding: 338 338 82
Width: 10082
VWidth: 0
Flags: W
PickledData: "(dp1
S'org.pippin.gimp.org.kernagic'
p2
(dp3
S'lstem'
p4
I0
sS'rstem'
p5
I0
ssS'com.typemytype.robofont.layerData'
p6
(dp7
S'b'
(dp8
S'name'
p9
S'OE'
p10
sS'lib'
p11
(dp12
sS'unicodes'
p13
(tsS'width'
p14
I10082
sS'contours'
p15
(tsS'components'
p16
(tsS'anchors'
p17
(tsss."
HStem: 0 135<13482.1 13790> 0 137<13944 14722> 686 136<13944 14651> 1321 135<13944 14713> 1359 137<13473.6 13790>
VStem: 12980 176<468.112 1028.57> 13768 176<137 686 822 1321> 13790 74<135 1359>
LayerCount: 2
Fore
SplineSet
13864 1496 m 1xad
 13864 0 l 1x6d
 13762 0 l 2
 13299 0 12980 232 12980 744 c 0
 12980 1231 13271 1496 13733 1496 c 2
 13864 1496 l 1xad
13790 135 m 1xad
 13790 1359 l 1
 13743 1359 l 2
 13352 1359 13156 1146 13156 749 c 0
 13156 315 13381 135 13770 135 c 2
 13790 135 l 1xad
EndSplineSet
Refer: 27 69 N 1 0 0 1 13589 0 2
EndChar

StartChar: Omega
Encoding: 937 937 91
Width: 1618
VWidth: 0
Flags: W
PickledData: "(dp1
S'org.pippin.gimp.org.kernagic'
p2
(dp3
S'lstem'
p4
I0
sS'rstem'
p5
I0
ssS'com.typemytype.robofont.layerData'
p6
(dp7
S'b'
(dp8
S'name'
p9
S'Omega'
p10
sS'lib'
p11
(dp12
sS'unicodes'
p13
(tsS'width'
p14
I1618
sS'contours'
p15
(tsS'components'
p16
(tsS'anchors'
p17
(tsss."
HStem: -20 178<601.752 1013.35> 1311 181<604.079 1010.84>
VStem: 116 221<458.787 999.523> 1277 222<459.149 998.663>
LayerCount: 2
Fore
SplineSet
808 -20 m 0
 373 -20 116 272 116 731 c 0
 116 1200 379 1492 808 1492 c 0
 1232 1492 1499 1198 1499 730 c 0
 1499 275 1239 -20 808 -20 c 0
808 158 m 0
 1118 158 1277 398 1277 730 c 0
 1277 1074 1112 1311 808 1311 c 0
 504 1311 337 1075 337 730 c 0
 337 398 498 158 808 158 c 0
EndSplineSet
EndChar

StartChar: Oslash
Encoding: 216 216 92
Width: 1476
VWidth: 0
Flags: W
PickledData: "(dp1
S'org.pippin.gimp.org.kernagic'
p2
(dp3
S'lstem'
p4
I0
sS'rstem'
p5
I0
ssS'com.typemytype.robofont.layerData'
p6
(dp7
S'b'
(dp8
S'name'
p9
S'Oslash'
p10
sS'lib'
p11
(dp12
sS'unicodes'
p13
(tsS'width'
p14
I1476
sS'contours'
p15
(tsS'components'
p16
(tsS'anchors'
p17
(tsss."
HStem: -20 142<220.264 658.079> 1334 142<233.729 655.187>
VStem: -206 177<412.941 1030.55> 914 176<413.574 1035.34>
LayerCount: 2
Fore
SplineSet
135 -250 m 1
 39 -216 l 1
 757 1687 l 1
 859 1648 l 1
 135 -250 l 1
EndSplineSet
Refer: 81 79 N 1 0 0 1 -353 0 2
EndChar

StartChar: P
Encoding: 80 80 95
Width: 1278
VWidth: 0
Flags: W
PickledData: "(dp1
S'org.pippin.gimp.org.kernagic'
p2
(dp3
S'lstem'
p4
I0
sS'rstem'
p5
I807
ssS'com.typemytype.robofont.layerData'
p6
(dp7
S'b'
(dp8
S'name'
p9
S'P'
sS'lib'
p10
(dp11
sS'unicodes'
p12
(tsS'width'
p13
I1278
sS'contours'
p14
((dp15
S'points'
p16
((dp17
S'segmentType'
p18
S'line'
p19
sS'x'
I136
sS'smooth'
p20
I00
sS'y'
I0
s(dp21
g18
S'line'
p22
sS'x'
I312
sg20
I00
sS'y'
I0
s(dp23
g18
S'line'
p24
sS'x'
I312
sg20
I00
sS'y'
I728
s(dp25
g18
S'line'
p26
sS'x'
I262
sg20
I00
sS'y'
I674
s(dp27
S'y'
I661
sS'x'
I396
sg20
I00
s(dp28
S'y'
I662
sS'x'
I578
sg20
I00
s(dp29
g18
S'curve'
p30
sS'x'
I704
sg20
I00
sS'y'
I669
s(dp31
g18
S'line'
p32
sS'x'
I645
sg20
I00
sS'y'
I709
s(dp33
g18
S'line'
p34
sS'x'
I1002
sg20
I00
sS'y'
I0
s(dp35
g18
S'line'
p36
sS'x'
I1199
sg20
I00
sS'y'
I0
s(dp37
g18
S'line'
p38
sS'x'
I818
sg20
I00
sS'y'
I729
s(dp39
g18
S'line'
p40
sS'x'
I795
sg20
I00
sS'y'
I691
s(dp41
S'y'
I735
sS'x'
I1026
sg20
I00
s(dp42
S'y'
I850
sS'x'
I1159
sg20
I00
s(dp43
g18
S'curve'
p44
sS'x'
I1154
sg20
I01
sS'y'
I1086
s(dp45
S'y'
I1346
sS'x'
I1148
sg20
I00
s(dp46
S'y'
I1456
sS'x'
I993
sg20
I00
s(dp47
g18
S'curve'
p48
sS'x'
I539
sg20
I01
sS'y'
I1456
s(dp49
S'y'
I1456
sS'x'
I399
sg20
I00
s(dp50
S'y'
I1447
sS'x'
I269
sg20
I00
s(dp51
g18
S'curve'
p52
sS'x'
I136
sg20
I00
sS'y'
I1432
stp53
s(dp54
g16
((dp55
g18
S'line'
p56
sS'x'
I262
sg20
I00
sS'y'
I1316
s(dp57
S'y'
I1320
sS'x'
I291
sg20
I00
s(dp58
S'y'
I1328
sS'x'
I482
sg20
I00
s(dp59
g18
S'curve'
p60
sS'x'
I550
sg20
I00
sS'y'
I1328
s(dp61
S'y'
I1328
sS'x'
I896
sg20
I00
s(dp62
S'y'
I1254
sS'x'
I991
sg20
I00
s(dp63
g18
S'curve'
p64
sS'x'
I992
sg20
I01
sS'y'
I1077
s(dp65
S'y'
I816
sS'x'
I994
sg20
I00
s(dp66
S'y'
I771
sS'x'
I809
sg20
I00
s(dp67
g18
S'curve'
p68
sS'x'
I262
sg20
I00
sS'y'
I802
s(dp69
g18
S'line'
p70
sS'x'
I312
sg20
I00
sS'y'
I755
s(dp71
g18
S'line'
p72
sS'x'
I312
sg20
I00
sS'y'
I1368
stp73
stp74
sS'components'
p75
(tsS'anchors'
p76
(tsss."
HStem: 0 21G<192 368> 640 127<368 883.095> 1336 127<372.806 897.21>
VStem: 192 176<0 650 774.308 1324.92> 1021 160<886.209 1231.58>
LayerCount: 2
Fore
SplineSet
368 778 m 1
 455 770 530 767 596 767 c 0
 956 767 1021 880 1021 1066 c 0
 1021 1238 949 1336 624 1336 c 0
 552 1336 467 1331 368 1321 c 1
 368 778 l 1
192 0 m 1
 192 1432 l 1
 356 1452 495 1463 613 1463 c 0
 1038 1463 1181 1330 1181 1068 c 0
 1181 824 1075 640 587 640 c 0
 521 640 448 643 368 650 c 1
 368 0 l 1
 192 0 l 1
EndSplineSet
EndChar

StartChar: Phi
Encoding: 934 934 96
Width: 1675
VWidth: 0
Flags: W
PickledData: "(dp1
S'org.pippin.gimp.org.kernagic'
p2
(dp3
S'lstem'
p4
I0
sS'rstem'
p5
I0
ssS'com.typemytype.robofont.layerData'
p6
(dp7
S'b'
(dp8
S'name'
p9
S'Phi'
p10
sS'lib'
p11
(dp12
sS'unicodes'
p13
(tsS'width'
p14
I1675
sS'contours'
p15
(tsS'components'
p16
(tsS'anchors'
p17
(tsss."
HStem: 0 21G<751 919> 170 147<573.302 751 919 1097.96> 1200 147<567.677 751 919 1110> 1462 20G<751 919>
VStem: 128 179<566.604 965.867> 751 168<0 173.262 317 1200 1343.88 1482> 1367 179<565.991 966.281>
LayerCount: 2
Fore
SplineSet
919 317 m 1
 1230 344 1367 534 1367 766 c 0
 1367 1006 1218 1174 919 1200 c 1
 919 317 l 1
751 317 m 1
 751 1200 l 1
 456 1173 307 1006 307 766 c 0
 307 534 444 345 751 317 c 1
751 0 m 1
 751 170 l 1
 341 200 128 447 128 766 c 0
 128 1091 355 1318 751 1347 c 1
 751 1482 l 1
 919 1482 l 1
 919 1347 l 1
 1320 1320 1546 1092 1546 766 c 0
 1546 445 1332 198 919 170 c 1
 919 0 l 1
 751 0 l 1
EndSplineSet
EndChar

StartChar: Pi
Encoding: 928 928 97
Width: 1533
VWidth: 0
Flags: W
PickledData: "(dp1
S'org.pippin.gimp.org.kernagic'
p2
(dp3
S'lstem'
p4
I0
sS'rstem'
p5
I0
ssS'com.typemytype.robofont.layerData'
p6
(dp7
S'b'
(dp8
S'name'
p9
S'Pi'
p10
sS'lib'
p11
(dp12
sS'unicodes'
p13
(tsS'width'
p14
I1533
sS'contours'
p15
(tsS'components'
p16
(tsS'anchors'
p17
(tsss."
HStem: 0 21G<198 367 1169 1336> 1336 146<367 1169>
VStem: 198 169<0 1336> 1169 167<0 1336>
LayerCount: 2
Fore
SplineSet
198 0 m 1
 198 1482 l 1
 1336 1482 l 1
 1336 0 l 1
 1169 0 l 1
 1169 1336 l 1
 367 1336 l 1
 367 0 l 1
 198 0 l 1
EndSplineSet
EndChar

StartChar: Q
Encoding: 81 81 98
Width: 1590
VWidth: 0
Flags: W
PickledData: "(dp1
S'org.pippin.gimp.org.kernagic'
p2
(dp3
S'lstem'
p4
I0
sS'rstem'
p5
I0
ssS'com.typemytype.robofont.layerData'
p6
(dp7
S'b'
(dp8
S'name'
p9
S'Q'
sS'lib'
p10
(dp11
sS'unicodes'
p12
(tsS'width'
p13
I1590
sS'contours'
p14
(tsS'components'
p15
(tsS'anchors'
p16
(tsss."
HStem: -431 21G<1143.18 1185.61> -20 142<573.264 886.321> 1334 142<586.729 1008.19>
VStem: 147 177<412.941 1030.55> 1267 176<411.37 1035.34>
LayerCount: 2
Fore
SplineSet
1157 -431 m 1
 871 -17 l 1
 847 -19 823 -20 798 -20 c 0
 351 -20 147 269 147 721 c 0
 147 1184 361 1476 799 1476 c 0
 1228 1476 1443 1181 1443 718 c 0
 1443 358 1309 95 1020 10 c 1
 1270 -352 l 1
 1157 -431 l 1
796 122 m 0
 1146 122 1267 365 1267 720 c 0
 1267 1089 1139 1334 798 1334 c 0
 458 1334 324 1091 324 720 c 0
 324 365 446 122 796 122 c 0
EndSplineSet
EndChar

StartChar: R
Encoding: 82 82 99
Width: 1306
VWidth: 0
Flags: W
PickledData: "(dp1
S'org.pippin.gimp.org.kernagic'
p2
(dp3
S'lstem'
p4
I0
sS'rstem'
p5
I839
ssS'com.typemytype.robofont.layerData'
p6
(dp7
S'b'
(dp8
S'name'
p9
S'R'
sS'lib'
p10
(dp11
sS'unicodes'
p12
(tsS'width'
p13
I1306
sS'contours'
p14
((dp15
S'points'
p16
((dp17
S'segmentType'
p18
S'line'
p19
sS'x'
I252
sS'smooth'
p20
I00
sS'y'
I1315
s(dp21
S'y'
I1383
sS'x'
I850
sg20
I00
s(dp22
S'y'
I1284
sS'x'
I965
sg20
I00
s(dp23
g18
S'curve'
p24
sS'x'
I965
sg20
I01
sS'y'
I1066
s(dp25
S'y'
I838
sS'x'
I965
sg20
I00
s(dp26
S'y'
I720
sS'x'
I868
sg20
I00
s(dp27
g18
S'curve'
p28
sS'x'
I252
sg20
I00
sS'y'
I784
s(dp29
g18
S'line'
p30
sS'x'
I312
sg20
I00
sS'y'
I740
s(dp31
g18
S'line'
p32
sS'x'
I312
sg20
I00
sS'y'
I1372
stp33
s(dp34
g16
((dp35
g18
S'line'
p36
sS'x'
I136
sg20
I00
sS'y'
I0
s(dp37
g18
S'line'
p38
sS'x'
I312
sg20
I00
sS'y'
I0
s(dp39
g18
S'line'
p40
sS'x'
I312
sg20
I00
sS'y'
I698
s(dp41
g18
S'line'
p42
sS'x'
I252
sg20
I00
sS'y'
I656
s(dp43
S'y'
I580
sS'x'
I981
sg20
I00
s(dp44
S'y'
I783
sS'x'
I1125
sg20
I00
s(dp45
g18
S'curve'
p46
sS'x'
I1125
sg20
I01
sS'y'
I1068
s(dp47
S'y'
I1403
sS'x'
I1125
sg20
I00
s(dp48
S'y'
I1526
sS'x'
I891
sg20
I00
s(dp49
g18
S'curve'
p50
sS'x'
I136
sg20
I00
sS'y'
I1432
stp51
stp52
sS'components'
p53
(tsS'anchors'
p54
(tsssS'com.fontlab.hintData'
p55
(dp56
S'vhints'
p57
((dp58
S'position'
p59
I1122
sg13
I117
stp60
sS'hhints'
p61
((dp62
g59
I722
sg13
I96
s(dp63
g59
I1355
sg13
I94
stp64
ss."
HStem: 0 21G<186 362 1041.87 1238> 664 127<362 714> 1336 126<366.584 925.836>
VStem: 186 176<0 670 799 1325.87> 1042 162<905.318 1232.7>
LayerCount: 2
Fore
SplineSet
362 799 m 1
 447 794 523 791 590 791 c 0
 939 791 1042 868 1042 1072 c 0
 1042 1242 979 1336 636 1336 c 0
 559 1336 469 1332 362 1322 c 1
 362 799 l 1
1204 1073 m 0
 1204 859 1091 736 889 687 c 1
 1238 20 l 1
 1238 0 l 1
 1052 0 l 1
 714 667 l 1
 667 665 614 664 560 664 c 0
 493 664 424 666 362 670 c 1
 362 0 l 1
 186 0 l 1
 186 1432 l 1
 363 1452 512 1462 637 1462 c 0
 1056 1462 1204 1346 1204 1073 c 0
EndSplineSet
EndChar

StartChar: S
Encoding: 83 83 103
Width: 1221
VWidth: 0
Flags: W
PickledData: "(dp1
S'org.pippin.gimp.org.kernagic'
p2
(dp3
S'lstem'
p4
I185
sS'rstem'
p5
I826
ssS'com.typemytype.robofont.guides'
p6
((dp7
S'angle'
p8
F90
sS'name'
p9
NsS'magnetic'
p10
I5
sS'isGlobal'
p11
I00
sS'y'
I973
sS'x'
I1035
s(dp12
g8
F90
sg9
Nsg10
I5
sg11
I00
sS'y'
I382
sS'x'
I75
stp13
sS'com.typemytype.robofont.layerData'
p14
(dp15
S'b'
(dp16
g9
S'S'
sS'lib'
p17
(dp18
sS'unicodes'
p19
(tsS'width'
p20
I1221
sS'contours'
p21
((dp22
S'points'
p23
((dp24
S'segmentType'
p25
S'curve'
p26
sS'x'
I1067
sS'smooth'
p27
I01
sS'y'
I374
s(dp28
S'y'
I709
sS'x'
I1070
sg27
I00
s(dp29
S'y'
I734
sS'x'
I851
sg27
I00
s(dp30
g25
S'curve'
p31
sS'x'
I466
sg27
I01
sS'y'
I892
s(dp32
S'y'
I945
sS'x'
I334
sg27
I00
s(dp33
S'y'
I983
sS'x'
I255
sg27
I00
s(dp34
g25
S'curve'
p35
sS'x'
I266
sg27
I01
sS'y'
I1120
s(dp36
S'y'
I1297
sS'x'
I280
sg27
I00
s(dp37
S'y'
I1338
sS'x'
I428
sg27
I00
s(dp38
g25
S'curve'
p39
sS'x'
I602
sg27
I01
sS'y'
I1334
s(dp40
S'y'
I1331
sS'x'
I743
sg27
I00
s(dp41
S'y'
I1277
sS'x'
I870
sg27
I00
s(dp42
g25
S'curve'
p43
sS'x'
I945
sg27
I00
sS'y'
I1195
s(dp44
g25
S'line'
p45
sS'x'
I959
sg27
I00
sS'y'
I1195
s(dp46
g25
S'line'
p47
sS'x'
I1048
sg27
I00
sS'y'
I1297
s(dp48
S'y'
I1416
sS'x'
I940
sg27
I00
s(dp49
S'y'
I1478
sS'x'
I769
sg27
I00
s(dp50
g25
S'curve'
p51
sS'x'
I582
sg27
I01
sS'y'
I1476
s(dp52
S'y'
I1473
sS'x'
I342
sg27
I00
s(dp53
S'y'
I1403
sS'x'
I109
sg27
I00
s(dp54
g25
S'curve'
p55
sS'x'
I91
sg27
I01
sS'y'
I1125
s(dp56
S'y'
I823
sS'x'
I71
sg27
I00
s(dp57
S'y'
I800
sS'x'
I273
sg27
I00
s(dp58
g25
S'curve'
p59
sS'x'
I633
sg27
I01
sS'y'
I651
s(dp60
S'y'
I580
sS'x'
I804
sg27
I00
s(dp61
S'y'
I529
sS'x'
I907
sg27
I00
s(dp62
g25
S'curve'
p63
sS'x'
I902
sg27
I01
sS'y'
I369
s(dp64
S'y'
I184
sS'x'
I896
sg27
I00
s(dp65
S'y'
I123
sS'x'
I753
sg27
I00
s(dp66
g25
S'curve'
p67
sS'x'
I568
sg27
I01
sS'y'
I123
s(dp68
S'y'
I123
sS'x'
I432
sg27
I00
s(dp69
S'y'
I166
sS'x'
I290
sg27
I00
s(dp70
g25
S'curve'
p71
sS'x'
I192
sg27
I00
sS'y'
I261
s(dp72
g25
S'line'
p73
sS'x'
I180
sg27
I00
sS'y'
I261
s(dp74
g25
S'line'
p75
sS'x'
I86
sg27
I00
sS'y'
I164
s(dp76
S'y'
I66
sS'x'
I168
sg27
I00
s(dp77
S'y'
I-20
sS'x'
I342
sg27
I00
s(dp78
g25
S'curve'
p79
sS'x'
I568
sg27
I01
sS'y'
I-20
s(dp80
S'y'
I-20
sS'x'
I803
sg27
I00
s(dp81
S'y'
I72
sS'x'
I1064
sg27
I00
stp82
stp83
sS'components'
p84
(tsS'anchors'
p85
(tsss."
HStem: -20 143<366.784 811.102> 1334 142<397.877 836.127>
VStem: 120 177<981.273 1239.58> 932 165<236.873 523.181>
LayerCount: 2
Fore
SplineSet
598 -20 m 0
 372 -20 198 66 116 164 c 1
 210 261 l 1
 222 261 l 1
 320 166 462 123 598 123 c 0
 790 123 932 192 932 385 c 0
 932 548 841 575 539 700 c 0
 274 810 120 856 120 1086 c 0
 120 1396 362 1476 621 1476 c 0
 805 1476 972 1414 1078 1297 c 1
 989 1195 l 1
 975 1195 l 1
 896 1282 765 1334 612 1334 c 0
 439 1334 297 1282 297 1107 c 0
 297 971 364 945 604 849 c 0
 914 724 1097 676 1097 381 c 0
 1097 73 836 -20 598 -20 c 0
EndSplineSet
EndChar

StartChar: Sigma
Encoding: 931 931 109
Width: 1192
VWidth: 0
Flags: W
PickledData: "(dp1
S'org.pippin.gimp.org.kernagic'
p2
(dp3
S'lstem'
p4
I0
sS'rstem'
p5
I0
ssS'com.typemytype.robofont.layerData'
p6
(dp7
S'b'
(dp8
S'name'
p9
S'Sigma'
p10
sS'lib'
p11
(dp12
sS'unicodes'
p13
(tsS'width'
p14
I1192
sS'contours'
p15
(tsS'components'
p16
(tsS'anchors'
p17
(tsss."
HStem: 0 137<350 1046> 692 136<350 989> 1331 138<350 1049>
VStem: 192 158<137 692 828 1331>
LayerCount: 2
Fore
SplineSet
192 0 m 1
 192 1469 l 1
 1056 1469 l 1
 1049 1331 l 1
 350 1331 l 1
 350 828 l 1
 989 828 l 1
 989 692 l 1
 350 692 l 1
 350 137 l 1
 1054 137 l 1
 1046 0 l 1
 192 0 l 1
EndSplineSet
EndChar

StartChar: T
Encoding: 84 84 110
Width: 1136
VWidth: 0
Flags: W
PickledData: "(dp1
S'org.pippin.gimp.org.kernagic'
p2
(dp3
S'lstem'
p4
I285
sS'rstem'
p5
I844
ssS'com.typemytype.robofont.layerData'
p6
(dp7
S'b'
(dp8
S'name'
p9
S'T'
sS'lib'
p10
(dp11
sS'unicodes'
p12
(tsS'width'
p13
I1136
sS'contours'
p14
(tsS'components'
p15
(tsS'anchors'
p16
(tsss."
HStem: 0 21G<479 655> 1319 137<2 479 655 1134>
VStem: 479 176<0 1319>
LayerCount: 2
Fore
SplineSet
479 0 m 1
 479 1319 l 1
 2 1319 l 1
 2 1456 l 1
 1134 1456 l 1
 1134 1319 l 1
 655 1319 l 1
 655 0 l 1
 479 0 l 1
EndSplineSet
EndChar

StartChar: Thorn
Encoding: 222 222 115
Width: 1192
VWidth: 0
Flags: W
PickledData: "(dp1
S'org.pippin.gimp.org.kernagic'
p2
(dp3
S'lstem'
p4
I0
sS'rstem'
p5
I0
ssS'com.typemytype.robofont.layerData'
p6
(dp7
S'b'
(dp8
S'name'
p9
S'Thorn'
p10
sS'lib'
p11
(dp12
sS'unicodes'
p13
(tsS'width'
p14
I1192
sS'contours'
p15
(tsS'components'
p16
(tsS'anchors'
p17
(tsss."
HStem: 0 21G<192 368> 462 131<368 768.547> 1041 129<368 764.624>
VStem: 192 176<0 462 593 1041 1170 1496> 841 176<662.836 971.663>
LayerCount: 2
Fore
SplineSet
192 0 m 1
 192 1496 l 1
 368 1496 l 1
 368 1170 l 1
 558 1170 l 2
 829 1170 1017 1093 1017 835 c 0
 1017 588 893 462 555 462 c 2
 368 462 l 1
 368 0 l 1
 192 0 l 1
368 1041 m 1
 368 593 l 1
 551 593 l 2
 768 593 841 646 841 833 c 0
 841 1001 737 1041 557 1041 c 2
 368 1041 l 1
EndSplineSet
EndChar

StartChar: U
Encoding: 85 85 116
Width: 1448
VWidth: 0
Flags: W
PickledData: "(dp1
S'org.pippin.gimp.org.kernagic'
p2
(dp3
S'lstem'
p4
I0
sS'rstem'
p5
I0
ssS'com.typemytype.robofont.layerData'
p6
(dp7
S'b'
(dp8
S'name'
p9
S'U'
sS'lib'
p10
(dp11
sS'unicodes'
p12
(tsS'width'
p13
I1448
sS'contours'
p14
(tsS'components'
p15
(tsS'anchors'
p16
(tsss."
HStem: -20 143<513.204 918.992> 1437 20G<173 349 1093 1269>
VStem: 173 176<302.253 1457> 1093 176<303.643 1457>
LayerCount: 2
Fore
SplineSet
721 -20 m 0
 333 -20 173 211 173 543 c 2
 173 1457 l 1
 349 1457 l 1
 349 546 l 2
 349 271 449 123 721 123 c 0
 984 123 1093 271 1093 546 c 2
 1093 1457 l 1
 1269 1457 l 1
 1269 540 l 2
 1269 217 1105 -20 721 -20 c 0
EndSplineSet
EndChar

StartChar: V
Encoding: 86 86 129
Width: 1221
VWidth: 0
Flags: W
PickledData: "(dp1
S'org.pippin.gimp.org.kernagic'
p2
(dp3
S'lstem'
p4
I0
sS'rstem'
p5
I0
ssS'com.typemytype.robofont.layerData'
p6
(dp7
S'b'
(dp8
S'name'
p9
S'V'
sS'lib'
p10
(dp11
sS'unicodes'
p12
(tsS'width'
p13
I1221
sS'contours'
p14
(tsS'components'
p15
(tsS'anchors'
p16
(tsss."
HStem: 0 21G<518.624 687.541> 1436 20G<-11 233.5 974 1229>
LayerCount: 2
Fore
SplineSet
526 0 m 1
 -11 1456 l 1
 159 1456 l 1
 308 1043 458 632 604 216 c 1
 752 630 900 1043 1048 1456 c 1
 1229 1456 l 1
 680 0 l 1
 526 0 l 1
EndSplineSet
EndChar

StartChar: W
Encoding: 87 87 130
Width: 1675
VWidth: 0
Flags: W
PickledData: "(dp1
S'org.pippin.gimp.org.kernagic'
p2
(dp3
S'lstem'
p4
I0
sS'rstem'
p5
I0
ssS'com.typemytype.robofont.layerData'
p6
(dp7
S'b'
(dp8
S'name'
p9
S'W'
sS'lib'
p10
(dp11
sS'unicodes'
p12
(tsS'width'
p13
I1675
sS'contours'
p14
((dp15
S'points'
p16
((dp17
S'segmentType'
p18
S'line'
p19
sS'x'
I377
sS'smooth'
p20
I00
sS'y'
I0
s(dp21
g18
S'line'
p22
sS'x'
I544
sg20
I00
sS'y'
I0
s(dp23
g18
S'line'
p24
sS'x'
I913
sg20
I00
sS'y'
I1303
s(dp25
g18
S'line'
p26
sS'x'
I860
sg20
I00
sS'y'
I1303
s(dp27
g18
S'line'
p28
sS'x'
I1215
sg20
I00
sS'y'
I0
s(dp29
g18
S'line'
p30
sS'x'
I1386
sg20
I00
sS'y'
I0
s(dp31
g18
S'line'
p32
sS'x'
I1639
sg20
I00
sS'y'
I1106
s(dp33
g18
S'line'
p34
sS'x'
I1719
sg20
I00
sS'y'
I1456
s(dp35
g18
S'line'
p36
sS'x'
I1549
sg20
I00
sS'y'
I1456
s(dp37
g18
S'line'
p38
sS'x'
I1477
sg20
I00
sS'y'
I1104
s(dp39
g18
S'line'
p40
sS'x'
I1286
sg20
I00
sS'y'
I166
s(dp41
g18
S'line'
p42
sS'x'
I1316
sg20
I00
sS'y'
I166
s(dp43
g18
S'line'
p44
sS'x'
I969
sg20
I00
sS'y'
I1425
s(dp45
g18
S'line'
p46
sS'x'
I799
sg20
I00
sS'y'
I1425
s(dp47
g18
S'line'
p48
sS'x'
I447
sg20
I00
sS'y'
I167
s(dp49
g18
S'line'
p50
sS'x'
I477
sg20
I00
sS'y'
I167
s(dp51
g18
S'line'
p52
sS'x'
I275
sg20
I00
sS'y'
I1105
s(dp53
g18
S'line'
p54
sS'x'
I199
sg20
I00
sS'y'
I1456
s(dp55
g18
S'line'
p56
sS'x'
I40
sg20
I00
sS'y'
I1456
s(dp57
g18
S'line'
p58
sS'x'
I121
sg20
I00
sS'y'
I1104
stp59
stp60
sS'components'
p61
(tsS'anchors'
p62
(tsss."
HStem: 0 21G<313.316 490.79 1164.46 1345.64> 1436 20G<-23 136.584 1504.85 1679>
VStem: 1509 170<1394.24 1456>
LayerCount: 2
Fore
SplineSet
318 0 m 1
 -23 1456 l 1
 132 1456 l 1
 410 243 l 1
 748 1425 l 1
 918 1425 l 1
 1254 227 l 1
 1509 1456 l 1
 1679 1456 l 1
 1341 0 l 1
 1170 0 l 1
 835 1209 l 1
 485 0 l 1
 318 0 l 1
EndSplineSet
EndChar

StartChar: X
Encoding: 88 88 135
Width: 1278
VWidth: 0
Flags: W
PickledData: "(dp1
S'org.pippin.gimp.org.kernagic'
p2
(dp3
S'lstem'
p4
I0
sS'rstem'
p5
I0
ssS'com.typemytype.robofont.layerData'
p6
(dp7
S'b'
(dp8
S'name'
p9
S'X'
sS'lib'
p10
(dp11
sS'unicodes'
p12
(tsS'width'
p13
I1278
sS'contours'
p14
((dp15
S'points'
p16
((dp17
S'segmentType'
p18
S'line'
p19
sS'x'
F765
sS'smooth'
p20
I00
sS'y'
F710
s(dp21
g18
S'line'
p22
sS'x'
F1256
sg20
I00
sS'y'
F1456
s(dp23
g18
S'line'
p24
sS'x'
F1068
sg20
I00
sS'y'
F1456
s(dp25
g18
S'line'
p26
sS'x'
F677
sg20
I00
sS'y'
F853
s(dp27
g18
S'line'
p28
sS'x'
F587
sg20
I00
sS'y'
F750
s(dp29
g18
S'line'
p30
sS'x'
F91
sg20
I00
sS'y'
F0
s(dp31
g18
S'line'
p32
sS'x'
F277
sg20
I00
sS'y'
F0
s(dp33
g18
S'line'
p34
sS'x'
F679
sg20
I00
sS'y'
F604
stp35
stp36
sS'components'
p37
(tsS'anchors'
p38
(tsss."
HStem: 0 21G<52 244.311 1004.72 1217> 1436 20G<53 261.311 1009.03 1210>
LayerCount: 2
Fore
SplineSet
1018 0 m 1
 625 592 l 1
 231 0 l 1
 52 0 l 1
 531 735 l 1
 53 1456 l 1
 248 1456 l 1
 640 867 l 1
 1022 1456 l 1
 1210 1456 l 1
 732 729 l 1
 1217 0 l 1
 1018 0 l 1
EndSplineSet
EndChar

StartChar: Y
Encoding: 89 89 136
Width: 1136
VWidth: 0
Flags: W
PickledData: "(dp1
S'org.pippin.gimp.org.kernagic'
p2
(dp3
S'lstem'
p4
I0
sS'rstem'
p5
I0
ssS'com.typemytype.robofont.layerData'
p6
(dp7
S'b'
(dp8
S'name'
p9
S'Y'
sS'lib'
p10
(dp11
sS'unicodes'
p12
(tsS'width'
p13
I1136
sS'contours'
p14
(tsS'components'
p15
(tsS'anchors'
p16
(tsss."
HStem: 0 21G<483 659> 1436 20G<-30 143.03 983.372 1168>
VStem: 483 176<0 508>
LayerCount: 2
Fore
SplineSet
483 0 m 1
 483 513 l 1
 -30 1456 l 1
 132 1456 l 1
 571 660 l 1
 994 1456 l 1
 1168 1456 l 1
 659 508 l 1
 659 0 l 1
 483 0 l 1
EndSplineSet
EndChar

StartChar: Z
Encoding: 90 90 141
Width: 1221
VWidth: 0
Flags: W
PickledData: "(dp1
S'org.pippin.gimp.org.kernagic'
p2
(dp3
S'lstem'
p4
I0
sS'rstem'
p5
I0
ssS'com.typemytype.robofont.layerData'
p6
(dp7
S'b'
(dp8
S'name'
p9
S'Z'
sS'lib'
p10
(dp11
sS'unicodes'
p12
(tsS'width'
p13
I1221
sS'contours'
p14
(tsS'components'
p15
(tsS'anchors'
p16
(tsss."
HStem: 0 137<297 1125> 1321 135<130 928>
LayerCount: 2
Fore
SplineSet
97 0 m 1
 97 127 l 1
 928 1321 l 1
 130 1321 l 1
 130 1456 l 1
 1119 1456 l 1
 1126 1332 l 1
 297 137 l 1
 1133 137 l 1
 1125 0 l 1
 97 0 l 1
EndSplineSet
EndChar

StartChar: a
Encoding: 97 97 145
Width: 1107
VWidth: 0
Flags: W
PickledData: "(dp1
S'org.pippin.gimp.org.kernagic'
p2
(dp3
S'lstem'
p4
I0
sS'rstem'
p5
I0
ssS'com.typemytype.robofont.layerData'
p6
(dp7
S'b'
(dp8
S'name'
p9
S'a'
sS'lib'
p10
(dp11
sS'unicodes'
p12
(tsS'width'
p13
I1107
sS'contours'
p14
((dp15
S'points'
p16
((dp17
S'segmentType'
p18
S'curve'
p19
sS'x'
I851
sS'smooth'
p20
I00
sS'y'
I214
s(dp21
g18
S'line'
p22
sS'x'
I788
sg20
I00
sS'y'
I194
s(dp23
g18
S'line'
p24
sS'x'
I805
sg20
I00
sS'y'
I0
s(dp25
g18
S'line'
p26
sS'x'
I939
sg20
I00
sS'y'
I0
s(dp27
g18
S'line'
p28
sS'x'
I939
sg20
I00
sS'y'
I1559
s(dp29
g18
S'line'
p30
sS'x'
I775
sg20
I00
sS'y'
I1547
s(dp31
g18
S'line'
p32
sS'x'
I775
sg20
I00
sS'y'
I1154
s(dp33
g18
S'line'
p34
sS'x'
I783
sg20
I00
sS'y'
I876
s(dp35
g18
S'line'
p36
sS'x'
I846
sg20
I00
sS'y'
I884
s(dp37
S'y'
I1002
sS'x'
I794
sg20
I00
s(dp38
S'y'
I1106
sS'x'
I676
sg20
I00
s(dp39
g18
S'curve'
p40
sS'x'
I491
sg20
I01
sS'y'
I1103
s(dp41
S'y'
I1106
sS'x'
I196
sg20
I00
s(dp42
S'y'
I886
sS'x'
I17
sg20
I00
s(dp43
g18
S'curve'
p44
sS'x'
I17
sg20
I00
sS'y'
I545
s(dp45
S'y'
I207
sS'x'
I17
sg20
I00
s(dp46
S'y'
I-22
sS'x'
I183
sg20
I00
s(dp47
g18
S'curve'
p48
sS'x'
I493
sg20
I01
sS'y'
I-20
s(dp49
S'y'
I-19
sS'x'
I605
sg20
I00
s(dp50
S'y'
I33
sS'x'
I787
sg20
I00
stp51
s(dp52
g16
((dp53
g18
S'curve'
p54
sS'x'
I496
sg20
I01
sS'y'
I980
s(dp55
S'y'
I980
sS'x'
I616
sg20
I00
s(dp56
S'y'
I936
sS'x'
I713
sg20
I00
s(dp57
g18
S'curve'
p58
sS'x'
I782
sg20
I00
sS'y'
I840
s(dp59
g18
S'line'
p60
sS'x'
I782
sg20
I00
sS'y'
I228
s(dp61
S'y'
I147
sS'x'
I723
sg20
I00
s(dp62
S'y'
I106
sS'x'
I617
sg20
I00
s(dp63
g18
S'curve'
p64
sS'x'
I498
sg20
I01
sS'y'
I106
s(dp65
S'y'
I106
sS'x'
I284
sg20
I00
s(dp66
S'y'
I275
sS'x'
I187
sg20
I00
s(dp67
g18
S'curve'
p68
sS'x'
I187
sg20
I01
sS'y'
I548
s(dp69
S'y'
I812
sS'x'
I187
sg20
I00
s(dp70
S'y'
I980
sS'x'
I286
sg20
I00
stp71
stp72
sS'components'
p73
(tsS'anchors'
p74
(tsssS'com.typemytype.robofont.guides'
p75
(tsS'com.fontlab.hintData'
p76
(dp77
S'vhints'
p78
((dp79
S'position'
p80
I126
sg13
I120
s(dp81
g80
I842
sg13
I32
s(dp82
g80
I875
sg13
I86
stp83
sS'hhints'
p84
((dp85
g80
I-15
sg13
I92
s(dp86
g80
I535
sg13
I82
s(dp87
g80
I983
sg13
I92
stp88
ss."
HStem: -21 123<328.287 666.231> 0 21G<813.507 956> 494 113<349.256 788.187> 980 126<357.799 707.633>
VStem: 112 158<160.907 421.674> 792 164<203.994 483.36 594 895.484> 815 141<0 134>
LayerCount: 2
Fore
SplineSet
112 293 m 0xba
 112 482 232 607 551 607 c 0
 602 607 708 603 792 594 c 1
 792 722 l 2
 792 902 712 980 549 980 c 0
 415 980 327 944 233 821 c 1
 223 821 l 1
 141 911 l 1
 230 1040 356 1106 548 1106 c 0
 789 1106 956 1001 956 712 c 2xbc
 956 0 l 1
 815 0 l 1x7a
 805 134 l 1
 719 29 609 -21 464 -21 c 0
 254 -21 112 82 112 293 c 0xba
484 102 m 0
 614 102 722 160 792 252 c 1
 792 479 l 1
 714 488 612 494 567 494 c 0
 337 494 270 415 270 292 c 0
 270 151 363 102 484 102 c 0
EndSplineSet
EndChar

StartChar: acute
Encoding: 180 180 149
AltUni2: 000301.ffffffff.0
Width: 681
VWidth: 0
Flags: W
PickledData: "(dp1
S'org.pippin.gimp.org.kernagic'
p2
(dp3
S'lstem'
p4
I0
sS'rstem'
p5
I0
ssS'com.typemytype.robofont.layerData'
p6
(dp7
S'b'
(dp8
S'name'
p9
S'acute'
p10
sS'lib'
p11
(dp12
sS'unicodes'
p13
(tsS'width'
p14
I681
sS'contours'
p15
(tsS'components'
p16
(tsS'anchors'
p17
(tsss."
HStem: 1044 412
VStem: 194 354
LayerCount: 2
Fore
SplineSet
194 1044 m 1
 377 1456 l 1
 548 1456 l 1
 548 1422 l 1
 291 1044 l 1
 194 1044 l 1
EndSplineSet
EndChar

StartChar: acute.cap
Encoding: 65538 -1 150
Width: 738
VWidth: 0
Flags: W
PickledData: "(dp1
S'org.pippin.gimp.org.kernagic'
p2
(dp3
S'lstem'
p4
I0
sS'rstem'
p5
I0
ssS'com.typemytype.robofont.guides'
p6
(tsS'com.typemytype.robofont.layerData'
p7
(dp8
S'b'
(dp9
S'name'
p10
S'acute.cap'
p11
sS'lib'
p12
(dp13
sS'unicodes'
p14
(tsS'width'
p15
I738
sS'contours'
p16
(tsS'components'
p17
(tsS'anchors'
p18
(tsss."
HStem: 1058 299
VStem: 175 459
LayerCount: 2
Fore
SplineSet
175 1058 m 1
 428 1357 l 1
 634 1357 l 1
 322 1058 l 1
 175 1058 l 1
EndSplineSet
EndChar

StartChar: acutecomb
Encoding: 769 769 151
Width: 710
VWidth: 0
Flags: W
PickledData: "(dp1
S'org.pippin.gimp.org.kernagic'
p2
(dp3
S'lstem'
p4
I0
sS'rstem'
p5
I0
ssS'com.typemytype.robofont.layerData'
p6
(dp7
S'b'
(dp8
S'name'
p9
S'acutecomb'
p10
sS'lib'
p11
(dp12
sS'unicodes'
p13
(tsS'width'
p14
I710
sS'contours'
p15
(tsS'components'
p16
(tsS'anchors'
p17
(tsss."
HStem: 1058 412
VStem: 194 389
LayerCount: 2
Fore
SplineSet
194 1058 m 1
 377 1470 l 1
 583 1470 l 1
 291 1058 l 1
 194 1058 l 1
EndSplineSet
EndChar

StartChar: ae
Encoding: 230 230 153
Width: 1647
VWidth: 0
Flags: W
PickledData: "(dp1
S'org.pippin.gimp.org.kernagic'
p2
(dp3
S'lstem'
p4
I0
sS'rstem'
p5
I0
ssS'com.typemytype.robofont.layerData'
p6
(dp7
S'b'
(dp8
S'name'
p9
S'ae'
p10
sS'lib'
p11
(dp12
sS'unicodes'
p13
(tsS'width'
p14
I1647
sS'contours'
p15
((dp16
S'points'
p17
((dp18
S'segmentType'
p19
S'curve'
p20
sS'x'
I441
sS'smooth'
p21
I00
sS'y'
I-20
s(dp22
S'y'
I-20
sS'x'
I712
sg21
I00
s(dp23
S'y'
I152
sS'x'
I823
sg21
I00
s(dp24
g19
S'curve'
p25
sS'x'
I857
sg21
I00
sS'y'
I254
s(dp26
S'y'
I147
sS'x'
I899
sg21
I00
s(dp27
S'y'
I-20
sS'x'
I992
sg21
I00
s(dp28
g19
S'curve'
p29
sS'x'
I1267
sg21
I01
sS'y'
I-20
s(dp30
S'y'
I-20
sS'x'
I1426
sg21
I00
s(dp31
S'y'
I17
sS'x'
I1534
sg21
I00
s(dp32
g19
S'curve'
p33
sS'x'
I1628
sg21
I00
sS'y'
I75
s(dp34
g19
S'line'
p35
sS'x'
I1593
sg21
I00
sS'y'
I195
s(dp36
S'y'
I139
sS'x'
I1489
sg21
I00
s(dp37
S'y'
I109
sS'x'
I1405
sg21
I00
s(dp38
g19
S'curve'
p39
sS'x'
I1276
sg21
I01
sS'y'
I109
s(dp40
S'y'
I109
sS'x'
I1079
sg21
I00
s(dp41
S'y'
I222
sS'x'
I949
sg21
I00
s(dp42
g19
S'curve'
p43
sS'x'
I939
sg21
I00
sS'y'
I508
s(dp44
S'y'
I508
sS'x'
I1487
sg21
I00
s(dp45
S'y'
I594
sS'x'
I1635
sg21
I00
s(dp46
g19
S'curve'
p47
sS'x'
I1635
sg21
I01
sS'y'
I801
s(dp48
S'y'
I955
sS'x'
I1635
sg21
I00
s(dp49
S'y'
I1106
sS'x'
I1522
sg21
I00
s(dp50
g19
S'curve'
p51
sS'x'
I1261
sg21
I01
sS'y'
I1106
s(dp52
S'y'
I1106
sS'x'
I1118
sg21
I00
s(dp53
S'y'
I1023
sS'x'
I943
sg21
I00
s(dp54
g19
S'curve'
p55
sS'x'
I892
sg21
I00
sS'y'
I855
s(dp56
S'y'
I1036
sS'x'
I859
sg21
I00
s(dp57
S'y'
I1106
sS'x'
I723
sg21
I00
s(dp58
g19
S'curve'
p59
sS'x'
I541
sg21
I01
sS'y'
I1106
s(dp60
S'y'
I1106
sS'x'
I419
sg21
I00
s(dp61
S'y'
I1083
sS'x'
I293
sg21
I00
s(dp62
g19
S'curve'
p63
sS'x'
I179
sg21
I00
sS'y'
I1029
s(dp64
g19
S'line'
p65
sS'x'
I224
sg21
I00
sS'y'
I904
s(dp66
S'y'
I954
sS'x'
I324
sg21
I00
s(dp67
S'y'
I980
sS'x'
I440
sg21
I00
s(dp68
g19
S'curve'
p69
sS'x'
I544
sg21
I01
sS'y'
I980
s(dp70
S'y'
I980
sS'x'
I707
sg21
I00
s(dp71
S'y'
I898
sS'x'
I775
sg21
I00
s(dp72
g19
S'curve'
p73
sS'x'
I775
sg21
I01
sS'y'
I742
s(dp74
g19
S'line'
p75
sS'x'
I775
sg21
I00
sS'y'
I593
s(dp76
S'y'
I603
sS'x'
I697
sg21
I00
s(dp77
S'y'
I607
sS'x'
I627
sg21
I00
s(dp78
g19
S'curve'
p79
sS'x'
I565
sg21
I01
sS'y'
I607
s(dp80
S'y'
I607
sS'x'
I246
sg21
I00
s(dp81
S'y'
I482
sS'x'
I125
sg21
I00
s(dp82
g19
S'curve'
p83
sS'x'
I125
sg21
I01
sS'y'
I293
s(dp84
S'y'
I92
sS'x'
I125
sg21
I00
s(dp85
S'y'
I-20
sS'x'
I250
sg21
I00
stp86
s(dp87
g17
((dp88
g19
S'curve'
p89
sS'x'
I942
sg21
I00
sS'y'
I619
s(dp90
S'y'
I855
sS'x'
I964
sg21
I00
s(dp91
S'y'
I980
sS'x'
I1085
sg21
I00
s(dp92
g19
S'curve'
p93
sS'x'
I1264
sg21
I01
sS'y'
I980
s(dp94
S'y'
I980
sS'x'
I1419
sg21
I00
s(dp95
S'y'
I905
sS'x'
I1505
sg21
I00
s(dp96
g19
S'curve'
p97
sS'x'
I1505
sg21
I01
sS'y'
I800
s(dp98
S'y'
I661
sS'x'
I1505
sg21
I00
s(dp99
S'y'
I619
sS'x'
I1342
sg21
I00
stp100
s(dp101
g17
((dp102
g19
S'curve'
p103
sS'x'
I449
sg21
I01
sS'y'
I104
s(dp104
S'y'
I104
sS'x'
I356
sg21
I00
s(dp105
S'y'
I167
sS'x'
I283
sg21
I00
s(dp106
g19
S'curve'
p107
sS'x'
I283
sg21
I01
sS'y'
I292
s(dp108
S'y'
I415
sS'x'
I283
sg21
I00
s(dp109
S'y'
I494
sS'x'
I345
sg21
I00
s(dp110
g19
S'curve'
p111
sS'x'
I575
sg21
I01
sS'y'
I494
s(dp112
S'y'
I494
sS'x'
I631
sg21
I00
s(dp113
S'y'
I489
sS'x'
I698
sg21
I00
s(dp114
g19
S'curve'
p115
sS'x'
I775
sg21
I00
sS'y'
I479
s(dp116
g19
S'line'
p117
sS'x'
I775
sg21
I01
sS'y'
I420
s(dp118
S'y'
I216
sS'x'
I775
sg21
I00
s(dp119
S'y'
I104
sS'x'
I650
sg21
I00
stp120
stp121
sS'components'
p122
(tsS'anchors'
p123
(tsssS'com.fontlab.hintData'
p124
(dp125
S'vhints'
p126
((dp127
S'position'
p128
I126
sg14
I119
s(dp129
g128
I817
sg14
I117
s(dp130
g128
I817
sg14
I82
s(dp131
g128
I1556
sg14
I98
stp132
sS'hhints'
p133
((dp134
g128
I-14
sg14
I98
s(dp135
g128
I518
sg14
I82
s(dp136
g128
I983
sg14
I92
stp137
ss."
HStem: -21 123<281.451 614.905 1068.77 1440.76> 475 118<898 1359.45> 513 113<295.221 736.42> 980 126<323.194 670.56 1044.52 1351.37>
VStem: 61 158<159.79 440.279> 741 157<283.542 486 612 809.431> 1424 155<651.898 909.747>
LayerCount: 2
Fore
SplineSet
1212 980 m 0xde
 1021 980 914 858 898 605 c 1
 981 598 1104 593 1153 593 c 0
 1390 593 1424 679 1424 768 c 0
 1424 885 1364 980 1212 980 c 0xde
433 102 m 0
 606 102 733 193 737 365 c 2
 740 498 l 1
 656 507 537 513 491 513 c 0xbe
 261 513 219 415 219 292 c 0
 219 150 312 102 433 102 c 0
1579 781 m 0
 1579 639 1523 475 1161 475 c 0xde
 1109 475 980 480 896 486 c 1
 913 206 1050 106 1247 106 c 0
 1372 106 1449 146 1539 197 c 1
 1551 197 l 1
 1590 84 l 1
 1500 24 1375 -20 1226 -20 c 0
 1047 -20 906 64 825 212 c 1
 750 60 590 -21 409 -21 c 0
 400 -21 391 -20 382 -20 c 0
 191 -11 61 92 61 293 c 0
 61 482 156 626 475 626 c 0
 527 626 652 621 741 612 c 1
 741 722 l 2
 741 912 670 980 507 980 c 0
 373 980 280 946 217 805 c 1
 207 804 l 1
 99 869 l 1
 155 1015 290 1106 497 1106 c 0
 675 1106 791 1045 848 922 c 1
 930 1042 1058 1106 1209 1106 c 0
 1445 1106 1579 964 1579 781 c 0
EndSplineSet
EndChar

StartChar: afii10018
Encoding: 1041 1041 156
Width: 1306
VWidth: 0
Flags: W
PickledData: "(dp1
S'org.pippin.gimp.org.kernagic'
p2
(dp3
S'lstem'
p4
I0
sS'rstem'
p5
I0
ssS'com.typemytype.robofont.layerData'
p6
(dp7
S'b'
(dp8
S'name'
p9
S'afii10018'
p10
sS'lib'
p11
(dp12
sS'unicodes'
p13
(tsS'width'
p14
I1306
sS'contours'
p15
(tsS'components'
p16
(tsS'anchors'
p17
(tsss."
HStem: 0 137<355 883.189> 706 138<355 885.285> 1360 136<355 1024>
VStem: 179 176<137 706 844 1360> 991 176<242.958 606.71>
LayerCount: 2
Fore
SplineSet
179 0 m 1
 179 1496 l 1
 1024 1496 l 1
 1024 1360 l 1
 355 1360 l 1
 355 844 l 1
 677 844 l 2
 1047 844 1167 672 1167 426 c 0
 1167 174 1044 0 680 0 c 2
 179 0 l 1
355 706 m 1
 355 137 l 1
 673 137 l 2
 895 137 991 218 991 423 c 0
 991 630 909 706 671 706 c 2
 355 706 l 1
EndSplineSet
EndChar

StartChar: afii10021
Encoding: 1044 1044 157
Width: 1391
VWidth: 0
Flags: W
PickledData: "(dp1
S'org.pippin.gimp.org.kernagic'
p2
(dp3
S'lstem'
p4
I0
sS'rstem'
p5
I0
ssS'com.typemytype.robofont.layerData'
p6
(dp7
S'b'
(dp8
S'name'
p9
S'afii10021'
p10
sS'lib'
p11
(dp12
sS'unicodes'
p13
(tsS'width'
p14
I1391
sS'contours'
p15
(tsS'components'
p16
(tsS'anchors'
p17
(tsssS'com.fontlab.hintData'
p18
(dp19
S'hhints'
p20
((dp21
S'position'
p22
I0
sg14
I88
stp23
ss."
HStem: 7 91<64 152.954 262 1037 1159 1183> 1414 90<442 1037>
VStem: -36 100<-294 7> 1037 122<98 1415> 1183 109<-294 7>
LayerCount: 2
Fore
SplineSet
-36 -294 m 1
 -36 98 l 1
 113 98 l 1
 205 164 251 393 303 1125 c 2
 330 1504 l 1
 1159 1504 l 1
 1159 98 l 1
 1292 98 l 1
 1292 -294 l 1
 1183 -294 l 1
 1183 7 l 1
 64 7 l 1
 64 -294 l 1
 -36 -294 l 1
442 1414 m 1
 417 1113 l 2
 379 659 354 270 262 98 c 1
 1037 98 l 1
 1037 1415 l 1
 442 1414 l 1
EndSplineSet
EndChar

StartChar: afii10029
Encoding: 1051 1051 162
Width: 1505
VWidth: 0
Flags: W
PickledData: "(dp1
S'org.pippin.gimp.org.kernagic'
p2
(dp3
S'lstem'
p4
I0
sS'rstem'
p5
I0
ssS'com.typemytype.robofont.layerData'
p6
(dp7
S'b'
(dp8
S'name'
p9
S'afii10029'
p10
sS'lib'
p11
(dp12
sS'unicodes'
p13
(tsS'width'
p14
I1505
sS'contours'
p15
(tsS'components'
p16
(tsS'anchors'
p17
(tsss."
HStem: -23 146<-49 175.844> 0 21G<1141 1316.01> 1339 132<422 1141>
VStem: 246 176<194.274 1339> 1141 175<0 1339>
LayerCount: 2
Fore
SplineSet
-49 -23 m 1xb8
 -49 123 l 1
 12 123 l 2xb8
 208 123 246 214 246 412 c 2
 246 1471 l 1
 1317 1470 l 1
 1316 0 l 1
 1141 0 l 1x78
 1141 1339 l 1
 422 1339 l 1
 422 437 l 2
 422 130 334 -23 24 -23 c 2
 -49 -23 l 1xb8
EndSplineSet
EndChar

StartChar: afii10033
Encoding: 1055 1055 166
Width: 1505
VWidth: 0
Flags: W
PickledData: "(dp1
S'org.pippin.gimp.org.kernagic'
p2
(dp3
S'lstem'
p4
I0
sS'rstem'
p5
I0
ssS'com.typemytype.robofont.layerData'
p6
(dp7
S'b'
(dp8
S'name'
p9
S'afii10033'
p10
sS'lib'
p11
(dp12
sS'unicodes'
p13
(tsS'width'
p14
I1505
sS'contours'
p15
(tsS'components'
p16
(tsS'anchors'
p17
(tsss."
HStem: 0 21G<198 374 1133 1309> 1364 132<374 1133>
VStem: 198 176<0 1364> 1133 176<0 1364>
LayerCount: 2
Fore
SplineSet
198 0 m 1
 198 1496 l 1
 1309 1496 l 1
 1309 0 l 1
 1133 0 l 1
 1133 1364 l 1
 374 1364 l 1
 374 0 l 1
 198 0 l 1
EndSplineSet
EndChar

StartChar: afii10037
Encoding: 1059 1059 170
Width: 1050
VWidth: 0
Flags: W
PickledData: "(dp1
S'org.pippin.gimp.org.kernagic'
p2
(dp3
S'lstem'
p4
I0
sS'rstem'
p5
I0
ssS'com.typemytype.robofont.layerData'
p6
(dp7
S'b'
(dp8
S'name'
p9
S'afii10037'
p10
sS'lib'
p11
(dp12
sS'unicodes'
p13
(tsS'width'
p14
I1050
sS'contours'
p15
(tsS'components'
p16
(tsS'anchors'
p17
(tsss."
HStem: 0 21G<244 368.282> 1456 20G<-4 110.446 919.009 1044>
LayerCount: 2
Fore
SplineSet
545 624 m 1
 928 1476 l 1
 1044 1476 l 1
 359 0 l 1
 244 0 l 1
 494 522 l 1
 -4 1476 l 1
 100 1476 l 1
 545 624 l 1
EndSplineSet
EndChar

StartChar: afii10038
Encoding: 1060 1060 171
Width: 1732
VWidth: 0
Flags: W
PickledData: "(dp1
S'org.pippin.gimp.org.kernagic'
p2
(dp3
S'lstem'
p4
I0
sS'rstem'
p5
I0
ssS'com.typemytype.robofont.layerData'
p6
(dp7
S'b'
(dp8
S'name'
p9
S'afii10038'
p10
sS'lib'
p11
(dp12
sS'unicodes'
p13
(tsS'width'
p14
I1732
sS'contours'
p15
(tsS'components'
p16
(tsS'anchors'
p17
(tsss."
HStem: 0 21G<792 925> 121 143<606.792 792 925 1126.37> 1213 142<607.126 792 925 1126.72> 1468 20G<792 925>
VStem: 141 163<526.579 949.27> 792 133<0 123.054 264 1213 1353.57 1488> 1431 163<527.753 948.61>
LayerCount: 2
Fore
SplineSet
925 262 m 1
 1278 297 1431 473 1431 738 c 0
 1431 1006 1277 1180 925 1215 c 1
 925 262 l 1
792 264 m 1
 792 1213 l 1
 457 1174 304 1003 304 738 c 0
 304 474 458 303 792 264 c 1
792 0 m 1
 792 121 l 1
 365 162 141 384 141 737 c 0
 141 1092 366 1314 792 1355 c 1
 792 1488 l 1
 925 1488 l 1
 925 1357 l 1
 1347 1326 1594 1115 1594 737 c 0
 1594 361 1346 152 925 120 c 1
 925 0 l 1
 792 0 l 1
EndSplineSet
EndChar

StartChar: afii10041
Encoding: 1063 1063 173
Width: 1306
VWidth: 0
Flags: W
PickledData: "(dp1
S'org.pippin.gimp.org.kernagic'
p2
(dp3
S'lstem'
p4
I0
sS'rstem'
p5
I0
ssS'com.typemytype.robofont.layerData'
p6
(dp7
S'b'
(dp8
S'name'
p9
S'afii10041'
p10
sS'lib'
p11
(dp12
sS'unicodes'
p13
(tsS'width'
p14
I1306
sS'contours'
p15
(tsS'components'
p16
(tsS'anchors'
p17
(tsss."
HStem: 0 21G<927 1097> 489 154<409.53 927>
VStem: 160 174<721.07 1496> 927 170<0 489 643 1496>
LayerCount: 2
Fore
SplineSet
927 0 m 1
 927 489 l 1
 537 489 l 2
 282 489 160 653 160 897 c 2
 160 1496 l 1
 334 1496 l 1
 334 935 l 2
 334 691 418 643 587 643 c 2
 927 643 l 1
 927 1496 l 1
 1097 1496 l 1
 1097 0 l 1
 927 0 l 1
EndSplineSet
EndChar

StartChar: afii10042
Encoding: 1064 1064 174
Width: 1675
VWidth: 0
Flags: W
PickledData: "(dp1
S'org.pippin.gimp.org.kernagic'
p2
(dp3
S'lstem'
p4
I0
sS'rstem'
p5
I0
ssS'com.typemytype.robofont.layerData'
p6
(dp7
S'b'
(dp8
S'name'
p9
S'afii10042'
p10
sS'lib'
p11
(dp12
sS'unicodes'
p13
(tsS'width'
p14
I1675
sS'contours'
p15
(tsS'components'
p16
(tsS'anchors'
p17
(tsss."
HStem: 0 144<343 758 909 1334>
VStem: 192 151<144 1496> 758 151<144 1496> 1334 151<144 1496>
LayerCount: 2
Fore
SplineSet
192 0 m 1
 192 1496 l 1
 343 1496 l 1
 343 144 l 1
 758 144 l 1
 758 1496 l 1
 909 1496 l 1
 909 144 l 1
 1334 144 l 1
 1334 1496 l 1
 1485 1496 l 1
 1485 0 l 1
 192 0 l 1
EndSplineSet
EndChar

StartChar: afii10043
Encoding: 1065 1065 175
Width: 1704
VWidth: 0
Flags: W
PickledData: "(dp1
S'org.pippin.gimp.org.kernagic'
p2
(dp3
S'lstem'
p4
I0
sS'rstem'
p5
I0
ssS'com.typemytype.robofont.layerData'
p6
(dp7
S'b'
(dp8
S'name'
p9
S'afii10043'
p10
sS'lib'
p11
(dp12
sS'unicodes'
p13
(tsS'width'
p14
I1704
sS'contours'
p15
(tsS'components'
p16
(tsS'anchors'
p17
(tsss."
HStem: 7 144<342 757 909 1333>
VStem: 192 150<151 1504> 757 152<151 1504> 1333 151<166 1504> 1433 151<-288 7>
LayerCount: 2
Fore
SplineSet
1433 -288 m 1xe8
 1434 7 l 1
 192 7 l 1
 192 1504 l 1
 342 1504 l 1
 342 151 l 1
 757 151 l 1
 757 1504 l 1
 909 1504 l 1
 909 151 l 1
 1333 151 l 1
 1333 1504 l 1
 1484 1504 l 1
 1484 166 l 1xf0
 1584 166 l 1
 1584 -288 l 1
 1433 -288 l 1xe8
EndSplineSet
EndChar

StartChar: afii10044
Encoding: 1066 1066 176
Width: 1306
VWidth: 0
Flags: W
PickledData: "(dp1
S'org.pippin.gimp.org.kernagic'
p2
(dp3
S'lstem'
p4
I0
sS'rstem'
p5
I0
ssS'com.typemytype.robofont.layerData'
p6
(dp7
S'b'
(dp8
S'name'
p9
S'afii10044'
p10
sS'lib'
p11
(dp12
sS'unicodes'
p13
(tsS'width'
p14
I1306
sS'contours'
p15
(tsS'components'
p16
(tsS'anchors'
p17
(tsss."
HStem: 0 137<400 900.189> 707 137<400 903.162> 1335 136<-17 224>
VStem: 224 176<137 707 844 1336> 1008 176<243.3 611.638>
LayerCount: 2
Fore
SplineSet
224 0 m 1
 224 1336 l 1
 -17 1335 l 1
 -17 1471 l 1
 401 1471 l 1
 400 844 l 1
 695 844 l 2
 1065 844 1184 672 1184 426 c 0
 1184 174 1061 0 697 0 c 2
 224 0 l 1
400 707 m 1
 400 137 l 1
 690 137 l 2
 912 137 1008 219 1008 424 c 0
 1008 630 927 707 689 707 c 2
 400 707 l 1
EndSplineSet
EndChar

StartChar: afii10045
Encoding: 1067 1067 177
Width: 1760
VWidth: 0
Flags: W
PickledData: "(dp1
S'org.pippin.gimp.org.kernagic'
p2
(dp3
S'lstem'
p4
I0
sS'rstem'
p5
I0
ssS'com.typemytype.robofont.layerData'
p6
(dp7
S'b'
(dp8
S'name'
p9
S'afii10045'
p10
sS'lib'
p11
(dp12
sS'unicodes'
p13
(tsS'width'
p14
I1760
sS'contours'
p15
(tsS'components'
p16
(tsS'anchors'
p17
(tsss."
HStem: 0 96<320 888.369> 743 97<320 893.854> 1464 20G<198 320 1396 1518>
VStem: 198 122<96 743 840 1484> 1021 122<217.922 629.927> 1396 122<0 1485>
LayerCount: 2
Fore
SplineSet
198 0 m 1
 198 1484 l 1
 320 1484 l 1
 320 840 l 1
 665 840 l 2
 1059 840 1143 645 1143 426 c 0
 1143 198 1068 0 672 0 c 2
 198 0 l 1
1396 0 m 1
 1396 1485 l 1
 1518 1485 l 1
 1518 0 l 1
 1396 0 l 1
320 743 m 1
 320 96 l 1
 678 96 l 2
 928 96 1021 194 1021 422 c 0
 1021 655 936 743 664 743 c 2
 320 743 l 1
EndSplineSet
EndChar

StartChar: afii10046
Encoding: 1068 1068 178
Width: 1306
VWidth: 0
Flags: W
PickledData: "(dp1
S'org.pippin.gimp.org.kernagic'
p2
(dp3
S'lstem'
p4
I0
sS'rstem'
p5
I0
ssS'com.typemytype.robofont.layerData'
p6
(dp7
S'b'
(dp8
S'name'
p9
S'afii10046'
p10
sS'lib'
p11
(dp12
sS'unicodes'
p13
(tsS'width'
p14
I1306
sS'contours'
p15
(tsS'components'
p16
(tsS'anchors'
p17
(tsss."
HStem: 0 137<355 867.971> 707 137<355 879.407>
VStem: 179 176<137 707 844 1496> 985 177<243.3 611.638>
LayerCount: 2
Fore
SplineSet
179 0 m 1
 179 1496 l 1
 355 1496 l 1
 355 844 l 1
 671 844 l 2
 1041 844 1162 672 1162 426 c 0
 1162 174 1039 0 675 0 c 2
 179 0 l 1
355 707 m 1
 355 137 l 1
 667 137 l 2
 889 137 985 219 985 424 c 0
 985 630 903 707 665 707 c 2
 355 707 l 1
EndSplineSet
EndChar

StartChar: afii10059
Encoding: 1034 1034 185
Width: 2101
VWidth: 0
Flags: W
PickledData: "(dp1
S'org.pippin.gimp.org.kernagic'
p2
(dp3
S'lstem'
p4
I0
sS'rstem'
p5
I0
ssS'com.typemytype.robofont.layerData'
p6
(dp7
S'b'
(dp8
S'name'
p9
S'afii10059'
p10
sS'lib'
p11
(dp12
sS'unicodes'
p13
(tsS'width'
p14
I2101
sS'contours'
p15
(tsS'components'
p16
(tsS'anchors'
p17
(tsss."
HStem: 0 131<1213 1712.37> 694 131<349 1038 1213 1725.47> 1451 20G<173 349 1038 1214>
VStem: 173 176<0 694 825 1471> 1038 175<131 694 825 1471> 1830 170<236.242 597.106>
LayerCount: 2
Fore
SplineSet
1038 0 m 1
 1038 694 l 1
 349 694 l 1
 349 0 l 1
 173 0 l 1
 173 1471 l 1
 349 1471 l 1
 349 825 l 1
 1038 825 l 1
 1038 1471 l 1
 1214 1471 l 1
 1213 825 l 1
 1504 825 l 2
 1874 825 2000 663 2000 417 c 0
 2000 165 1870 0 1506 0 c 2
 1038 0 l 1
1213 694 m 1
 1213 131 l 1
 1499 131 l 2
 1729 131 1830 212 1830 417 c 0
 1830 623 1740 694 1497 694 c 2
 1213 694 l 1
EndSplineSet
EndChar

StartChar: afii10060
Encoding: 1035 1035 186
Width: 1817
VWidth: 0
Flags: W
PickledData: "(dp1
S'org.pippin.gimp.org.kernagic'
p2
(dp3
S'lstem'
p4
I0
sS'rstem'
p5
I0
ssS'com.typemytype.robofont.layerData'
p6
(dp7
S'b'
(dp8
S'name'
p9
S'afii10060'
p10
sS'lib'
p11
(dp12
sS'unicodes'
p13
(tsS'width'
p14
I1817
sS'contours'
p15
(tsS'components'
p16
(tsS'anchors'
p17
(tsssS'com.fontlab.hintData'
p18
(dp19
S'vhints'
p20
((dp21
S'position'
p22
I1256
sg14
I120
stp23
sS'hhints'
p24
((dp25
g22
I697
sg14
I94
stp26
ss."
HStem: 0 21G<735 857 1484 1606> 714 97<857 1372.53> 1395 90<287 735 857 1311>
VStem: 735 122<0 714 811 1395> 1484 122<0 603.875>
LayerCount: 2
Fore
SplineSet
1484 0 m 1
 1484 413 l 2
 1484 644 1374 714 1165 714 c 2
 857 714 l 1
 857 0 l 1
 735 0 l 1
 735 1395 l 1
 287 1395 l 1
 287 1485 l 1
 1311 1485 l 1
 1311 1395 l 1
 857 1395 l 1
 857 811 l 1
 1163 811 l 2
 1471 811 1606 674 1606 414 c 2
 1606 0 l 1
 1484 0 l 1
EndSplineSet
EndChar

StartChar: afii10066
Encoding: 1073 1073 189
Width: 1136
VWidth: 0
Flags: W
PickledData: "(dp1
S'org.pippin.gimp.org.kernagic'
p2
(dp3
S'lstem'
p4
I0
sS'rstem'
p5
I0
ssS'com.typemytype.robofont.layerData'
p6
(dp7
S'b'
(dp8
S'name'
p9
S'afii10066'
p10
sS'lib'
p11
(dp12
sS'unicodes'
p13
(tsS'width'
p14
I1136
sS'contours'
p15
(tsS'components'
p16
(tsS'anchors'
p17
(tsss."
HStem: -20 94<432.45 763.869> 765 75<455.471 754.445> 1162 79<644.726 913>
VStem: 137 126<264.509 635.291> 897 84<224.838 612.91>
LayerCount: 2
Fore
SplineSet
584 74 m 0
 827 74 897 199 897 445 c 0
 897 613 789 765 630 765 c 0
 578 765 418 751 271 603 c 1
 266 561 263 521 263 485 c 0
 263 173 450 74 584 74 c 0
588 -20 m 0
 174 -20 137 366 137 495 c 0
 137 522 139 535 139 535 c 1
 139 939 308 1205 916 1241 c 1
 913 1162 l 1
 645 1145 333 1105 253 703 c 1
 399 774 442 840 630 840 c 0
 872 840 981 588 981 430 c 0
 981 198 837 -20 588 -20 c 0
EndSplineSet
EndChar

StartChar: afii10067
Encoding: 1074 1074 190
Width: 1136
VWidth: 0
Flags: W
PickledData: "(dp1
S'org.pippin.gimp.org.kernagic'
p2
(dp3
S'lstem'
p4
I0
sS'rstem'
p5
I0
ssS'com.typemytype.robofont.layerData'
p6
(dp7
S'b'
(dp8
S'name'
p9
S'afii10067'
p10
sS'lib'
p11
(dp12
sS'unicodes'
p13
(tsS'width'
p14
I1136
sS'contours'
p15
(tsS'components'
p16
(tsS'anchors'
p17
(tsssS'com.fontlab.hintData'
p18
(dp19
S'vhints'
p20
((dp21
S'position'
p22
I865
sg14
I120
s(dp23
g22
I900
sg14
I120
stp24
sS'hhints'
p25
((dp26
g22
I0
sg14
I85
s(dp27
g22
I506
sg14
I90
s(dp28
g22
I970
sg14
I85
stp29
ss."
HStem: 0 87<291 801.222> 519 92<291 790.906> 994 87<291 776.763>
VStem: 169 122<87 519 611 994> 841 119<660.682 935.336> 876 120<155.278 463.979>
LayerCount: 2
Fore
SplineSet
291 611 m 1xf8
 653 611 l 2
 816 611 841 713 841 804 c 0
 841 914 792 994 614 994 c 2
 291 994 l 1
 291 611 l 1xf8
291 87 m 1
 609 87 l 2
 843 87 876 188 876 309 c 0xf4
 876 403 875 519 658 519 c 2
 291 519 l 1
 291 87 l 1
169 0 m 1
 169 1081 l 1
 616 1081 l 2
 890 1081 960 935 960 809 c 0xf8
 960 683 896 609 791 576 c 1
 956 530 996 400 996 309 c 0
 996 179 940 0 614 0 c 2
 169 0 l 1
EndSplineSet
EndChar

StartChar: uni0433
Encoding: 1075 1075 191
Width: 994
VWidth: 0
Flags: W
PickledData: "(dp1
S'org.pippin.gimp.org.kernagic'
p2
(dp3
S'lstem'
p4
I0
sS'rstem'
p5
I0
ssS'com.typemytype.robofont.layerData'
p6
(dp7
S'b'
(dp8
S'name'
p9
S'afii10068'
p10
sS'lib'
p11
(dp12
sS'unicodes'
p13
(tsS'width'
p14
I994
sS'contours'
p15
(tsS'components'
p16
(tsS'anchors'
p17
(tsssS'com.fontlab.hintData'
p18
(dp19
S'vhints'
p20
((dp21
S'position'
p22
I193
sg14
I667
stp23
ss."
HStem: 0 21G<182 304> 985 96<304 848>
VStem: 182 122<0 985>
LayerCount: 2
Fore
SplineSet
182 0 m 1
 182 1081 l 1
 848 1081 l 1
 848 985 l 1
 304 985 l 1
 304 0 l 1
 182 0 l 1
EndSplineSet
EndChar

StartChar: afii10069
Encoding: 1076 1076 192
Width: 1164
VWidth: 0
Flags: W
PickledData: "(dp1
S'org.pippin.gimp.org.kernagic'
p2
(dp3
S'lstem'
p4
I0
sS'rstem'
p5
I0
ssS'com.typemytype.robofont.layerData'
p6
(dp7
S'b'
(dp8
S'name'
p9
S'afii10069'
p10
sS'lib'
p11
(dp12
sS'unicodes'
p13
(tsS'width'
p14
I1164
sS'contours'
p15
(tsS'components'
p16
(tsS'anchors'
p17
(tsss."
HStem: 7 78<75 152.354 224 845> 1020 70<455.697 845>
VStem: -2 83<-275 7> 845 132<85 1020> 934 104<-275 7>
LayerCount: 2
Fore
SplineSet
224 83 m 1xf0
 845 83 l 1
 845 1020 l 1
 462 1020 l 1
 455 994 362 390 364 410 c 1
 327 231 266 89 224 83 c 1xf0
-2 -275 m 1
 -2 85 l 1
 91 85 l 1
 173 109 194 186 231 292 c 1
 371 1090 l 1
 977 1090 l 1
 977 85 l 1xf0
 1038 85 l 1
 1038 -275 l 1
 934 -275 l 1xe8
 946 7 l 1
 75 7 l 1
 81 -275 l 1
 -2 -275 l 1
EndSplineSet
EndChar

StartChar: afii10072
Encoding: 1078 1078 195
Width: 1420
VWidth: 0
Flags: W
PickledData: "(dp1
S'org.pippin.gimp.org.kernagic'
p2
(dp3
S'lstem'
p4
I0
sS'rstem'
p5
I0
ssS'com.typemytype.robofont.layerData'
p6
(dp7
S'b'
(dp8
S'name'
p9
S'afii10072'
p10
sS'lib'
p11
(dp12
sS'unicodes'
p13
(tsS'width'
p14
I1420
sS'contours'
p15
(tsS'components'
p16
(tsS'anchors'
p17
(tsss."
HStem: 0 21G<10 142.032 634 764 1258.86 1396> 1063 20G<11 133.116 634 764 1268.73 1393>
VStem: 634 130<0 537 565 1083>
LayerCount: 2
Fore
SplineSet
10 0 m 1
 546 560 l 1
 11 1083 l 1
 113 1083 l 1
 634 565 l 1
 634 1083 l 1
 764 1083 l 1
 764 565 l 1
 1289 1083 l 1
 1393 1083 l 1
 855 560 l 1
 1396 0 l 1
 1278 0 l 1
 764 537 l 1
 764 0 l 1
 634 0 l 1
 634 537 l 1
 123 0 l 1
 10 0 l 1
EndSplineSet
EndChar

StartChar: uni0438
Encoding: 1080 1080 196
Width: 1192
VWidth: 0
Flags: W
PickledData: "(dp1
S'org.pippin.gimp.org.kernagic'
p2
(dp3
S'lstem'
p4
I0
sS'rstem'
p5
I0
ssS'com.typemytype.robofont.layerData'
p6
(dp7
S'b'
(dp8
S'name'
p9
S'afii10074'
p10
sS'lib'
p11
(dp12
sS'unicodes'
p13
(tsS'width'
p14
I1192
sS'contours'
p15
(tsS'components'
p16
(tsS'anchors'
p17
(tsss."
HStem: 0 21G<188 301.519 891 993> 1061 20G<188 288 891 993>
VStem: 188 100<161 1081> 891 102<0 832 991 1081>
LayerCount: 2
Fore
SplineSet
188 0 m 1
 188 1081 l 1
 288 1081 l 1
 288 161 l 1
 891 991 l 1
 891 1081 l 1
 993 1081 l 1
 993 0 l 1
 891 0 l 1
 891 832 l 1
 287 0 l 1
 188 0 l 1
EndSplineSet
EndChar

StartChar: uni043A
Encoding: 1082 1082 198
Width: 1079
VWidth: 0
Flags: W
PickledData: "(dp1
S'org.pippin.gimp.org.kernagic'
p2
(dp3
S'lstem'
p4
I0
sS'rstem'
p5
I0
ssS'com.typemytype.robofont.layerData'
p6
(dp7
S'b'
(dp8
S'name'
p9
S'afii10076'
p10
sS'lib'
p11
(dp12
sS'unicodes'
p13
(tsS'width'
p14
I1079
sS'contours'
p15
(tsS'components'
p16
(tsS'anchors'
p17
(tsss."
HStem: 0 21G<175 304 823.584 991> 1061 20G<175 304 771 915.811>
VStem: 175 129<0 529 561 1081>
LayerCount: 2
Fore
SplineSet
175 0 m 1
 175 1081 l 1
 304 1081 l 1
 304 561 l 1
 771 1080 l 1
 934 1082 l 1
 442 541 l 1
 991 0 l 1
 844 0 l 1
 304 529 l 1
 304 0 l 1
 175 0 l 1
EndSplineSet
EndChar

StartChar: afii10077
Encoding: 1083 1083 199
Width: 1192
VWidth: 0
Flags: W
PickledData: "(dp1
S'org.pippin.gimp.org.kernagic'
p2
(dp3
S'lstem'
p4
I0
sS'rstem'
p5
I0
ssS'com.typemytype.robofont.layerData'
p6
(dp7
S'b'
(dp8
S'name'
p9
S'afii10077'
p10
sS'lib'
p11
(dp12
sS'unicodes'
p13
(tsS'width'
p14
I1192
sS'contours'
p15
(tsS'components'
p16
(tsS'anchors'
p17
(tsssS'com.fontlab.hintData'
p18
(dp19
S'hhints'
p20
((dp21
S'position'
p22
I-7
sg14
I101
stp23
ss."
HStem: -7 102<40 189.566> 986 96<487 895>
VStem: 895 129<-1 986>
LayerCount: 2
Fore
SplineSet
40 -7 m 1
 23 95 l 1
 198 95 264 139 311 501 c 1
 376 1082 l 1
 1024 1082 l 1
 1024 -1 l 1
 895 -1 l 1
 895 986 l 1
 487 986 l 1
 425 489 l 1
 376 65 288 -7 40 -7 c 1
EndSplineSet
EndChar

StartChar: afii10078
Encoding: 1084 1084 200
Width: 1334
VWidth: 0
Flags: W
PickledData: "(dp1
S'org.pippin.gimp.org.kernagic'
p2
(dp3
S'lstem'
p4
I0
sS'rstem'
p5
I0
ssS'com.typemytype.robofont.layerData'
p6
(dp7
S'b'
(dp8
S'name'
p9
S'afii10078'
p10
sS'lib'
p11
(dp12
sS'unicodes'
p13
(tsS'width'
p14
I1334
sS'contours'
p15
(tsS'components'
p16
(tsS'anchors'
p17
(tsss."
HStem: 0 21G<175 288 1036 1149> 1061 20G<175 293.732 1033.34 1149>
VStem: 175 113<0 839> 1036 113<0 839>
LayerCount: 2
Fore
SplineSet
175 0 m 1
 175 1081 l 1
 284 1081 l 1
 665 298 l 1
 1043 1081 l 1
 1149 1081 l 1
 1149 0 l 1
 1036 0 l 1
 1036 839 l 1
 709 166 l 1
 618 166 l 1
 288 839 l 1
 288 0 l 1
 175 0 l 1
EndSplineSet
EndChar

StartChar: afii10079
Encoding: 1085 1085 201
Width: 1221
VWidth: 0
Flags: W
PickledData: "(dp1
S'org.pippin.gimp.org.kernagic'
p2
(dp3
S'lstem'
p4
I0
sS'rstem'
p5
I0
ssS'com.typemytype.robofont.layerData'
p6
(dp7
S'b'
(dp8
S'name'
p9
S'afii10079'
p10
sS'lib'
p11
(dp12
sS'unicodes'
p13
(tsS'width'
p14
I1221
sS'contours'
p15
(tsS'components'
p16
(tsS'anchors'
p17
(tsss."
HStem: 0 21G<182 304 921 1043> 526 97<304 921> 1061 20G<182 304 921 1043>
VStem: 182 122<0 526 623 1081> 921 122<0 526 623 1081>
LayerCount: 2
Fore
SplineSet
182 0 m 1
 182 1081 l 1
 304 1081 l 1
 304 623 l 1
 921 623 l 1
 921 1081 l 1
 1043 1081 l 1
 1043 0 l 1
 921 0 l 1
 921 526 l 1
 304 526 l 1
 304 0 l 1
 182 0 l 1
EndSplineSet
EndChar

StartChar: afii10081
Encoding: 1087 1087 203
Width: 1192
VWidth: 0
Flags: W
PickledData: "(dp1
S'org.pippin.gimp.org.kernagic'
p2
(dp3
S'lstem'
p4
I0
sS'rstem'
p5
I0
ssS'com.typemytype.robofont.layerData'
p6
(dp7
S'b'
(dp8
S'name'
p9
S'afii10081'
p10
sS'lib'
p11
(dp12
sS'unicodes'
p13
(tsS'width'
p14
I1192
sS'contours'
p15
(tsS'components'
p16
(tsS'anchors'
p17
(tsss."
HStem: 0 21G<182 304 893 1015> 987 94<304 893>
VStem: 182 122<0 987> 893 122<0 987>
LayerCount: 2
Fore
SplineSet
182 0 m 1
 182 1081 l 1
 1015 1081 l 1
 1015 0 l 1
 893 0 l 1
 893 987 l 1
 304 987 l 1
 304 0 l 1
 182 0 l 1
EndSplineSet
EndChar

StartChar: afii10084
Encoding: 1090 1090 206
Width: 1022
VWidth: 0
Flags: W
PickledData: "(dp1
S'org.pippin.gimp.org.kernagic'
p2
(dp3
S'lstem'
p4
I0
sS'rstem'
p5
I0
ssS'com.typemytype.robofont.layerData'
p6
(dp7
S'b'
(dp8
S'name'
p9
S'afii10084'
p10
sS'lib'
p11
(dp12
sS'unicodes'
p13
(tsS'width'
p14
I1022
sS'contours'
p15
(tsS'components'
p16
(tsS'anchors'
p17
(tsss."
HStem: 0 21G<436 572> 978 103<137 436 572 876>
VStem: 436 136<0 978>
LayerCount: 2
Fore
SplineSet
436 0 m 1
 436 978 l 1
 137 978 l 1
 137 1081 l 1
 876 1081 l 1
 876 978 l 1
 572 978 l 1
 572 0 l 1
 436 0 l 1
EndSplineSet
EndChar

StartChar: uni0443
Encoding: 1091 1091 207
Width: 1107
VWidth: 0
Flags: W
PickledData: "(dp1
S'org.pippin.gimp.org.kernagic'
p2
(dp3
S'lstem'
p4
I0
sS'rstem'
p5
I0
ssS'com.typemytype.robofont.layerData'
p6
(dp7
S'b'
(dp8
S'name'
p9
S'afii10085'
p10
sS'lib'
p11
(dp12
sS'unicodes'
p13
(tsS'width'
p14
I1107
sS'contours'
p15
(tsS'components'
p16
(tsS'anchors'
p17
(tsss."
HStem: -304 104<207 494.534> 1069 20G<74 207.823 894 1022>
VStem: 540 112<-153.192 158>
LayerCount: 2
Fore
SplineSet
207 -304 m 1
 207 -200 l 1
 497 -200 540 -182 540 21 c 2
 540 36 l 1
 539 158 l 1
 74 1089 l 1
 198 1089 l 1
 586 299 l 1
 902 1089 l 1
 1022 1089 l 1
 651 159 l 1
 652 34 l 1
 652 9 l 2
 652 -248 603 -304 207 -304 c 1
EndSplineSet
EndChar

StartChar: afii10086
Encoding: 1092 1092 208
Width: 1533
VWidth: 0
Flags: W
PickledData: "(dp1
S'org.pippin.gimp.org.kernagic'
p2
(dp3
S'lstem'
p4
I0
sS'rstem'
p5
I0
ssS'com.typemytype.robofont.layerData'
p6
(dp7
S'b'
(dp8
S'name'
p9
S'afii10086'
p10
sS'lib'
p11
(dp12
sS'unicodes'
p13
(tsS'width'
p14
I1533
sS'contours'
p15
(tsS'components'
p16
(tsS'anchors'
p17
(tsss."
HStem: -381 21G<706 809> 54 93<378.61 703.055 811.966 1135.3> 962 92<358.651 693.134 825.169 1154.53>
VStem: 124 118<322.953 813.365> 706 103<-381 92 172.599 928.908 1004 1346> 1274 117<327.56 809.739>
LayerCount: 2
Fore
SplineSet
1020 147 m 0
 1176 147 1274 349 1274 564 c 0
 1274 782 1193 961 1036 961 c 0
 965 961 880 949 809 909 c 1
 809 193 l 1
 876 153 953 147 1020 147 c 0
495 147 m 0
 560 147 642 155 706 189 c 1
 706 917 l 1
 633 957 545 962 478 962 c 0
 319 962 242 782 242 565 c 0
 242 350 336 147 495 147 c 0
706 -381 m 1
 706 92 l 1
 645 63 560 54 489 54 c 0
 287 54 124 265 124 564 c 0
 124 863 268 1054 479 1054 c 0
 545 1054 645 1032 706 1004 c 1
 706 1346 l 1
 809 1346 l 1
 809 1004 l 1
 873 1034 963 1054 1034 1054 c 0
 1244 1054 1391 864 1391 565 c 0
 1391 268 1228 54 1024 54 c 0
 953 54 868 63 809 92 c 1
 809 -381 l 1
 706 -381 l 1
EndSplineSet
EndChar

StartChar: afii10088
Encoding: 1094 1094 210
Width: 1192
VWidth: 0
Flags: W
PickledData: "(dp1
S'org.pippin.gimp.org.kernagic'
p2
(dp3
S'lstem'
p4
I0
sS'rstem'
p5
I0
ssS'com.typemytype.robofont.layerData'
p6
(dp7
S'b'
(dp8
S'name'
p9
S'afii10088'
p10
sS'lib'
p11
(dp12
sS'unicodes'
p13
(tsS'width'
p14
I1192
sS'contours'
p15
(tsS'components'
p16
(tsS'anchors'
p17
(tsss."
HStem: 7 79<309 864> 1070 20G<182 309 864 993>
VStem: 182 127<86 1090> 864 129<145 1090> 927 161<-275 -5.4832>
LayerCount: 2
Fore
SplineSet
927 -275 m 1xe8
 942 7 l 1
 182 7 l 1
 182 1090 l 1
 309 1090 l 1
 309 86 l 1
 864 86 l 1
 864 1090 l 1
 993 1090 l 1
 993 145 l 1xf0
 1088 145 l 1
 1088 -275 l 1
 927 -275 l 1xe8
EndSplineSet
EndChar

StartChar: afii10089
Encoding: 1095 1095 211
Width: 1079
VWidth: 0
Flags: W
PickledData: "(dp1
S'org.pippin.gimp.org.kernagic'
p2
(dp3
S'lstem'
p4
I0
sS'rstem'
p5
I0
ssS'com.typemytype.robofont.layerData'
p6
(dp7
S'b'
(dp8
S'name'
p9
S'afii10089'
p10
sS'lib'
p11
(dp12
sS'unicodes'
p13
(tsS'width'
p14
I1079
sS'contours'
p15
(tsS'components'
p16
(tsS'anchors'
p17
(tsss."
HStem: 0 21G<736 903> 395 130<382.593 735.575> 1065 20G<144 312 736 903>
VStem: 144 168<602.703 1085> 736 167<0 422 549.427 1085>
LayerCount: 2
Fore
SplineSet
736 0 m 1
 736 422 l 1
 720 406 567 395 528 395 c 0
 293 396 144 465 144 817 c 2
 144 1085 l 1
 312 1085 l 1
 312 828 l 2
 312 575 384 525 539 525 c 0
 585 525 734 552 736 569 c 1
 736 1085 l 1
 903 1085 l 1
 903 0 l 1
 736 0 l 1
EndSplineSet
EndChar

StartChar: afii10090
Encoding: 1096 1096 212
Width: 1363
VWidth: 0
Flags: W
PickledData: "(dp1
S'org.pippin.gimp.org.kernagic'
p2
(dp3
S'lstem'
p4
I0
sS'rstem'
p5
I0
ssS'com.typemytype.robofont.layerData'
p6
(dp7
S'b'
(dp8
S'name'
p9
S'afii10090'
p10
sS'lib'
p11
(dp12
sS'unicodes'
p13
(tsS'width'
p14
I1363
sS'contours'
p15
(tsS'components'
p16
(tsS'anchors'
p17
(tsss."
HStem: 0 78<305 628 733 1055> 1061 20G<182 305 628 733 1055 1180>
VStem: 182 123<78 1081> 628 105<78 1081> 1055 125<78 1081>
LayerCount: 2
Fore
SplineSet
182 0 m 1
 182 1081 l 1
 305 1081 l 1
 305 78 l 1
 628 78 l 1
 628 1081 l 1
 733 1081 l 1
 733 78 l 1
 1055 78 l 1
 1055 1081 l 1
 1180 1081 l 1
 1180 0 l 1
 182 0 l 1
EndSplineSet
EndChar

StartChar: afii10091
Encoding: 1097 1097 213
Width: 1420
VWidth: 0
Flags: W
PickledData: "(dp1
S'org.pippin.gimp.org.kernagic'
p2
(dp3
S'lstem'
p4
I0
sS'rstem'
p5
I0
ssS'com.typemytype.robofont.layerData'
p6
(dp7
S'b'
(dp8
S'name'
p9
S'afii10091'
p10
sS'lib'
p11
(dp12
sS'unicodes'
p13
(tsS'width'
p14
I1420
sS'contours'
p15
(tsS'components'
p16
(tsS'anchors'
p17
(tsss."
HStem: 7 79<308 655 796 1083> 1070 20G<169 308 655 796 1083 1224>
VStem: 169 139<86 1090> 655 141<86 1090> 1083 141<144 1090> 1162 158<-280 7>
LayerCount: 2
Fore
SplineSet
1162 -280 m 1xf4
 1173 7 l 1
 169 7 l 1
 169 1090 l 1
 308 1090 l 1
 308 86 l 1
 655 86 l 1
 655 1090 l 1
 796 1090 l 1
 796 86 l 1
 1083 86 l 1
 1083 1090 l 1
 1224 1090 l 1
 1224 144 l 1xf8
 1320 144 l 1
 1320 -280 l 1
 1162 -280 l 1xf4
EndSplineSet
EndChar

StartChar: afii10092
Encoding: 1098 1098 214
Width: 1022
VWidth: 0
Flags: W
PickledData: "(dp1
S'org.pippin.gimp.org.kernagic'
p2
(dp3
S'lstem'
p4
I0
sS'rstem'
p5
I0
ssS'com.typemytype.robofont.layerData'
p6
(dp7
S'b'
(dp8
S'name'
p9
S'afii10092'
p10
sS'lib'
p11
(dp12
sS'unicodes'
p13
(tsS'width'
p14
I1022
sS'contours'
p15
(tsS'components'
p16
(tsS'anchors'
p17
(tsss."
HStem: 0 87<328 660.374> 592 96<329 663.961> 1006 78<54 200>
VStem: 200 128<87 592 688 1006> 743 145<175.297 512.948>
LayerCount: 2
Fore
SplineSet
328 87 m 1
 546 87 l 2
 701 87 743 248 743 358 c 0
 743 474 688 592 539 592 c 2
 328 592 l 1
 328 87 l 1
200 0 m 1
 200 1006 l 1
 54 1006 l 1
 54 1084 l 1
 329 1084 l 1
 329 688 l 1
 529 688 l 2
 831 688 888 502 888 356 c 0
 888 199 820 0 531 0 c 2
 200 0 l 1
EndSplineSet
EndChar

StartChar: afii10093
Encoding: 1099 1099 215
Width: 1476
VWidth: 0
Flags: W
PickledData: "(dp1
S'org.pippin.gimp.org.kernagic'
p2
(dp3
S'lstem'
p4
I0
sS'rstem'
p5
I0
ssS'com.typemytype.robofont.layerData'
p6
(dp7
S'b'
(dp8
S'name'
p9
S'afii10093'
p10
sS'lib'
p11
(dp12
sS'unicodes'
p13
(tsS'width'
p14
I1476
sS'contours'
p15
(tsS'components'
p16
(tsS'anchors'
p17
(tsssS'com.fontlab.hintData'
p18
(dp19
S'vhints'
p20
((dp21
S'position'
p22
I819
sg14
I117
stp23
sS'hhints'
p24
((dp25
g22
I0
sg14
I85
s(dp26
g22
I576
sg14
I92
stp27
ss."
HStem: 0 87<290 701.149> 590 95<291 710.366> 1064 20G<169 291 1168 1290>
VStem: 169 121<87 590 685 1084> 795 116<179.602 509.035> 1168 122<0 1084>
LayerCount: 2
Fore
SplineSet
1168 0 m 1
 1168 1084 l 1
 1290 1084 l 1
 1290 0 l 1
 1168 0 l 1
290 87 m 1
 550 87 l 2
 706 87 795 170 795 356 c 0
 795 516 704 590 553 590 c 2
 290 590 l 1
 290 87 l 1
169 0 m 1
 169 1084 l 1
 291 1084 l 1
 291 685 l 1
 544 685 l 2
 847 685 911 499 911 354 c 0
 911 197 846 0 546 0 c 2
 169 0 l 1
EndSplineSet
EndChar

StartChar: afii10094
Encoding: 1100 1100 216
Width: 1079
VWidth: 0
Flags: W
PickledData: "(dp1
S'org.pippin.gimp.org.kernagic'
p2
(dp3
S'lstem'
p4
I0
sS'rstem'
p5
I0
ssS'com.typemytype.robofont.layerData'
p6
(dp7
S'b'
(dp8
S'name'
p9
S'afii10094'
p10
sS'lib'
p11
(dp12
sS'unicodes'
p13
(tsS'width'
p14
I1079
sS'contours'
p15
(tsS'components'
p16
(tsS'anchors'
p17
(tsssS'com.fontlab.hintData'
p18
(dp19
S'vhints'
p20
((dp21
S'position'
p22
I819
sg14
I117
stp23
sS'hhints'
p24
((dp25
g22
I0
sg14
I85
s(dp26
g22
I576
sg14
I92
stp27
ss."
HStem: 0 87<303 714.149> 590 95<304 723.366> 1064 20G<182 304>
VStem: 182 121<87 590 685 1084> 808 116<179.602 509.035>
LayerCount: 2
Fore
SplineSet
303 87 m 1
 563 87 l 2
 719 87 808 170 808 356 c 0
 808 516 717 590 566 590 c 2
 303 590 l 1
 303 87 l 1
182 0 m 1
 182 1084 l 1
 304 1084 l 1
 304 685 l 1
 557 685 l 2
 860 685 924 499 924 354 c 0
 924 197 859 0 559 0 c 2
 182 0 l 1
EndSplineSet
EndChar

StartChar: afii10095
Encoding: 1101 1101 217
Width: 1107
VWidth: 0
Flags: W
PickledData: "(dp1
S'org.pippin.gimp.org.kernagic'
p2
(dp3
S'lstem'
p4
I0
sS'rstem'
p5
I0
ssS'com.typemytype.robofont.layerData'
p6
(dp7
S'b'
(dp8
S'name'
p9
S'afii10095'
p10
sS'lib'
p11
(dp12
sS'unicodes'
p13
(tsS'width'
p14
I1107
sS'contours'
p15
(tsS'components'
p16
(tsS'anchors'
p17
(tsss."
HStem: -28 94<239.047 627.861> 487 103<424 865> 1023 92<240.713 642.065>
VStem: 865 103<313.393 487 590 779.385>
LayerCount: 2
Fore
SplineSet
453 -28 m 0
 315 -28 185 10 133 68 c 1
 164 148 l 1
 273 85 365 66 446 66 c 0
 690 66 849 250 865 487 c 1
 424 487 l 1
 424 590 l 1
 865 590 l 1
 848 834 720 1023 441 1023 c 0
 325 1023 241 985 161 936 c 1
 124 1013 l 1
 197 1081 338 1115 439 1115 c 0
 856 1115 968 791 968 524 c 0
 968 285 826 -28 453 -28 c 0
EndSplineSet
EndChar

StartChar: afii10096
Encoding: 1102 1102 218
Width: 1505
VWidth: 0
Flags: W
PickledData: "(dp1
S'org.pippin.gimp.org.kernagic'
p2
(dp3
S'lstem'
p4
I0
sS'rstem'
p5
I0
ssS'com.typemytype.robofont.layerData'
p6
(dp7
S'b'
(dp8
S'name'
p9
S'afii10096'
p10
sS'lib'
p11
(dp12
sS'unicodes'
p13
(tsS'width'
p14
I1505
sS'contours'
p15
(tsS'components'
p16
(tsS'anchors'
p17
(tsss."
HStem: -28 94<769.65 1088.28> 1 21G<188 276> 496 86<276 487> 1021 94<764.235 1092.91> 1062 20G<188 276>
VStem: 188 88<1 496 582 1082> 487 106<275.798 496 582 812.077> 1251 103<260.84 827.079>
LayerCount: 2
Fore
SplineSet
931 66 m 0xb7
 1185 66 1251 300 1251 539 c 0
 1251 785 1195 1021 926 1021 c 0
 668 1021 593 772 593 534 c 0
 593 301 671 66 931 66 c 0xb7
926 -28 m 0
 616 -28 492 196 487 496 c 1
 276 496 l 1
 276 1 l 1
 188 1 l 1
 188 1082 l 1
 276 1082 l 1x6f
 276 582 l 1
 487 582 l 1
 493 877 619 1115 931 1115 c 0
 1269 1115 1354 856 1354 542 c 0
 1354 243 1257 -28 926 -28 c 0
EndSplineSet
EndChar

StartChar: afii10097
Encoding: 1103 1103 219
Width: 1107
VWidth: 0
Flags: W
PickledData: "(dp1
S'org.pippin.gimp.org.kernagic'
p2
(dp3
S'lstem'
p4
I0
sS'rstem'
p5
I0
ssS'com.typemytype.robofont.layerData'
p6
(dp7
S'b'
(dp8
S'name'
p9
S'afii10097'
p10
sS'lib'
p11
(dp12
sS'unicodes'
p13
(tsS'width'
p14
I1107
sS'contours'
p15
(tsS'components'
p16
(tsS'anchors'
p17
(tsssS'com.fontlab.hintData'
p18
(dp19
S'vhints'
p20
((dp21
S'position'
p22
I124
sg14
I117
s(dp23
g22
I822
sg14
I122
stp24
sS'hhints'
p25
((dp26
g22
I0
sg14
I22
s(dp27
g22
I432
sg14
I89
s(dp28
g22
I969
sg14
I86
stp29
ss."
HStem: 0 21G<169 306.7 810 932> 446 91<492 810> 996 88<314.553 810>
VStem: 112 117<629.232 919.107> 810 122<0 446 537 996>
LayerCount: 2
Fore
SplineSet
498 537 m 2
 810 537 l 1
 810 996 l 1
 477 996 l 2
 266 996 229 875 229 767 c 0
 229 628 324 537 498 537 c 2
169 0 m 1
 369 453 l 1
 174 502 112 661 112 774 c 0
 112 918 206 1084 477 1084 c 2
 932 1084 l 1
 932 0 l 1
 810 0 l 1
 810 446 l 1
 492 446 l 1
 298 0 l 1
 169 0 l 1
EndSplineSet
EndChar

StartChar: afii10099
Encoding: 1106 1106 220
Width: 1192
VWidth: 0
Flags: W
PickledData: "(dp1
S'org.pippin.gimp.org.kernagic'
p2
(dp3
S'lstem'
p4
I0
sS'rstem'
p5
I0
ssS'com.typemytype.robofont.layerData'
p6
(dp7
S'b'
(dp8
S'name'
p9
S'afii10099'
p10
sS'lib'
p11
(dp12
sS'unicodes'
p13
(tsS'width'
p14
I1192
sS'contours'
p15
(tsS'components'
p16
(tsS'anchors'
p17
(tsss."
HStem: -280 131<667 849.782> 749 139<497.142 806.457> 1106 103<74 167 317 734>
VStem: 167 150<7 588.565 695 1106 1209 1509> 891 152<-115.938 655.513>
LayerCount: 2
Fore
SplineSet
667 -280 m 1
 656 -149 l 1
 692 -149 l 2
 869 -149 891 -113 891 104 c 2
 891 371 l 2
 891 621 858 749 664 749 c 0
 487 749 345 607 317 498 c 1
 317 7 l 1
 167 7 l 1
 167 1106 l 1
 74 1106 l 1
 74 1209 l 1
 167 1209 l 1
 167 1509 l 1
 317 1509 l 1
 317 1209 l 1
 734 1209 l 1
 734 1106 l 1
 317 1106 l 1
 317 695 l 1
 408 816 525 888 679 888 c 0
 929 888 1043 732 1043 445 c 2
 1043 158 l 2
 1043 -150 1022 -280 733 -280 c 2
 667 -280 l 1
EndSplineSet
EndChar

StartChar: afii10107
Encoding: 1114 1114 226
Width: 1618
VWidth: 0
Flags: W
PickledData: "(dp1
S'org.pippin.gimp.org.kernagic'
p2
(dp3
S'lstem'
p4
I0
sS'rstem'
p5
I0
ssS'com.typemytype.robofont.layerData'
p6
(dp7
S'b'
(dp8
S'name'
p9
S'afii10107'
p10
sS'lib'
p11
(dp12
sS'unicodes'
p13
(tsS'width'
p14
I1618
sS'contours'
p15
(tsS'components'
p16
(tsS'anchors'
p17
(tsssS'com.fontlab.hintData'
p18
(dp19
S'vhints'
p20
((dp21
S'position'
p22
I1447
sg14
I103
stp23
sS'hhints'
p24
((dp25
g22
I0
sg14
I86
s(dp26
g22
I516
sg14
I86
stp27
ss."
HStem: 0 123<962 1328.68> 511 128<313 801 962 1340.57> 1064 20G<150 313 801 962>
VStem: 150 163<0 511 639 1084> 801 161<123 511 639 1084> 1392 138<184.131 459.797>
LayerCount: 2
Fore
SplineSet
962 123 m 1
 1192 123 l 2
 1340 123 1392 218 1392 323 c 0
 1392 427 1342 520 1192 520 c 2
 962 520 l 1
 962 123 l 1
150 0 m 1
 150 1084 l 1
 313 1084 l 1
 313 639 l 1
 801 639 l 1
 801 1084 l 1
 962 1084 l 1
 962 639 l 1
 1197 639 l 2
 1433 639 1530 498 1530 320 c 0
 1530 151 1425 0 1196 0 c 2
 801 0 l 1
 801 511 l 1
 313 511 l 1
 313 0 l 1
 150 0 l 1
EndSplineSet
EndChar

StartChar: afii10145
Encoding: 1039 1039 229
Width: 1505
VWidth: 0
Flags: W
PickledData: "(dp1
S'org.pippin.gimp.org.kernagic'
p2
(dp3
S'lstem'
p4
I0
sS'rstem'
p5
I0
ssS'com.typemytype.robofont.layerData'
p6
(dp7
S'b'
(dp8
S'name'
p9
S'afii10145'
p10
sS'lib'
p11
(dp12
sS'unicodes'
p13
(tsS'width'
p14
I1505
sS'contours'
p15
(tsS'components'
p16
(tsS'anchors'
p17
(tsss."
HStem: 7 90<339 711 833 1169>
VStem: 217 122<97 1493> 711 122<-294 7> 1169 122<97 1493>
LayerCount: 2
Fore
SplineSet
1291 1493 m 1
 1291 7 l 1
 833 7 l 1
 833 -294 l 1
 711 -294 l 1
 711 7 l 1
 217 7 l 1
 217 1493 l 1
 339 1493 l 1
 339 97 l 1
 1169 97 l 1
 1169 1493 l 1
 1291 1493 l 1
EndSplineSet
EndChar

StartChar: afii10193
Encoding: 1119 1119 230
Width: 1136
VWidth: 0
Flags: W
PickledData: "(dp1
S'org.pippin.gimp.org.kernagic'
p2
(dp3
S'lstem'
p4
I0
sS'rstem'
p5
I0
ssS'com.typemytype.robofont.layerData'
p6
(dp7
S'b'
(dp8
S'name'
p9
S'afii10193'
p10
sS'lib'
p11
(dp12
sS'unicodes'
p13
(tsS'width'
p14
I1136
sS'contours'
p15
(tsS'components'
p16
(tsS'anchors'
p17
(tsss."
HStem: 7 117<315 541 660 829> 1072 20G<175 315 829 969>
VStem: 175 140<124 1092> 545 111<-260 7> 829 140<124 1092>
LayerCount: 2
Fore
SplineSet
545 -260 m 1
 541 7 l 1
 175 7 l 1
 175 1092 l 1
 315 1092 l 1
 315 124 l 1
 829 124 l 1
 829 1092 l 1
 969 1092 l 1
 969 7 l 1
 660 7 l 1
 656 -260 l 1
 545 -260 l 1
EndSplineSet
EndChar

StartChar: ampersand
Encoding: 38 38 233
Width: 1420
VWidth: 0
Flags: W
PickledData: "(dp1
S'org.pippin.gimp.org.kernagic'
p2
(dp3
S'lstem'
p4
I0
sS'rstem'
p5
I0
ssS'com.typemytype.robofont.layerData'
p6
(dp7
S'b'
(dp8
S'name'
p9
S'ampersand'
p10
sS'lib'
p11
(dp12
sS'unicodes'
p13
(tsS'width'
p14
I1420
sS'contours'
p15
((dp16
S'points'
p17
((dp18
S'segmentType'
p19
S'line'
p20
sS'x'
I867
sS'smooth'
p21
I00
sS'y'
I237
s(dp22
S'y'
I151
sS'x'
I777
sg21
I00
s(dp23
S'y'
I113
sS'x'
I659
sg21
I00
s(dp24
g19
S'curve'
p25
sS'x'
I539
sg21
I01
sS'y'
I114
s(dp26
S'y'
I116
sS'x'
I349
sg21
I00
s(dp27
S'y'
I213
sS'x'
I237
sg21
I00
s(dp28
g19
S'curve'
p29
sS'x'
I223
sg21
I01
sS'y'
I358
s(dp30
S'y'
I528
sS'x'
I207
sg21
I00
s(dp31
S'y'
I608
sS'x'
I282
sg21
I00
s(dp32
g19
S'curve'
p33
sS'x'
I445
sg21
I00
sS'y'
I695
stp34
s(dp35
g17
((dp36
g19
S'curve'
p37
sS'x'
I493
sg21
I00
sS'y'
I854
s(dp38
S'y'
I988
sS'x'
I378
sg21
I00
s(dp39
S'y'
I1062
sS'x'
I331
sg21
I00
s(dp40
g19
S'curve'
p41
sS'x'
I331
sg21
I01
sS'y'
I1156
s(dp42
S'y'
I1274
sS'x'
I331
sg21
I00
s(dp43
S'y'
I1357
sS'x'
I434
sg21
I00
s(dp44
g19
S'curve'
p45
sS'x'
I571
sg21
I01
sS'y'
I1354
s(dp46
S'y'
I1351
sS'x'
I700
sg21
I00
s(dp47
S'y'
I1279
sS'x'
I767
sg21
I00
s(dp48
g19
S'curve'
p49
sS'x'
I767
sg21
I01
sS'y'
I1159
s(dp50
S'y'
I1002
sS'x'
I767
sg21
I00
s(dp51
S'y'
I932
sS'x'
I640
sg21
I00
stp52
s(dp53
g17
((dp54
g19
S'curve'
p55
sS'x'
I916
sg21
I01
sS'y'
I1164
s(dp56
S'y'
I1366
sS'x'
I916
sg21
I00
s(dp57
S'y'
I1473
sS'x'
I771
sg21
I00
s(dp58
g19
S'curve'
p59
sS'x'
I569
sg21
I01
sS'y'
I1476
s(dp60
S'y'
I1479
sS'x'
I345
sg21
I00
s(dp61
S'y'
I1348
sS'x'
I188
sg21
I00
s(dp62
g19
S'curve'
p63
sS'x'
I188
sg21
I01
sS'y'
I1156
s(dp64
S'y'
I1034
sS'x'
I188
sg21
I00
s(dp65
S'y'
I932
sS'x'
I239
sg21
I00
s(dp66
g19
S'curve'
p67
sS'x'
I373
sg21
I00
sS'y'
I792
s(dp68
S'y'
I690
sS'x'
I166
sg21
I00
s(dp69
S'y'
I580
sS'x'
I45
sg21
I00
s(dp70
g19
S'curve'
p71
sS'x'
I63
sg21
I01
sS'y'
I342
s(dp72
S'y'
I141
sS'x'
I78
sg21
I00
s(dp73
S'y'
I-20
sS'x'
I251
sg21
I00
s(dp74
g19
S'curve'
p75
sS'x'
I513
sg21
I01
sS'y'
I-20
s(dp76
S'y'
I-20
sS'x'
I696
sg21
I00
s(dp77
S'y'
I28
sS'x'
I826
sg21
I00
s(dp78
g19
S'curve'
p79
sS'x'
I955
sg21
I00
sS'y'
I140
s(dp80
g19
S'line'
p81
sS'x'
I1107
sg21
I00
sS'y'
I-27
s(dp82
g19
S'line'
p83
sS'x'
I1116
sg21
I00
sS'y'
I-27
s(dp84
g19
S'line'
p85
sS'x'
I1219
sg21
I00
sS'y'
I60
s(dp86
g19
S'line'
p87
sS'x'
I1056
sg21
I00
sS'y'
I228
s(dp88
S'y'
I296
sS'x'
I1121
sg21
I00
s(dp89
S'y'
I384
sS'x'
I1194
sg21
I00
s(dp90
g19
S'curve'
p91
sS'x'
I1252
sg21
I00
sS'y'
I485
s(dp92
g19
S'line'
p93
sS'x'
I1153
sg21
I00
sS'y'
I560
s(dp94
g19
S'line'
p95
sS'x'
I1144
sg21
I00
sS'y'
I560
s(dp96
S'y'
I467
sS'x'
I1091
sg21
I00
s(dp97
S'y'
I381
sS'x'
I1018
sg21
I00
s(dp98
g19
S'curve'
p99
sS'x'
I963
sg21
I00
sS'y'
I328
s(dp100
g19
S'line'
p101
sS'x'
I566
sg21
I00
sS'y'
I755
s(dp102
S'y'
I849
sS'x'
I738
sg21
I00
s(dp103
S'y'
I946
sS'x'
I916
sg21
I00
stp104
stp105
sS'components'
p106
(tsS'anchors'
p107
(tsssS'com.fontlab.hintData'
p108
(dp109
S'vhints'
p110
((dp111
S'position'
p112
I135
sg14
I121
s(dp113
g112
I312
sg14
I105
s(dp114
g112
I917
sg14
I110
stp115
sS'hhints'
p116
((dp117
g112
I-19
sg14
I96
s(dp118
g112
I1372
sg14
I96
stp119
ss."
HStem: -20 134<383.874 767.703> 1354 122<448.229 736.772>
VStem: 93 160<236.512 553.131> 220 143<993.137 1274.33> 799 149<1021.62 1291.95>
LayerCount: 2
Fore
SplineSet
93 390 m 0xe8
 93 594 203 689 395 784 c 1
 261 924 220 1034 220 1156 c 0xd8
 220 1346 373 1476 593 1476 c 0
 800 1476 948 1368 948 1164 c 0
 948 946 770 849 598 755 c 1
 993 369 l 1
 1063 464 1138 591 1226 760 c 1
 1235 760 l 1
 1332 692 l 1
 1276 579 1203 414 1092 272 c 1
 1292 77 l 1
 1203 -20 l 1
 1006 174 l 1
 891 61 742 -20 545 -20 c 0
 264 -20 93 152 93 390 c 0xe8
596 1354 m 0
 463 1354 363 1272 363 1156 c 0
 363 1062 400 980 515 846 c 1
 662 924 799 1002 799 1159 c 0
 799 1281 730 1354 596 1354 c 0
571 114 m 0
 695 114 798 151 910 269 c 1
 477 695 l 1
 328 616 253 542 253 401 c 0xe8
 253 224 365 114 571 114 c 0
EndSplineSet
EndChar

StartChar: asciicircum
Encoding: 94 94 238
AltUni2: 000302.ffffffff.0
Width: 937
VWidth: 0
Flags: W
PickledData: "(dp1
S'org.pippin.gimp.org.kernagic'
p2
(dp3
S'lstem'
p4
I0
sS'rstem'
p5
I0
ssS'com.typemytype.robofont.layerData'
p6
(dp7
S'b'
(dp8
S'name'
p9
S'asciicircum'
p10
sS'lib'
p11
(dp12
sS'unicodes'
p13
(tsS'width'
p14
I937
sS'contours'
p15
(tsS'components'
p16
(tsS'anchors'
p17
(tsss."
HStem: 1074 382
VStem: 194 535
LayerCount: 2
Fore
SplineSet
194 1074 m 1
 374 1456 l 1
 561 1456 l 1
 729 1074 l 1
 617 1074 l 1
 463 1355 l 1
 305 1074 l 1
 194 1074 l 1
EndSplineSet
EndChar

StartChar: asciitilde
Encoding: 126 126 239
Width: 1192
VWidth: 0
Flags: W
PickledData: "(dp1
S'org.pippin.gimp.org.kernagic'
p2
(dp3
S'lstem'
p4
I0
sS'rstem'
p5
I0
ssS'com.typemytype.robofont.layerData'
p6
(dp7
S'b'
(dp8
S'name'
p9
S'asciitilde'
p10
sS'lib'
p11
(dp12
sS'unicodes'
p13
(tsS'width'
p14
I1192
sS'contours'
p15
(tsS'components'
p16
(tsS'anchors'
p17
(tsss."
HStem: 505 131<677.884 941.412> 653 132<237.487 518.399>
LayerCount: 2
Fore
SplineSet
140 491 m 1
 99 587 l 1
 144 698 230 785 358 785 c 0
 437 785 494 762 594 717 c 1
 689 676 768 636 828 636 c 0
 910 636 990 709 1028 795 c 1
 1075 706 l 1
 1026 582 949 505 826 505 c 0
 757 505 685 534 604 571 c 0
 500 618 425 653 355 653 c 0
 267 653 186 579 140 491 c 1
EndSplineSet
EndChar

StartChar: asterisk
Encoding: 42 42 240
Width: 937
VWidth: 0
Flags: W
PickledData: "(dp1
S'org.pippin.gimp.org.kernagic'
p2
(dp3
S'lstem'
p4
I0
sS'rstem'
p5
I0
ssS'com.typemytype.robofont.layerData'
p6
(dp7
S'b'
(dp8
S'name'
p9
S'asterisk'
p10
sS'lib'
p11
(dp12
sS'unicodes'
p13
(tsS'width'
p14
I937
sS'contours'
p15
(tsS'components'
p16
(tsS'anchors'
p17
(tsss."
HStem: 1436 20G<392 552>
LayerCount: 2
Fore
SplineSet
288 599 m 1
 158 681 l 1
 389 991 l 1
 48 1068 l 1
 90 1215 l 1
 426 1075 l 1
 392 1456 l 1
 552 1456 l 1
 516 1075 l 1
 854 1215 l 1
 896 1068 l 1
 551 991 l 1
 589 940 695 798 788 681 c 1
 731 645 716 635 659 599 c 1
 467 937 l 1
 288 599 l 1
EndSplineSet
EndChar

StartChar: at
Encoding: 64 64 241
Width: 1931
VWidth: 0
Flags: W
PickledData: "(dp1
S'org.pippin.gimp.org.kernagic'
p2
(dp3
S'lstem'
p4
I0
sS'rstem'
p5
I0
ssS'com.typemytype.robofont.layerData'
p6
(dp7
S'b'
(dp8
S'name'
p9
S'at'
p10
sS'lib'
p11
(dp12
sS'unicodes'
p13
(tsS'width'
p14
I1931
sS'contours'
p15
(tsS'components'
p16
(tsS'anchors'
p17
(tsss."
HStem: -202 123<685.948 1249.22> 215 121<770.535 1015.36 1297.96 1501.82> 966 105<881.167 1164.85> 1357 119<740.953 1268.32>
VStem: 147 144<325.874 877.936> 580 138<392.834 782.079> 1637 127<504.599 999.791>
LayerCount: 2
Fore
SplineSet
940 -202 m 0
 471 -202 147 105 147 607 c 0
 147 1107 510 1476 1007 1476 c 0
 1436 1476 1764 1193 1764 744 c 0
 1764 394 1566 215 1395 215 c 0
 1265 215 1188 298 1158 429 c 1
 1109 321 1017 211 876 211 c 0
 688 211 580 366 580 565 c 0
 580 815 730 1071 1014 1071 c 0
 1110 1071 1241 1042 1327 998 c 1
 1299 793 1262 606 1262 480 c 0
 1262 397 1320 336 1395 336 c 0
 1512 336 1637 477 1637 752 c 0
 1637 1092 1428 1357 1000 1357 c 0
 565 1357 291 1028 291 603 c 0
 291 198 523 -79 943 -79 c 0
 1107 -79 1275 -48 1410 38 c 1
 1452 -65 l 1
 1324 -153 1131 -202 940 -202 c 0
893 326 m 0
 1045 326 1093 487 1125 688 c 1
 1168 946 l 1
 1123 956 1059 966 1030 966 c 0
 846 966 718 800 718 575 c 0
 718 427 767 326 893 326 c 0
EndSplineSet
EndChar

StartChar: b
Encoding: 98 98 243
Width: 1192
VWidth: 0
Flags: W
PickledData: "(dp1
S'org.pippin.gimp.org.kernagic'
p2
(dp3
S'lstem'
p4
I0
sS'rstem'
p5
I0
ssS'com.typemytype.robofont.layerData'
p6
(dp7
S'b'
(dp8
S'name'
p9
S'b'
sS'lib'
p10
(dp11
sS'unicodes'
p12
(tsS'width'
p13
I1192
sS'contours'
p14
((dp15
S'points'
p16
((dp17
S'segmentType'
p18
S'line'
p19
sS'x'
I136
sS'smooth'
p20
I00
sS'y'
I-456
s(dp21
g18
S'line'
p22
sS'x'
I300
sg20
I00
sS'y'
I-456
s(dp23
g18
S'line'
p24
sS'x'
I300
sg20
I00
sS'y'
I-68
s(dp25
g18
S'line'
p26
sS'x'
I292
sg20
I00
sS'y'
I206
s(dp27
g18
S'line'
p28
sS'x'
I223
sg20
I00
sS'y'
I198
s(dp29
S'y'
I62
sS'x'
I276
sg20
I00
s(dp30
S'y'
I-20
sS'x'
I407
sg20
I00
s(dp31
g18
S'curve'
p32
sS'x'
I598
sg20
I01
sS'y'
I-20
s(dp33
S'y'
I-20
sS'x'
I881
sg20
I00
s(dp34
S'y'
I210
sS'x'
I1058
sg20
I00
s(dp35
g18
S'curve'
p36
sS'x'
I1058
sg20
I01
sS'y'
I539
s(dp37
S'y'
I878
sS'x'
I1058
sg20
I00
s(dp38
S'y'
I1106
sS'x'
I922
sg20
I00
s(dp39
g18
S'curve'
p40
sS'x'
I629
sg20
I01
sS'y'
I1106
s(dp41
S'y'
I1106
sS'x'
I458
sg20
I00
s(dp42
S'y'
I1016
sS'x'
I325
sg20
I00
s(dp43
g18
S'curve'
p44
sS'x'
I278
sg20
I00
sS'y'
I816
s(dp45
g18
S'line'
p46
sS'x'
I293
sg20
I00
sS'y'
I811
s(dp47
g18
S'line'
p48
sS'x'
I272
sg20
I00
sS'y'
I1082
s(dp49
g18
S'line'
p50
sS'x'
I136
sg20
I00
sS'y'
I1082
stp51
s(dp52
g16
((dp53
g18
S'curve'
p54
sS'x'
I590
sg20
I01
sS'y'
I106
s(dp55
S'y'
I106
sS'x'
I470
sg20
I00
s(dp56
S'y'
I150
sS'x'
I362
sg20
I00
s(dp57
g18
S'curve'
p58
sS'x'
I293
sg20
I00
sS'y'
I246
s(dp59
g18
S'line'
p60
sS'x'
I293
sg20
I01
sS'y'
I558
s(dp61
S'y'
I808
sS'x'
I293
sg20
I00
s(dp62
S'y'
I980
sS'x'
I383
sg20
I00
s(dp63
g18
S'curve'
p64
sS'x'
I610
sg20
I01
sS'y'
I980
s(dp65
S'y'
I980
sS'x'
I824
sg20
I00
s(dp66
S'y'
I791
sS'x'
I888
sg20
I00
s(dp67
g18
S'curve'
p68
sS'x'
I888
sg20
I01
sS'y'
I541
s(dp69
S'y'
I277
sS'x'
I888
sg20
I00
s(dp70
S'y'
I106
sS'x'
I800
sg20
I00
stp71
stp72
sS'components'
p73
(tsS'anchors'
p74
(tsssS'com.typemytype.robofont.guides'
p75
(tsS'com.fontlab.hintData'
p76
(dp77
S'vhints'
p78
((dp79
S'position'
p80
I172
sg13
I168
s(dp81
g80
I172
sg13
I135
s(dp82
g80
I965
sg13
I167
stp83
sS'hhints'
p84
((dp85
g80
I-19
sg13
I127
s(dp86
g80
I954
sg13
I126
stp87
ss."
HStem: -20 126<423.502 765.968> 0 21G<156 288.947> 980 126<464.348 776.504> 1540 20G<156 320>
VStem: 156 164<190.381 825.701 877 1548> 156 131<0 113> 908 169<276.418 821.209>
LayerCount: 2
Fore
SplineSet
610 106 m 0xb2
 820 106 908 277 908 541 c 0
 908 791 844 980 630 980 c 0
 403 980 313 808 313 558 c 2
 313 246 l 1
 382 150 490 106 610 106 c 0xb2
650 1106 m 0
 944 1106 1077 872 1077 542 c 0
 1077 204 909 -20 614 -20 c 0xba
 473 -20 365 35 298 113 c 1
 287 0 l 1
 156 0 l 1x76
 156 1548 l 1
 320 1560 l 1
 320 1105 l 1x7a
 314 877 l 1
 390 1070 531 1106 650 1106 c 0
EndSplineSet
EndChar

StartChar: backslash
Encoding: 92 92 244
Width: 937
VWidth: 0
Flags: W
PickledData: "(dp1
S'org.pippin.gimp.org.kernagic'
p2
(dp3
S'lstem'
p4
I0
sS'rstem'
p5
I0
ssS'com.typemytype.robofont.layerData'
p6
(dp7
S'b'
(dp8
S'name'
p9
S'backslash'
p10
sS'lib'
p11
(dp12
sS'unicodes'
p13
(tsS'width'
p14
I937
sS'contours'
p15
(tsS'components'
p16
(tsS'anchors'
p17
(tsss."
HStem: -20 21G<633.727 771> 1456 20G<97 235.259>
VStem: 97 674
LayerCount: 2
Fore
SplineSet
641 -20 m 1
 97 1476 l 1
 228 1476 l 1
 771 -20 l 1
 641 -20 l 1
EndSplineSet
EndChar

StartChar: bar
Encoding: 124 124 245
Width: 681
VWidth: 0
Flags: W
PickledData: "(dp1
S'org.pippin.gimp.org.kernagic'
p2
(dp3
S'lstem'
p4
I0
sS'rstem'
p5
I0
ssS'com.typemytype.robofont.layerData'
p6
(dp7
S'b'
(dp8
S'name'
p9
S'bar'
p10
sS'lib'
p11
(dp12
sS'unicodes'
p13
(tsS'width'
p14
I681
sS'contours'
p15
(tsS'components'
p16
(tsS'anchors'
p17
(tsss."
HStem: 1540 20G<262 408>
VStem: 262 146<-122 1560>
LayerCount: 2
Fore
SplineSet
262 -122 m 1
 262 1560 l 1
 408 1560 l 1
 408 -122 l 1
 262 -122 l 1
EndSplineSet
EndChar

StartChar: braceleft
Encoding: 123 123 246
Width: 852
VWidth: 0
Flags: W
PickledData: "(dp1
S'org.pippin.gimp.org.kernagic'
p2
(dp3
S'lstem'
p4
I0
sS'rstem'
p5
I0
ssS'com.typemytype.robofont.layerData'
p6
(dp7
S'b'
(dp8
S'name'
p9
S'braceright'
p10
sS'lib'
p11
(dp12
sS'unicodes'
p13
(tsS'width'
p14
I852
sS'contours'
p15
((dp16
S'points'
p17
((dp18
S'segmentType'
p19
S'line'
p20
sS'x'
I63
sS'smooth'
p21
I00
sS'y'
I-255
s(dp22
g19
S'line'
p23
sS'x'
I63
sg21
I00
sS'y'
I-135
s(dp24
g19
S'line'
p25
sS'x'
I351
sg21
I00
sS'y'
I-135
s(dp26
g19
S'line'
p27
sS'x'
I351
sg21
I00
sS'y'
I1355
s(dp28
g19
S'line'
p29
sS'x'
I63
sg21
I00
sS'y'
I1355
s(dp30
g19
S'line'
p31
sS'x'
I63
sg21
I00
sS'y'
I1476
s(dp32
g19
S'line'
p33
sS'x'
I527
sg21
I00
sS'y'
I1476
s(dp34
g19
S'line'
p35
sS'x'
I527
sg21
I00
sS'y'
I-255
stp36
stp37
sS'components'
p38
(tsS'anchors'
p39
(tsss."
HStem: -256 121<591.294 725> 538 142<192 352.125> 1355 121<591.294 725>
VStem: 391 176<-112.041 500.799 720.691 1332.04>
LayerCount: 2
Fore
SplineSet
192 538 m 1
 192 680 l 1
 389 680 391 744 391 970 c 2
 391 1129 l 2
 391 1423 421 1476 725 1476 c 1
 725 1355 l 1
 573 1355 567 1324 567 1116 c 2
 567 884 l 2
 567 706 521 635 369 609 c 1
 521 583 567 512 567 334 c 2
 567 104 l 2
 567 -104 573 -135 725 -135 c 1
 725 -256 l 1
 421 -256 391 -203 391 91 c 2
 391 248 l 1
 391 255 l 2
 391 476 390 538 192 538 c 1
EndSplineSet
EndChar

StartChar: braceright
Encoding: 125 125 247
Width: 852
VWidth: 0
Flags: W
PickledData: "(dp1
S'org.pippin.gimp.org.kernagic'
p2
(dp3
S'lstem'
p4
I0
sS'rstem'
p5
I0
ssS'com.typemytype.robofont.layerData'
p6
(dp7
S'b'
(dp8
S'name'
p9
S'braceright'
p10
sS'lib'
p11
(dp12
sS'unicodes'
p13
(tsS'width'
p14
I852
sS'contours'
p15
((dp16
S'points'
p17
((dp18
S'segmentType'
p19
S'line'
p20
sS'x'
I4
sS'smooth'
p21
I00
sS'y'
I-255
s(dp22
g19
S'line'
p23
sS'x'
I4
sg21
I00
sS'y'
I-135
s(dp24
g19
S'line'
p25
sS'x'
I292
sg21
I00
sS'y'
I-135
s(dp26
g19
S'line'
p27
sS'x'
I292
sg21
I00
sS'y'
I1355
s(dp28
g19
S'line'
p29
sS'x'
I4
sg21
I00
sS'y'
I1355
s(dp30
g19
S'line'
p31
sS'x'
I4
sg21
I00
sS'y'
I1476
s(dp32
g19
S'line'
p33
sS'x'
I468
sg21
I00
sS'y'
I1476
s(dp34
g19
S'line'
p35
sS'x'
I468
sg21
I00
sS'y'
I-255
stp36
stp37
sS'components'
p38
(tsS'anchors'
p39
(tsss."
HStem: -256 121<122 255.706> 538 142<494.875 655> 1355 121<122 255.706>
VStem: 280 176<-112.041 500.799 720.691 1332.04>
LayerCount: 2
Fore
SplineSet
655 538 m 1
 457 538 456 476 456 255 c 2
 456 248 l 1
 456 91 l 2
 456 -203 426 -256 122 -256 c 1
 122 -135 l 1
 274 -135 280 -104 280 104 c 2
 280 334 l 2
 280 512 326 583 478 609 c 1
 326 635 280 706 280 884 c 2
 280 1116 l 2
 280 1324 274 1355 122 1355 c 1
 122 1476 l 1
 426 1476 456 1423 456 1129 c 2
 456 970 l 2
 456 744 458 680 655 680 c 1
 655 538 l 1
EndSplineSet
EndChar

StartChar: bracketleft
Encoding: 91 91 248
Width: 823
VWidth: 0
Flags: W
PickledData: "(dp1
S'org.pippin.gimp.org.kernagic'
p2
(dp3
S'lstem'
p4
I0
sS'rstem'
p5
I0
ssS'com.typemytype.robofont.layerData'
p6
(dp7
S'b'
(dp8
S'name'
p9
S'bracketleft'
p10
sS'lib'
p11
(dp12
sS'unicodes'
p13
(tsS'width'
p14
I823
sS'contours'
p15
(tsS'components'
p16
(tsS'anchors'
p17
(tsss."
HStem: -255 120<393 681> 1355 121<393 681>
VStem: 217 176<-135 1355>
LayerCount: 2
Fore
SplineSet
217 -255 m 1
 217 1476 l 1
 681 1476 l 1
 681 1355 l 1
 393 1355 l 1
 393 -135 l 1
 681 -135 l 1
 681 -255 l 1
 217 -255 l 1
EndSplineSet
EndChar

StartChar: bracketright
Encoding: 93 93 249
Width: 965
VWidth: 0
Flags: W
PickledData: "(dp1
S'org.pippin.gimp.org.kernagic'
p2
(dp3
S'lstem'
p4
I0
sS'rstem'
p5
I0
ssS'com.typemytype.robofont.layerData'
p6
(dp7
S'b'
(dp8
S'name'
p9
S'bracketright'
p10
sS'lib'
p11
(dp12
sS'unicodes'
p13
(tsS'width'
p14
I965
sS'contours'
p15
(tsS'components'
p16
(tsS'anchors'
p17
(tsss."
HStem: -255 120<287 575> 1355 121<287 575>
VStem: 575 176<-135 1355>
LayerCount: 2
Fore
SplineSet
287 -255 m 1
 287 -135 l 1
 575 -135 l 1
 575 1355 l 1
 287 1355 l 1
 287 1476 l 1
 751 1476 l 1
 751 -255 l 1
 287 -255 l 1
EndSplineSet
EndChar

StartChar: breve
Encoding: 728 728 250
Width: 823
VWidth: 0
Flags: W
PickledData: "(dp1
S'org.pippin.gimp.org.kernagic'
p2
(dp3
S'lstem'
p4
I0
sS'rstem'
p5
I0
ssS'com.typemytype.robofont.layerData'
p6
(dp7
S'b'
(dp8
S'name'
p9
S'breve'
p10
sS'lib'
p11
(dp12
sS'unicodes'
p13
(tsS'width'
p14
I823
sS'contours'
p15
(tsS'components'
p16
(tsS'anchors'
p17
(tsss."
HStem: 1117 100<383.463 584.373>
VStem: 252 102<1246.94 1356> 616 102<1246.95 1356>
LayerCount: 2
Fore
SplineSet
483 1117 m 0
 359 1117 252 1186 252 1356 c 1
 354 1356 l 1
 354 1256 415 1217 483 1217 c 0
 551 1217 616 1256 616 1356 c 1
 718 1356 l 1
 718 1186 608 1117 483 1117 c 0
EndSplineSet
EndChar

StartChar: brokenbar
Encoding: 166 166 251
Width: 653
VWidth: 0
Flags: W
PickledData: "(dp1
S'org.pippin.gimp.org.kernagic'
p2
(dp3
S'lstem'
p4
I0
sS'rstem'
p5
I0
ssS'com.typemytype.robofont.layerData'
p6
(dp7
S'b'
(dp8
S'name'
p9
S'brokenbar'
p10
sS'lib'
p11
(dp12
sS'unicodes'
p13
(tsS'width'
p14
I653
sS'contours'
p15
(tsS'components'
p16
(tsS'anchors'
p17
(tsss."
HStem: 1564 20G<268 392>
VStem: 268 124<-208 554 825 1584>
LayerCount: 2
Fore
SplineSet
268 825 m 1
 268 1584 l 1
 392 1584 l 1
 392 825 l 1
 268 825 l 1
268 -208 m 1
 268 554 l 1
 392 554 l 1
 392 -208 l 1
 268 -208 l 1
EndSplineSet
EndChar

StartChar: bullet
Encoding: 8226 8226 252
Width: 908
VWidth: 0
Flags: W
PickledData: "(dp1
S'org.pippin.gimp.org.kernagic'
p2
(dp3
S'lstem'
p4
I0
sS'rstem'
p5
I0
ssS'com.typemytype.robofont.layerData'
p6
(dp7
S'b'
(dp8
S'name'
p9
S'bullet'
p10
sS'lib'
p11
(dp12
sS'unicodes'
p13
(tsS'width'
p14
I908
sS'contours'
p15
(tsS'components'
p16
(tsS'anchors'
p17
(tsss."
HStem: 413 661<288.098 603.175>
VStem: 131 630<571.547 914.36>
LayerCount: 2
Fore
SplineSet
443 413 m 0
 279 413 131 531 131 740 c 0
 131 952 283 1074 448 1074 c 0
 612 1074 761 955 761 745 c 0
 761 534 608 413 443 413 c 0
EndSplineSet
EndChar

StartChar: c
Encoding: 99 99 253
Width: 1079
VWidth: 0
Flags: W
PickledData: "(dp1
S'org.pippin.gimp.org.kernagic'
p2
(dp3
S'lstem'
p4
I0
sS'rstem'
p5
I696
ssS'com.typemytype.robofont.layerData'
p6
(dp7
S'b'
(dp8
S'name'
p9
S'c'
sS'lib'
p10
(dp11
S'org.robofab.postScriptHintData'
p12
(dp13
sg6
(dp14
S'b'
(dp15
g9
S'c'
sg10
(dp16
sS'unicodes'
p17
(tsS'width'
p18
I1038
sS'contours'
p19
((dp20
S'points'
p21
((dp22
S'segmentType'
p23
S'curve'
p24
sS'x'
F611
sS'smooth'
p25
I01
sS'y'
F106
s(dp26
S'y'
F106
sS'x'
F369
sg25
I00
s(dp27
S'y'
F285.86604175100001
sS'x'
F254
sg25
I00
s(dp28
g23
S'curve'
p29
sS'x'
F254
sg25
I01
sS'y'
F524
s(dp30
S'y'
F787.22144522099995
sS'x'
F254
sg25
I00
s(dp31
S'y'
F954
sS'x'
F391
sg25
I00
s(dp32
g23
S'curve'
p33
sS'x'
F590
sg25
I01
sS'y'
F954
s(dp34
S'y'
F954
sS'x'
F718
sg25
I00
s(dp35
S'y'
F920
sS'x'
F778
sg25
I00
s(dp36
g23
S'curve'
p37
sS'x'
F822
sg25
I00
sS'y'
F894
s(dp38
g23
S'line'
p39
sS'x'
F869
sg25
I00
sS'y'
F1008
s(dp40
S'y'
F1041
sS'x'
F815
sg25
I00
s(dp41
S'y'
F1080
sS'x'
F740
sg25
I00
s(dp42
g23
S'curve'
p43
sS'x'
F581
sg25
I01
sS'y'
F1080
s(dp44
S'y'
F1080
sS'x'
F293
sg25
I00
s(dp45
S'y'
F876
sS'x'
F84
sg25
I00
s(dp46
g23
S'curve'
p47
sS'x'
F84
sg25
I01
sS'y'
F524
s(dp48
S'y'
F195
sS'x'
F84
sg25
I00
s(dp49
S'y'
F-20
sS'x'
F276
sg25
I00
s(dp50
g23
S'curve'
p51
sS'x'
F580
sg25
I01
sS'y'
F-20
s(dp52
S'y'
F-20
sS'x'
F722
sg25
I00
s(dp53
S'y'
F23
sS'x'
F827
sg25
I00
s(dp54
g23
S'curve'
p55
sS'x'
F865
sg25
I00
sS'y'
F53
s(dp56
g23
S'line'
p57
sS'x'
F834
sg25
I00
sS'y'
F166
s(dp58
S'y'
F135.000574548
sS'x'
F782
sg25
I00
s(dp59
S'y'
F106
sS'x'
F697
sg25
I00
stp60
stp61
sS'components'
p62
(tsS'anchors'
p63
(tssS'background'
p64
(dp65
g9
S'c'
sg10
(dp66
sg17
(tsg18
I1038
sg19
(tsg62
(tsg63
(tsssS'com.fontlab.hintData'
p67
(dp68
S'vhints'
p69
((dp70
S'position'
p71
I114
sg18
I164
stp72
sS'hhints'
p73
((dp74
g71
I-19
sg18
I128
s(dp75
g71
I952
sg18
I128
stp76
sssg17
(tsg18
I1079
sg19
((dp77
g21
((dp78
g23
S'curve'
p79
sS'x'
I567
sg25
I01
sS'y'
I1107
s(dp80
S'y'
I1107
sS'x'
I271
sg25
I00
s(dp81
S'y'
I887
sS'x'
I87
sg25
I00
s(dp82
g23
S'curve'
p83
sS'x'
I87
sg25
I01
sS'y'
I549
s(dp84
S'y'
I119
sS'x'
I87
sg25
I00
s(dp85
S'y'
I-20
sS'x'
I346
sg25
I00
s(dp86
g23
S'curve'
p87
sS'x'
I583
sg25
I01
sS'y'
I-19
s(dp88
S'y'
I-18
sS'x'
I805
sg25
I00
s(dp89
S'y'
I108
sS'x'
I918
sg25
I00
s(dp90
g23
S'curve'
p91
sS'x'
I957
sg25
I00
sS'y'
I207
s(dp92
g23
S'line'
p93
sS'x'
I851
sg25
I00
sS'y'
I263
s(dp94
g23
S'line'
p95
sS'x'
I836
sg25
I00
sS'y'
I263
s(dp96
S'y'
I183
sS'x'
I793
sg25
I00
s(dp97
S'y'
I106
sS'x'
I723
sg25
I00
s(dp98
g23
S'curve'
p99
sS'x'
I582
sg25
I01
sS'y'
I107
s(dp100
S'y'
I108
sS'x'
I380
sg25
I00
s(dp101
S'y'
I262
sS'x'
I257
sg25
I00
s(dp102
g23
S'curve'
p103
sS'x'
I257
sg25
I01
sS'y'
I544
s(dp104
S'y'
I802
sS'x'
I257
sg25
I00
s(dp105
S'y'
I981
sS'x'
I358
sg25
I00
s(dp106
g23
S'curve'
p107
sS'x'
I574
sg25
I01
sS'y'
I981
s(dp108
S'y'
I981
sS'x'
I715
sg25
I00
s(dp109
S'y'
I915
sS'x'
I785
sg25
I00
s(dp110
g23
S'curve'
p111
sS'x'
I837
sg25
I00
sS'y'
I824
s(dp112
g23
S'line'
p113
sS'x'
I851
sg25
I00
sS'y'
I824
s(dp114
g23
S'line'
p115
sS'x'
I957
sg25
I00
sS'y'
I880
s(dp116
S'y'
I983
sS'x'
I912
sg25
I00
s(dp117
S'y'
I1107
sS'x'
I808
sg25
I00
stp118
stp119
sg62
(tsg63
(tsssS'com.typemytype.robofont.guides'
p120
((dp121
S'angle'
p122
F90
sg9
NsS'magnetic'
p123
I5
sS'isGlobal'
p124
I00
sS'y'
I417
sS'x'
I962
s(dp125
g122
F90
sg9
Nsg123
I5
sg124
I00
sS'y'
I1020
sS'x'
I565
s(dp126
g122
F90
sg9
Nsg123
I5
sg124
I00
sS'y'
I994
sS'x'
I572
stp127
sg67
(dp128
g69
((dp129
g71
I114
sg18
I164
stp130
sg73
((dp131
g71
I-19
sg18
I128
s(dp132
g71
I952
sg18
I128
stp133
ss."
HStem: -20 126<447.465 774.842> 980 126<447.465 769.032>
VStem: 118 170<290.932 795.068>
LayerCount: 2
Fore
SplineSet
603 -20 m 0
 307 -20 118 198 118 543 c 0
 118 888 307 1106 603 1106 c 0
 844 1106 946 982 989 879 c 1
 887 820 l 1
 873 820 l 1
 821 911 751 980 610 980 c 0
 394 980 288 815 288 543 c 0
 288 271 394 106 610 106 c 0
 751 106 820 172 872 263 c 1
 886 263 l 1
 989 207 l 1
 947 104 844 -20 603 -20 c 0
EndSplineSet
EndChar

StartChar: caron
Encoding: 711 711 255
Width: 965
VWidth: 0
Flags: W
PickledData: "(dp1
S'org.pippin.gimp.org.kernagic'
p2
(dp3
S'lstem'
p4
I0
sS'rstem'
p5
I0
ssS'com.typemytype.robofont.layerData'
p6
(dp7
S'b'
(dp8
S'name'
p9
S'caron'
p10
sS'lib'
p11
(dp12
sS'unicodes'
p13
(tsS'width'
p14
I965
sS'contours'
p15
(tsS'components'
p16
(tsS'anchors'
p17
(tsss."
HStem: 1134 334
VStem: 252 662
LayerCount: 2
Fore
SplineSet
484 1134 m 1
 252 1468 l 1
 370 1468 l 1
 574 1232 l 1
 795 1468 l 1
 914 1468 l 1
 669 1134 l 1
 484 1134 l 1
EndSplineSet
EndChar

StartChar: caron.cap
Encoding: 65539 -1 256
Width: 908
VWidth: 0
Flags: W
PickledData: "(dp1
S'org.pippin.gimp.org.kernagic'
p2
(dp3
S'lstem'
p4
I0
sS'rstem'
p5
I0
ssS'com.typemytype.robofont.layerData'
p6
(dp7
S'b'
(dp8
S'name'
p9
S'caron.cap'
p10
sS'lib'
p11
(dp12
sS'unicodes'
p13
(tsS'width'
p14
I908
sS'contours'
p15
(tsS'components'
p16
(tsS'anchors'
p17
(tsss."
HStem: 1097 300
VStem: 252 599
LayerCount: 2
Fore
SplineSet
461 1097 m 1
 252 1397 l 1
 370 1397 l 1
 559 1195 l 1
 732 1397 l 1
 851 1397 l 1
 646 1097 l 1
 461 1097 l 1
EndSplineSet
EndChar

StartChar: cedilla
Encoding: 184 184 261
Width: 766
VWidth: 0
Flags: W
PickledData: "(dp1
S'org.pippin.gimp.org.kernagic'
p2
(dp3
S'lstem'
p4
I0
sS'rstem'
p5
I0
ssS'com.typemytype.robofont.layerData'
p6
(dp7
S'b'
(dp8
S'name'
p9
S'cedilla'
p10
sS'lib'
p11
(dp12
sS'unicodes'
p13
(tsS'width'
p14
I766
sS'contours'
p15
(tsS'components'
p16
(tsS'anchors'
p17
(tsss."
HStem: -387 100<272.049 494.369> -132 89<383.938 501.711>
VStem: 507 140<-271.851 -140.323>
LayerCount: 2
Fore
SplineSet
394 -287 m 0
 461 -287 507 -256 507 -199 c 0
 507 -155 472 -132 413 -132 c 0
 404 -132 393 -133 383 -134 c 1
 383 -60 l 1
 413 -49 444 -43 475 -43 c 0
 565 -43 647 -93 647 -199 c 0
 647 -312 544 -387 399 -387 c 0
 344 -387 295 -376 252 -356 c 1
 282 -264 l 1
 324 -280 362 -287 394 -287 c 0
EndSplineSet
EndChar

StartChar: cent
Encoding: 162 162 262
Width: 1164
VWidth: 0
Flags: W
PickledData: "(dp1
S'org.pippin.gimp.org.kernagic'
p2
(dp3
S'lstem'
p4
I0
sS'rstem'
p5
I0
ssS'com.typemytype.robofont.layerData'
p6
(dp7
S'b'
(dp8
S'name'
p9
S'cent'
p10
sS'lib'
p11
(dp12
sS'unicodes'
p13
(tsS'width'
p14
I1164
sS'contours'
p15
(tsS'components'
p16
(tsS'anchors'
p17
(tsss."
HStem: -20 126<173.465 500.842> 980 126<173.465 495.032>
VStem: -156 170<290.932 795.068> 236 164<-44.6598 62> 236 114<-310 -203.34> 253 164<1042 1136.4> 306 111<1296.6 1391>
LayerCount: 2
Fore
SplineSet
417 1391 m 1xe2
 417 1042 l 1
 253 1042 l 1xe4
 306 1391 l 1
 417 1391 l 1xe2
236 -310 m 1xe8
 236 62 l 1
 400 62 l 1xf0
 350 -310 l 1
 236 -310 l 1xe8
EndSplineSet
Refer: 253 99 N 1 0 0 1 -274 0 2
EndChar

StartChar: circumflex
Encoding: 710 710 263
Width: 937
VWidth: 0
Flags: W
PickledData: "(dp1
S'org.pippin.gimp.org.kernagic'
p2
(dp3
S'lstem'
p4
I0
sS'rstem'
p5
I0
ssS'com.typemytype.robofont.layerData'
p6
(dp7
S'b'
(dp8
S'name'
p9
S'circumflex'
p10
sS'lib'
p11
(dp12
sS'unicodes'
p13
(tsS'width'
p14
I937
sS'contours'
p15
(tsS'components'
p16
(tsS'anchors'
p17
(tsss."
HStem: 1166 301
VStem: 252 615
LayerCount: 2
Fore
SplineSet
252 1166 m 1
 472 1467 l 1
 659 1467 l 1
 867 1166 l 1
 755 1166 l 1
 561 1376 l 1
 363 1166 l 1
 252 1166 l 1
EndSplineSet
EndChar

StartChar: circumflex.cap
Encoding: 65540 -1 264
Width: 965
VWidth: 0
Flags: W
PickledData: "(dp1
S'org.pippin.gimp.org.kernagic'
p2
(dp3
S'lstem'
p4
I0
sS'rstem'
p5
I0
ssS'com.typemytype.robofont.layerData'
p6
(dp7
S'b'
(dp8
S'name'
p9
S'circumflex.cap'
p10
sS'lib'
p11
(dp12
sS'unicodes'
p13
(tsS'width'
p14
I965
sS'contours'
p15
(tsS'components'
p16
(tsS'anchors'
p17
(tsss."
HStem: 1058 299
VStem: 175 619
LayerCount: 2
Fore
SplineSet
575 1357 m 1
 794 1058 l 1
 666 1058 l 1
 477 1259 l 1
 304 1058 l 1
 175 1058 l 1
 390 1357 l 1
 575 1357 l 1
EndSplineSet
EndChar

StartChar: colon
Encoding: 58 58 265
Width: 653
VWidth: 0
Flags: W
PickledData: "(dp1
S'org.pippin.gimp.org.kernagic'
p2
(dp3
S'lstem'
p4
I0
sS'rstem'
p5
I0
ssS'com.typemytype.robofont.layerData'
p6
(dp7
S'b'
(dp8
S'name'
p9
S'colon'
p10
sS'lib'
p11
(dp12
sS'unicodes'
p13
(tsS'width'
p14
I653
sS'contours'
p15
(tsS'components'
p16
(tsS'anchors'
p17
(tsss."
HStem: -10 245<227.12 414.693> 838 245<227.12 414.693>
VStem: 201 238<14.0088 210.095 862.009 1058.09>
LayerCount: 2
Fore
SplineSet
322 -10 m 0
 240 -10 201 50 201 112 c 0
 201 172 239 235 322 235 c 0
 404 235 439 172 439 112 c 0
 439 50 404 -10 322 -10 c 0
322 838 m 0
 240 838 201 898 201 960 c 0
 201 1020 239 1083 322 1083 c 0
 404 1083 439 1020 439 960 c 0
 439 898 404 838 322 838 c 0
EndSplineSet
EndChar

StartChar: comma
Encoding: 44 44 266
Width: 624
VWidth: 0
Flags: W
PickledData: "(dp1
S'org.pippin.gimp.org.kernagic'
p2
(dp3
S'lstem'
p4
I0
sS'rstem'
p5
I0
ssS'com.typemytype.robofont.layerData'
p6
(dp7
S'b'
(dp8
S'name'
p9
S'comma'
p10
sS'lib'
p11
(dp12
sS'unicodes'
p13
(tsS'width'
p14
I624
sS'contours'
p15
(tsS'components'
p16
(tsS'anchors'
p17
(tsss."
HStem: -300 535<235 291>
VStem: 235 173<96.6165 235>
LayerCount: 2
Fore
SplineSet
194 -300 m 1
 235 235 l 1
 408 235 l 1
 408 152 l 1
 291 -300 l 1
 194 -300 l 1
EndSplineSet
EndChar

StartChar: commaaccent
Encoding: 65541 -1 267
Width: 624
VWidth: 0
Flags: W
PickledData: "(dp1
S'org.pippin.gimp.org.kernagic'
p2
(dp3
S'lstem'
p4
I0
sS'rstem'
p5
I0
ssS'com.typemytype.robofont.layerData'
p6
(dp7
S'b'
(dp8
S'name'
p9
S'commaaccent'
p10
sS'lib'
p11
(dp12
sS'unicodes'
p13
(tsS'width'
p14
I624
sS'contours'
p15
(tsS'components'
p16
(tsS'anchors'
p17
(tsss."
HStem: -290 524<235 301.797>
VStem: 235 173<1.18093 234>
LayerCount: 2
Fore
SplineSet
194 -290 m 1
 194 -290 235 159 235 234 c 1
 408 234 l 1
 408 193 l 2
 408 163 291 -290 291 -290 c 1
 194 -290 l 1
EndSplineSet
EndChar

StartChar: copyright
Encoding: 169 169 268
Width: 1704
VWidth: 0
Flags: W
PickledData: "(dp1
S'org.pippin.gimp.org.kernagic'
p2
(dp3
S'lstem'
p4
I0
sS'rstem'
p5
I0
ssS'com.typemytype.robofont.layerData'
p6
(dp7
S'b'
(dp8
S'name'
p9
S'copyright'
p10
sS'lib'
p11
(dp12
sS'unicodes'
p13
(tsS'width'
p14
I1704
sS'contours'
p15
(tsS'components'
p16
(tsS'anchors'
p17
(tsss."
HStem: -20 84<525.258 983.025> 234 95<607.542 973.354> 1119 96<602.912 952.96> 1389 87<509.567 998.704>
VStem: 1 97<474.202 980.4> 295 122<526.79 920.307> 1413 106<474.403 980.4>
LayerCount: 2
Fore
SplineSet
753 -20 m 0
 375 -20 1 236 1 727 c 0
 1 1220 375 1476 753 1476 c 0
 1134 1476 1519 1220 1519 727 c 0
 1519 236 1135 -20 753 -20 c 0
753 64 m 0
 1089 64 1413 296 1413 727 c 0
 1413 1160 1089 1389 753 1389 c 0
 419 1389 98 1160 98 727 c 0
 98 295 419 64 753 64 c 0
773 234 m 0
 514 234 295 436 295 725 c 0
 295 1005 508 1215 765 1215 c 0
 867 1215 965 1186 1053 1127 c 1
 1010 1041 l 1
 936 1094 842 1119 769 1119 c 0
 575 1119 417 958 417 729 c 0
 417 483 576 329 777 329 c 0
 857 329 936 347 1022 400 c 1
 1056 316 l 1
 970 261 873 234 773 234 c 0
EndSplineSet
EndChar

StartChar: currency
Encoding: 164 164 269
Width: 1164
VWidth: 0
Flags: W
PickledData: "(dp1
S'org.pippin.gimp.org.kernagic'
p2
(dp3
S'lstem'
p4
I0
sS'rstem'
p5
I0
ssS'com.typemytype.robofont.layerData'
p6
(dp7
S'b'
(dp8
S'name'
p9
S'currency'
p10
sS'lib'
p11
(dp12
sS'unicodes'
p13
(tsS'width'
p14
I1164
sS'contours'
p15
(tsS'components'
p16
(tsS'anchors'
p17
(tsss."
HStem: 307 91<416.962 737.666> 1041 92<416.962 737.289>
VStem: 175 97<547.885 891.82> 883 96<547.429 890.936>
LayerCount: 2
Fore
SplineSet
577 398 m 0
 766 398 883 546 883 719 c 0
 883 892 765 1041 577 1041 c 0
 390 1041 272 892 272 719 c 0
 272 545 390 398 577 398 c 0
1017 225 m 1
 836 399 l 1
 765 340 676 307 577 307 c 0
 477 307 390 339 318 400 c 1
 138 226 l 1
 75 293 l 1
 256 469 l 1
 202 542 175 627 175 719 c 0
 175 810 202 896 256 969 c 1
 74 1148 l 1
 138 1212 l 1
 317 1039 l 1
 389 1100 479 1133 577 1133 c 0
 675 1133 765 1098 836 1038 c 1
 1017 1212 l 1
 1078 1145 l 1
 898 969 l 1
 952 893 979 808 979 719 c 0
 979 625 952 540 899 469 c 1
 1077 292 l 1
 1017 225 l 1
EndSplineSet
EndChar

StartChar: d
Encoding: 100 100 270
Width: 1192
VWidth: 0
Flags: W
PickledData: "(dp1
S'org.pippin.gimp.org.kernagic'
p2
(dp3
S'lstem'
p4
I0
sS'rstem'
p5
I0
ssS'com.typemytype.robofont.layerData'
p6
(dp7
S'b'
(dp8
S'name'
p9
S'd'
sS'lib'
p10
(dp11
sS'unicodes'
p12
(tsS'width'
p13
I1192
sS'contours'
p14
((dp15
S'points'
p16
((dp17
S'segmentType'
p18
S'line'
p19
sS'x'
I876
sS'smooth'
p20
I00
sS'y'
I287
s(dp21
S'y'
I165
sS'x'
I801
sg20
I00
s(dp22
S'y'
I88
sS'x'
I666
sg20
I00
s(dp23
g18
S'curve'
p24
sS'x'
I501
sg20
I01
sS'y'
I104
s(dp25
S'y'
I113
sS'x'
I408
sg20
I00
s(dp26
S'y'
I167
sS'x'
I330
sg20
I00
s(dp27
g18
S'curve'
p28
sS'x'
I330
sg20
I01
sS'y'
I292
s(dp29
S'y'
I415
sS'x'
I330
sg20
I00
s(dp30
S'y'
I494
sS'x'
I397
sg20
I00
s(dp31
g18
S'curve'
p32
sS'x'
I627
sg20
I01
sS'y'
I494
s(dp33
S'y'
I494
sS'x'
I682
sg20
I00
s(dp34
S'y'
I486
sS'x'
I820
sg20
I00
s(dp35
g18
S'curve'
p36
sS'x'
I897
sg20
I00
sS'y'
I473
s(dp37
g18
S'line'
p38
sS'x'
I852
sg20
I00
sS'y'
I527
s(dp39
g18
S'line'
p40
sS'x'
I852
sg20
I00
sS'y'
I213
stp41
s(dp42
g16
((dp43
g18
S'line'
p44
sS'x'
I852
sg20
I00
sS'y'
I561
s(dp45
g18
S'line'
p46
sS'x'
I896
sg20
I00
sS'y'
I588
s(dp47
S'y'
I601
sS'x'
I810
sg20
I00
s(dp48
S'y'
I607
sS'x'
I672
sg20
I00
s(dp49
g18
S'curve'
p50
sS'x'
I611
sg20
I01
sS'y'
I607
s(dp51
S'y'
I607
sS'x'
I292
sg20
I00
s(dp52
S'y'
I482
sS'x'
I172
sg20
I00
s(dp53
g18
S'curve'
p54
sS'x'
I172
sg20
I01
sS'y'
I293
s(dp55
S'y'
I92
sS'x'
I172
sg20
I00
s(dp56
S'y'
I-11
sS'x'
I302
sg20
I00
s(dp57
g18
S'curve'
p58
sS'x'
I493
sg20
I01
sS'y'
I-20
s(dp59
S'y'
I-29
sS'x'
I689
sg20
I00
s(dp60
S'y'
I45
sS'x'
I822
sg20
I00
s(dp61
g18
S'curve'
p62
sS'x'
I921
sg20
I00
sS'y'
I216
s(dp63
g18
S'line'
p64
sS'x'
I859
sg20
I00
sS'y'
I205
s(dp65
g18
S'line'
p66
sS'x'
I875
sg20
I00
sS'y'
I0
s(dp67
g18
S'line'
p68
sS'x'
I1016
sg20
I00
sS'y'
I0
s(dp69
g18
S'line'
p70
sS'x'
I1016
sg20
I01
sS'y'
I712
s(dp71
S'y'
I1001
sS'x'
I1016
sg20
I00
s(dp72
S'y'
I1106
sS'x'
I849
sg20
I00
s(dp73
g18
S'curve'
p74
sS'x'
I608
sg20
I01
sS'y'
I1106
s(dp75
S'y'
I1106
sS'x'
I401
sg20
I00
s(dp76
S'y'
I1015
sS'x'
I266
sg20
I00
s(dp77
g18
S'curve'
p78
sS'x'
I210
sg20
I00
sS'y'
I869
s(dp79
g18
S'line'
p80
sS'x'
I318
sg20
I00
sS'y'
I804
s(dp81
g18
S'line'
p82
sS'x'
I328
sg20
I00
sS'y'
I805
s(dp83
S'y'
I946
sS'x'
I391
sg20
I00
s(dp84
S'y'
I980
sS'x'
I484
sg20
I00
s(dp85
g18
S'curve'
p86
sS'x'
I618
sg20
I01
sS'y'
I980
s(dp87
S'y'
I980
sS'x'
I781
sg20
I00
s(dp88
S'y'
I902
sS'x'
I852
sg20
I00
s(dp89
g18
S'curve'
p90
sS'x'
I852
sg20
I01
sS'y'
I722
stp91
stp92
sS'components'
p93
(tsS'anchors'
p94
(tsssS'com.fontlab.hintData'
p95
(dp96
S'vhints'
p97
((dp98
S'position'
p99
I114
sg13
I166
s(dp100
g99
I907
sg13
I161
s(dp101
g99
I930
sg13
I138
stp102
sS'hhints'
p103
((dp104
g99
I-19
sg13
I127
s(dp105
g99
I953
sg13
I127
stp106
ss."
HStem: -20 126<434.867 774.525> 0 21G<898.165 1041> 980 123<440.376 770.694> 1539 20G<870 1041>
VStem: 112 170<288.892 800.528> 877 164<178.629 888.568 986 1547> 900 141<0 109>
LayerCount: 2
Fore
SplineSet
582 -20 m 0xba
 276 -20 112 209 112 545 c 0
 112 884 289 1103 580 1103 c 0
 582 1103 584 1103 586 1103 c 0
 589 1103 591 1103 594 1103 c 0
 719 1103 812 1055 875 986 c 1
 870 1154 l 1
 870 1547 l 1
 1041 1559 l 1
 1041 0 l 1
 900 0 l 1x7a
 890 109 l 1
 808 18 683 -20 582 -20 c 0xba
591 980 m 0
 381 980 282 812 282 548 c 0
 282 275 379 106 593 106 c 0
 710 106 810 142 877 222 c 1
 877 840 l 1xbc
 808 936 711 980 591 980 c 0
EndSplineSet
EndChar

StartChar: dagger
Encoding: 8224 8224 271
Width: 1050
VWidth: 0
Flags: W
PickledData: "(dp1
S'org.pippin.gimp.org.kernagic'
p2
(dp3
S'lstem'
p4
I0
sS'rstem'
p5
I0
ssS'com.typemytype.robofont.layerData'
p6
(dp7
S'b'
(dp8
S'name'
p9
S'dagger'
p10
sS'lib'
p11
(dp12
sS'unicodes'
p13
(tsS'width'
p14
I1050
sS'contours'
p15
(tsS'components'
p16
(tsS'anchors'
p17
(tsss."
HStem: 1010 101<179 466 575 866>
VStem: 466 109<118 1010 1111 1494>
LayerCount: 2
Fore
SplineSet
466 118 m 1
 466 1010 l 1
 179 1010 l 1
 179 1111 l 1
 466 1111 l 1
 466 1494 l 1
 573 1494 l 1
 573 1111 l 1
 866 1111 l 1
 866 1010 l 1
 575 1010 l 1
 575 118 l 1
 466 118 l 1
EndSplineSet
EndChar

StartChar: daggerdbl
Encoding: 8225 8225 272
Width: 1022
VWidth: 0
Flags: W
PickledData: "(dp1
S'org.pippin.gimp.org.kernagic'
p2
(dp3
S'lstem'
p4
I0
sS'rstem'
p5
I0
ssS'com.typemytype.robofont.layerData'
p6
(dp7
S'b'
(dp8
S'name'
p9
S'daggerdbl'
p10
sS'lib'
p11
(dp12
sS'unicodes'
p13
(tsS'width'
p14
I1022
sS'contours'
p15
(tsS'components'
p16
(tsS'anchors'
p17
(tsss."
HStem: 452 95<186 462 573 844> 990 100<186 462 573 845> 1455 20G<462 569>
VStem: 462 111<79 452 547 990 1090 1475>
LayerCount: 2
Fore
SplineSet
844 452 m 1
 573 452 l 1
 573 79 l 1
 462 79 l 1
 462 452 l 1
 186 452 l 1
 186 547 l 1
 462 547 l 1
 462 990 l 1
 186 990 l 1
 186 1090 l 1
 462 1090 l 1
 462 1475 l 1
 569 1475 l 1
 569 1090 l 1
 845 1090 l 1
 845 990 l 1
 573 990 l 1
 573 547 l 1
 844 547 l 1
 844 452 l 1
EndSplineSet
EndChar

StartChar: dcroat
Encoding: 273 273 274
Width: 1192
VWidth: 0
Flags: W
PickledData: "(dp1
S'org.pippin.gimp.org.kernagic'
p2
(dp3
S'lstem'
p4
I0
sS'rstem'
p5
I0
ssS'com.typemytype.robofont.layerData'
p6
(dp7
S'b'
(dp8
S'name'
p9
S'dcroat'
p10
sS'lib'
p11
(dp12
sS'unicodes'
p13
(tsS'width'
p14
I1192
sS'contours'
p15
(tsS'components'
p16
(tsS'anchors'
p17
(tsss."
HStem: -20 126<350.867 690.525> 0 21<814.165 957> 980 123<356.376 686.694> 1263 112<67 562> 1539 20<786 957>
VStem: 28 170<288.892 800.528> 793 164<178.629 888.568 986 1547> 816 141<0 109>
LayerCount: 2
Fore
SplineSet
67 1263 m 1x3c
 67 1375 l 1
 562 1375 l 1
 562 1263 l 1
 67 1263 l 1x3c
EndSplineSet
Refer: 270 100 N 1 0 0 1 -84 0 2
EndChar

StartChar: degree
Encoding: 176 176 275
Width: 880
VWidth: 0
Flags: W
PickledData: "(dp1
S'org.pippin.gimp.org.kernagic'
p2
(dp3
S'lstem'
p4
I0
sS'rstem'
p5
I0
ssS'com.typemytype.robofont.layerData'
p6
(dp7
S'b'
(dp8
S'name'
p9
S'degree'
p10
sS'lib'
p11
(dp12
sS'unicodes'
p13
(tsS'width'
p14
I880
sS'contours'
p15
(tsS'components'
p16
(tsS'anchors'
p17
(tsss."
HStem: 889 96<309.369 552.923> 1380 96<309.874 552.153>
VStem: 131 108<1055.43 1310.46> 623 108<1053.89 1310.46>
LayerCount: 2
Fore
SplineSet
430 889 m 0
 273 889 131 1009 131 1184 c 0
 131 1357 273 1476 430 1476 c 0
 590 1476 731 1357 731 1184 c 0
 731 1016 594 889 430 889 c 0
430 985 m 0
 537 985 623 1066 623 1183 c 0
 623 1300 537 1380 431 1380 c 0
 326 1380 239 1300 239 1183 c 0
 239 1065 324 985 430 985 c 0
EndSplineSet
EndChar

StartChar: dieresis
Encoding: 168 168 276
AltUni2: 000308.ffffffff.0
Width: 880
VWidth: 0
Flags: W
PickledData: "(dp1
S'org.pippin.gimp.org.kernagic'
p2
(dp3
S'lstem'
p4
I0
sS'rstem'
p5
I0
ssS'com.typemytype.robofont.layerData'
p6
(dp7
S'b'
(dp8
S'name'
p9
S'dieresis'
p10
sS'lib'
p11
(dp12
sS'unicodes'
p13
(tsS'width'
p14
I880
sS'contours'
p15
(tsS'components'
p16
(tsS'anchors'
p17
(tsss."
HStem: 1284 192<264.85 424.684 627.81 786.917>
VStem: 252 186<1297.2 1463.03> 615 185<1297.2 1463.03>
LayerCount: 2
Fore
SplineSet
345 1284 m 0
 291 1284 252 1324 252 1380 c 0
 252 1437 291 1476 345 1476 c 0
 397 1476 438 1437 438 1380 c 0
 438 1324 397 1284 345 1284 c 0
707 1284 m 0
 654 1284 615 1324 615 1380 c 0
 615 1437 654 1476 707 1476 c 0
 760 1476 800 1437 800 1380 c 0
 800 1324 760 1284 707 1284 c 0
EndSplineSet
EndChar

StartChar: divide
Encoding: 247 247 277
Width: 1164
VWidth: 0
Flags: W
PickledData: "(dp1
S'org.pippin.gimp.org.kernagic'
p2
(dp3
S'lstem'
p4
I0
sS'rstem'
p5
I0
ssS'com.typemytype.robofont.layerData'
p6
(dp7
S'b'
(dp8
S'name'
p9
S'divide'
p10
sS'lib'
p11
(dp12
sS'unicodes'
p13
(tsS'width'
p14
I1164
sS'contours'
p15
(tsS'components'
p16
(tsS'anchors'
p17
(tsss."
HStem: 32 206<486 677> 507 138<105 1056> 892 202<486 679>
VStem: 486 191<32 238 892 1094>
LayerCount: 2
Fore
SplineSet
486 892 m 1
 486 1094 l 1
 679 1094 l 1
 679 892 l 1
 486 892 l 1
105 507 m 1
 105 645 l 1
 1056 645 l 1
 1056 507 l 1
 105 507 l 1
486 32 m 1
 486 238 l 1
 677 238 l 1
 677 32 l 1
 486 32 l 1
EndSplineSet
EndChar

StartChar: dollar
Encoding: 36 36 278
Width: 1221
VWidth: 0
Flags: W
PickledData: "(dp1
S'org.pippin.gimp.org.kernagic'
p2
(dp3
S'lstem'
p4
I0
sS'rstem'
p5
I0
ssS'com.typemytype.robofont.layerData'
p6
(dp7
S'b'
(dp8
S'name'
p9
S'dollar'
p10
sS'lib'
p11
(dp12
sS'unicodes'
p13
(tsS'width'
p14
I1221
sS'contours'
p15
(tsS'components'
p16
(tsS'anchors'
p17
(tsss."
HStem: -20 143<-32.2165 412.102> 1334 142<-1.12324 437.127>
VStem: -279 177<981.273 1239.58> 147 97<-278 -150.108> 187 103<1657.11 1785> 533 165<236.873 523.181>
LayerCount: 2
Fore
SplineSet
147 -278 m 1xf4
 147 61 l 1
 282 61 l 1
 244 -278 l 1
 147 -278 l 1xf4
290 1785 m 1xec
 290 1446 l 1
 149 1446 l 1
 187 1785 l 1
 290 1785 l 1xec
EndSplineSet
Refer: 103 83 N 1 0 0 1 -399 0 2
EndChar

StartChar: dotaccent
Encoding: 729 729 279
Width: 596
VWidth: 0
Flags: W
PickledData: "(dp1
S'org.pippin.gimp.org.kernagic'
p2
(dp3
S'lstem'
p4
I0
sS'rstem'
p5
I0
ssS'com.typemytype.robofont.layerData'
p6
(dp7
S'b'
(dp8
S'name'
p9
S'dotaccent'
p10
sS'lib'
p11
(dp12
sS'unicodes'
p13
(tsS'width'
p14
I596
sS'contours'
p15
(tsS'components'
p16
(tsS'anchors'
p17
(tsss."
HStem: 1179 175<252 403>
VStem: 252 151<1179 1354>
LayerCount: 2
Fore
SplineSet
252 1179 m 1
 252 1354 l 1
 403 1354 l 1
 403 1179 l 1
 252 1179 l 1
EndSplineSet
EndChar

StartChar: dotlessi
Encoding: 305 305 280
Width: 624
VWidth: 0
Flags: W
PickledData: "(dp1
S'org.pippin.gimp.org.kernagic'
p2
(dp3
S'lstem'
p4
I0
sS'rstem'
p5
I0
ssS'com.typemytype.robofont.layerData'
p6
(dp7
S'b'
(dp8
S'name'
p9
S'dotlessi'
p10
sS'lib'
p11
(dp12
sS'unicodes'
p13
(tsS'width'
p14
I624
sS'contours'
p15
(tsS'components'
p16
(tsS'anchors'
p17
(tsss."
HStem: 0 21G<226 390> 1062 20G<226 390>
VStem: 226 164<0 1082>
LayerCount: 2
Fore
SplineSet
226 0 m 1
 226 1082 l 1
 390 1082 l 1
 390 0 l 1
 226 0 l 1
EndSplineSet
EndChar

StartChar: dotlessj
Encoding: 65542 -1 281
Width: 908
VWidth: 0
Flags: W
PickledData: "(dp1
S'org.pippin.gimp.org.kernagic'
p2
(dp3
S'lstem'
p4
I0
sS'rstem'
p5
I0
ssS'com.typemytype.robofont.layerData'
p6
(dp7
S'b'
(dp8
S'name'
p9
S'j'
sS'lib'
p10
(dp11
sS'unicodes'
p12
(tsS'width'
p13
I908
sS'contours'
p14
(tsS'components'
p15
(tsS'anchors'
p16
(tsss."
HStem: -378 131<303.921 349> 1062 20G<501 665>
VStem: 501 164<-195.58 1082>
LayerCount: 2
Fore
SplineSet
306 -378 m 1
 287 -247 l 1
 349 -235 l 1
 498 -205 501 -169 501 21 c 2
 501 1082 l 1
 665 1082 l 1
 665 -10 l 2
 665 -269 585 -344 365 -371 c 2
 306 -378 l 1
EndSplineSet
EndChar

StartChar: e
Encoding: 101 101 282
Width: 1109
VWidth: 0
Flags: W
PickledData: "(dp1
S'org.pippin.gimp.org.kernagic'
p2
(dp3
S'lstem'
p4
I0
sS'rstem'
p5
I747
ssS'com.typemytype.robofont.layerData'
p6
(dp7
S'b'
(dp8
S'name'
p9
S'e'
sS'lib'
p10
(dp11
sS'unicodes'
p12
(tsS'width'
p13
F1109.3586243100001
sS'contours'
p14
((dp15
S'points'
p16
((dp17
S'segmentType'
p18
S'curve'
p19
sS'x'
F853
sS'smooth'
p20
I00
sS'y'
I577
s(dp21
g18
S'line'
p22
sS'x'
F917
sg20
I00
sS'y'
I627
s(dp23
g18
S'line'
p24
sS'x'
F196
sg20
I00
sS'y'
I627
s(dp25
g18
S'line'
p26
sS'x'
F253
sg20
I00
sS'y'
I585
s(dp27
S'y'
I827
sS'x'
F260
sg20
I00
s(dp28
S'y'
I983
sS'x'
F393
sg20
I00
s(dp29
g18
S'curve'
p30
sS'x'
F588
sg20
I01
sS'y'
I980
s(dp31
S'y'
I977
sS'x'
F777
sg20
I00
s(dp32
S'y'
I819
sS'x'
F855
sg20
I00
stp33
s(dp34
g16
((dp35
g18
S'curve'
p36
sS'x'
F596
sg20
I01
sS'y'
I-20
s(dp37
S'y'
I-20
sS'x'
F745
sg20
I00
s(dp38
S'y'
I20
sS'x'
F869
sg20
I00
s(dp39
g18
S'curve'
p40
sS'x'
F960
sg20
I00
sS'y'
I75
s(dp41
g18
S'line'
p42
sS'x'
F925
sg20
I00
sS'y'
I195
s(dp43
S'y'
I145
sS'x'
F831
sg20
I00
s(dp44
S'y'
I106
sS'x'
F731
sg20
I00
s(dp45
g18
S'curve'
p46
sS'x'
F614
sg20
I01
sS'y'
I106
s(dp47
S'y'
I106
sS'x'
F404
sg20
I00
s(dp48
S'y'
I249
sS'x'
F252
sg20
I00
s(dp49
g18
S'curve'
p50
sS'x'
F251
sg20
I00
sS'y'
I567
s(dp51
g18
S'line'
p52
sS'x'
F200
sg20
I00
sS'y'
I516
s(dp53
g18
S'line'
p54
sS'x'
F985
sg20
I00
sS'y'
I516
s(dp55
S'y'
I516
sS'x'
F985
sg20
I00
s(dp56
S'y'
I576
sS'x'
F991
sg20
I00
s(dp57
g18
S'curve'
p58
sS'x'
F991
sg20
I01
sS'y'
I602
s(dp59
S'y'
I914
sS'x'
F991
sg20
I00
s(dp60
S'y'
I1106
sS'x'
F839
sg20
I00
s(dp61
g18
S'curve'
p62
sS'x'
F576
sg20
I01
sS'y'
I1106
s(dp63
S'y'
I1106
sS'x'
F308
sg20
I00
s(dp64
S'y'
I899
sS'x'
F84
sg20
I00
s(dp65
g18
S'curve'
p66
sS'x'
F84
sg20
I01
sS'y'
I538
s(dp67
S'y'
I190
sS'x'
F84
sg20
I00
s(dp68
S'y'
I-20
sS'x'
F309
sg20
I00
stp69
stp70
sS'components'
p71
(tsS'anchors'
p72
(tsssS'com.fontlab.hintData'
p73
(dp74
S'hhints'
p75
((dp76
S'position'
p77
I-19
sg13
I126
s(dp78
g77
I956
sg13
I123
stp79
ss."
HStem: -20 126<458.39 838.719> 516 111<277 871> 980 126<442.645 753.29>
VStem: 105 168<316.981 516 627 779.047> 871 141<627 848.813>
LayerCount: 2
Fore
SplineSet
277 627 m 1
 871 627 l 1
 869 850 784 980 603 980 c 0
 422 980 297 843 277 627 c 1
1004 516 m 1
 273 516 l 1
 289 227 439 106 638 106 c 0
 763 106 840 146 930 197 c 1
 942 197 l 1
 981 84 l 1
 891 24 766 -20 617 -20 c 0
 330 -20 105 190 105 538 c 0
 105 899 329 1106 597 1106 c 0
 853 1106 1012 924 1012 627 c 0
 1012 599 1005 522 1004 516 c 1
EndSplineSet
EndChar

StartChar: eight
Encoding: 56 56 290
Width: 1137
VWidth: 0
Flags: W
PickledData: "(dp1
S'org.pippin.gimp.org.kernagic'
p2
(dp3
S'lstem'
p4
I0
sS'rstem'
p5
I0
ssS'com.typemytype.robofont.layerData'
p6
(dp7
S'b'
(dp8
S'name'
p9
S'eight'
p10
sS'lib'
p11
(dp12
sS'unicodes'
p13
(tsS'width'
p14
I1137
sS'contours'
p15
(tsS'components'
p16
(tsS'anchors'
p17
(tsss."
HStem: -20 131<369.004 773.075> 1350 126<391.517 746.998>
VStem: 97 155<222.453 535.022> 128 160<961.738 1254.54> 848 160<959.451 1254.54> 883 157<213.84 531.445>
LayerCount: 2
Fore
SplineSet
569 -20 m 0xc4
 313 -20 97 104 97 364 c 0xe4
 97 569 211 695 403 763 c 1
 248 815 128 934 128 1115 c 0
 128 1348 314 1476 570 1476 c 0
 826 1476 1008 1348 1008 1115 c 0xd8
 1008 934 898 824 738 765 c 1
 921 704 1040 554 1040 364 c 0
 1040 104 827 -20 569 -20 c 0xc4
569 111 m 0
 782 111 883 198 883 380 c 0
 883 552 750 658 569 698 c 1
 389 658 252 558 252 379 c 0
 252 204 362 111 569 111 c 0
569 818 m 1
 756 860 848 960 848 1120 c 0
 848 1265 738 1350 569 1350 c 0
 401 1350 288 1265 288 1120 c 0xd8
 288 960 384 860 569 818 c 1
EndSplineSet
EndChar

StartChar: ellipsis
Encoding: 8230 8230 291
Width: 1476
VWidth: 0
Flags: W
PickledData: "(dp1
S'org.pippin.gimp.org.kernagic'
p2
(dp3
S'lstem'
p4
I0
sS'rstem'
p5
I0
ssS'com.typemytype.robofont.layerData'
p6
(dp7
S'b'
(dp8
S'name'
p9
S'ellipsis'
p10
sS'lib'
p11
(dp12
sS'unicodes'
p13
(tsS'width'
p14
I1476
sS'contours'
p15
(tsS'components'
p16
(tsS'anchors'
p17
(tsss."
HStem: -12 263<148.742 347.097 630.266 828.62 1110.74 1309.62>
VStem: 118 259<18.5928 221.1> 600 259<18.5928 221.1> 1080 260<18.5928 221.1>
LayerCount: 2
Fore
SplineSet
1210 -12 m 0
 1124 -12 1080 55 1080 120 c 0
 1080 186 1123 251 1210 251 c 0
 1297 251 1340 186 1340 120 c 0
 1340 55 1297 -12 1210 -12 c 0
729 -12 m 0
 643 -12 600 55 600 120 c 0
 600 186 642 251 729 251 c 0
 816 251 859 186 859 120 c 0
 859 55 816 -12 729 -12 c 0
248 -12 m 0
 162 -12 118 55 118 120 c 0
 118 186 161 251 248 251 c 0
 335 251 377 186 377 120 c 0
 377 55 335 -12 248 -12 c 0
EndSplineSet
EndChar

StartChar: emdash
Encoding: 8212 8212 293
Width: 1988
VWidth: 0
Flags: W
PickledData: "(dp1
S'org.pippin.gimp.org.kernagic'
p2
(dp3
S'lstem'
p4
I0
sS'rstem'
p5
I0
ssS'com.typemytype.robofont.layerData'
p6
(dp7
S'b'
(dp8
S'name'
p9
S'emdash'
p10
sS'lib'
p11
(dp12
sS'unicodes'
p13
(tsS'width'
p14
I1988
sS'contours'
p15
(tsS'components'
p16
(tsS'anchors'
p17
(tsss."
HStem: 521 137<-65 2036>
LayerCount: 2
Fore
SplineSet
-65 521 m 1
 -65 658 l 1
 2036 658 l 1
 2036 521 l 1
 -65 521 l 1
EndSplineSet
EndChar

StartChar: endash
Encoding: 8211 8211 294
Width: 1334
VWidth: 0
Flags: W
PickledData: "(dp1
S'org.pippin.gimp.org.kernagic'
p2
(dp3
S'lstem'
p4
I0
sS'rstem'
p5
I0
ssS'com.typemytype.robofont.layerData'
p6
(dp7
S'b'
(dp8
S'name'
p9
S'endash'
p10
sS'lib'
p11
(dp12
sS'unicodes'
p13
(tsS'width'
p14
I1334
sS'contours'
p15
(tsS'components'
p16
(tsS'anchors'
p17
(tsss."
HStem: 521 137<67 1271>
LayerCount: 2
Fore
SplineSet
67 521 m 1
 67 658 l 1
 1271 658 l 1
 1271 521 l 1
 67 521 l 1
EndSplineSet
EndChar

StartChar: eng
Encoding: 331 331 295
Width: 1164
VWidth: 0
Flags: W
PickledData: "(dp1
S'org.pippin.gimp.org.kernagic'
p2
(dp3
S'lstem'
p4
I0
sS'rstem'
p5
I0
ssS'com.typemytype.robofont.layerData'
p6
(dp7
S'b'
(dp8
S'name'
p9
S'eng'
p10
sS'lib'
p11
(dp12
sS'unicodes'
p13
(tsS'width'
p14
I1164
sS'contours'
p15
(tsS'components'
p16
(tsS'anchors'
p17
(tsss."
HStem: -282 153<627 806.838> 984 130<465.946 769.494> 1073 20G<163 309.36>
VStem: 163 167<7 847.918> 163 144<971.521 1093> 844 166<-94.9408 903.698>
LayerCount: 2
Fore
SplineSet
627 -282 m 1xcc
 619 -129 l 1
 654 -129 l 2
 826 -129 844 -100 844 119 c 2
 844 689 l 2
 844 871 805 984 635 984 c 0
 447 984 368 883 337 750 c 1
 333 706 330 661 330 612 c 2
 330 7 l 1
 163 7 l 1xd4
 163 1093 l 1
 307 1093 l 1xac
 326 932 l 1
 401 1055 511 1114 663 1114 c 0
 907 1114 1010 965 1010 670 c 2
 1010 172 l 2
 1010 -129 970 -282 694 -282 c 2
 627 -282 l 1xcc
EndSplineSet
EndChar

StartChar: equal
Encoding: 61 61 297
Width: 1050
VWidth: 0
Flags: W
PickledData: "(dp1
S'org.pippin.gimp.org.kernagic'
p2
(dp3
S'lstem'
p4
I0
sS'rstem'
p5
I0
ssS'com.typemytype.robofont.layerData'
p6
(dp7
S'b'
(dp8
S'name'
p9
S'equal'
p10
sS'lib'
p11
(dp12
sS'unicodes'
p13
(tsS'width'
p14
I1050
sS'contours'
p15
(tsS'components'
p16
(tsS'anchors'
p17
(tsss."
HStem: 409 147<131 928> 792 147<131 928>
LayerCount: 2
Fore
SplineSet
131 409 m 1
 131 556 l 1
 928 556 l 1
 928 409 l 1
 131 409 l 1
131 792 m 1
 131 939 l 1
 928 939 l 1
 928 792 l 1
 131 792 l 1
EndSplineSet
EndChar

StartChar: eth
Encoding: 240 240 298
Width: 1221
VWidth: 0
Flags: W
PickledData: "(dp1
S'org.pippin.gimp.org.kernagic'
p2
(dp3
S'lstem'
p4
I0
sS'rstem'
p5
I0
ssS'com.typemytype.robofont.layerData'
p6
(dp7
S'b'
(dp8
S'name'
p9
S'eth'
p10
sS'lib'
p11
(dp12
sS'unicodes'
p13
(tsS'width'
p14
I1221
sS'contours'
p15
(tsS'components'
p16
(tsS'anchors'
p17
(tsss."
HStem: -20 129<432.882 783.117> 854 123<426.706 767.492> 1567 20G<229 434 806.393 866.972>
VStem: 105 159<294.227 679.59> 947 148<284.877 677.138>
LayerCount: 2
Fore
SplineSet
600 -20 m 0
 276 -20 105 222 105 490 c 0
 105 782 305 977 585 977 c 0
 733 977 799 916 859 870 c 1
 806 970 706 1104 524 1285 c 1
 268 1184 l 1
 221 1294 l 1
 445 1382 l 1
 229 1587 l 1
 414 1587 l 1
 569 1432 l 1
 858 1544 l 1
 906 1437 l 1
 653 1340 l 1
 845 1132 944 1001 1010 872 c 0
 1061 771 1095 630 1095 492 c 0
 1095 203 932 -20 600 -20 c 0
606 109 m 0
 831 109 947 263 947 499 c 0
 947 681 824 854 600 854 c 0
 388 854 264 697 264 489 c 0
 264 295 375 109 606 109 c 0
EndSplineSet
EndChar

StartChar: exclam
Encoding: 33 33 299
Width: 710
VWidth: 0
Flags: W
PickledData: "(dp1
S'org.pippin.gimp.org.kernagic'
p2
(dp3
S'lstem'
p4
I0
sS'rstem'
p5
I0
ssS'com.typemytype.robofont.layerData'
p6
(dp7
S'b'
(dp8
S'name'
p9
S'exclam'
p10
sS'lib'
p11
(dp12
sS'unicodes'
p13
(tsS'width'
p14
I710
sS'contours'
p15
(tsS'components'
p16
(tsS'anchors'
p17
(tsss."
HStem: -13 235<252.489 437.511> 1437 20G<253 429>
VStem: 230 230<9.04297 200.01> 253 176<1111.06 1457>
LayerCount: 2
Fore
SplineSet
311 429 m 1xd0
 253 1335 l 1
 253 1457 l 1
 429 1457 l 1
 429 1335 l 1
 377 429 l 1
 311 429 l 1xd0
345 -13 m 0
 265 -13 230 47 230 105 c 0
 230 162 265 222 345 222 c 0
 425 222 460 162 460 105 c 0xe0
 460 45 425 -13 345 -13 c 0
EndSplineSet
EndChar

StartChar: f
Encoding: 102 102 301
Width: 743
VWidth: 0
Flags: W
PickledData: "(dp1
S'org.pippin.gimp.org.kernagic'
p2
(dp3
S'lstem'
p4
I182
sS'rstem'
p5
I417
ssS'com.typemytype.robofont.layerData'
p6
(dp7
S'b'
(dp8
S'name'
p9
S'f'
sS'lib'
p10
(dp11
sS'unicodes'
p12
(tsS'width'
p13
I743
sS'contours'
p14
((dp15
S'points'
p16
((dp17
S'segmentType'
p18
S'line'
p19
sS'x'
I610
sS'smooth'
p20
I01
sS'y'
I1517
s(dp21
S'y'
I1517
sS'x'
I311
sg20
I00
s(dp22
S'y'
I1440
sS'x'
I269
sg20
I00
s(dp23
g18
S'curve'
p24
sS'x'
I269
sg20
I01
sS'y'
I1184
s(dp25
g18
S'line'
p26
sS'x'
I269
sg20
I00
sS'y'
I490
s(dp27
g18
S'line'
p28
sS'x'
I299
sg20
I00
sS'y'
I529
s(dp29
g18
S'line'
p30
sS'x'
I97
sg20
I00
sS'y'
I529
s(dp31
g18
S'line'
p32
sS'x'
I101
sg20
I00
sS'y'
I436
s(dp33
g18
S'line'
p34
sS'x'
I303
sg20
I00
sS'y'
I427
s(dp35
g18
S'line'
p36
sS'x'
I270
sg20
I00
sS'y'
I458
s(dp37
g18
S'line'
p38
sS'x'
I300
sg20
I00
sS'y'
I137
s(dp39
g18
S'line'
p40
sS'x'
I433
sg20
I00
sS'y'
I127
s(dp41
g18
S'line'
p42
sS'x'
I433
sg20
I00
sS'y'
I463
s(dp43
g18
S'line'
p44
sS'x'
I400
sg20
I00
sS'y'
I427
s(dp45
g18
S'line'
p46
sS'x'
I712
sg20
I00
sS'y'
I427
s(dp47
g18
S'line'
p48
sS'x'
I712
sg20
I00
sS'y'
I529
s(dp49
g18
S'line'
p50
sS'x'
I400
sg20
I00
sS'y'
I529
s(dp51
g18
S'line'
p52
sS'x'
I433
sg20
I00
sS'y'
I489
s(dp53
g18
S'line'
p54
sS'x'
I433
sg20
I01
sS'y'
I1184
s(dp55
S'y'
I1359
sS'x'
I433
sg20
I00
s(dp56
S'y'
I1389
sS'x'
I438
sg20
I00
s(dp57
g18
S'curve'
p58
sS'x'
I603
sg20
I01
sS'y'
I1396
s(dp59
g18
S'line'
p60
sS'x'
I689
sg20
I00
sS'y'
I1400
s(dp61
g18
S'line'
p62
sS'x'
I697
sg20
I00
sS'y'
I1517
stp63
stp64
sS'components'
p65
(tsS'anchors'
p66
(tsssS'com.fontlab.hintData'
p67
(dp68
S'vhints'
p69
((dp70
S'position'
p71
I269
sg13
I166
stp72
sS'hhints'
p73
((dp74
g71
I952
sg13
I89
s(dp75
g71
I1358
sg13
I122
stp76
ss."
HStem: 0 21G<264 428> 980 102<94.656 264 428 703> 980 86<75 264> 1393 124<463.468 709.502>
VStem: 264 164<0 980 1082 1351.9>
LayerCount: 2
Fore
SplineSet
719 1501 m 1xb8
 707 1386 l 1
 707 1386 640 1393 605 1393 c 0
 460 1393 428 1351 428 1162 c 2
 428 1082 l 1
 703 1082 l 1
 703 980 l 1
 428 980 l 1
 428 0 l 1
 264 0 l 1
 264 980 l 1xd8
 70 980 l 1
 75 1066 l 1
 264 1079 l 1
 264 1162 l 2
 264 1460 370 1517 565 1517 c 0
 635 1517 719 1501 719 1501 c 1xb8
EndSplineSet
EndChar

StartChar: five
Encoding: 53 53 302
Width: 1136
VWidth: 0
Flags: W
PickledData: "(dp1
S'org.pippin.gimp.org.kernagic'
p2
(dp3
S'lstem'
p4
I0
sS'rstem'
p5
I0
ssS'com.typemytype.robofont.layerData'
p6
(dp7
S'b'
(dp8
S'name'
p9
S'five'
p10
sS'lib'
p11
(dp12
sS'unicodes'
p13
(tsS'width'
p14
I1136
sS'contours'
p15
((dp16
S'points'
p17
((dp18
S'segmentType'
p19
S'curve'
p20
sS'x'
I540
sS'smooth'
p21
I01
sS'y'
I-20
s(dp22
S'y'
I-20
sS'x'
I813
sg21
I00
s(dp23
S'y'
I152
sS'x'
I1011
sg21
I00
s(dp24
g19
S'curve'
p25
sS'x'
I1011
sg21
I01
sS'y'
I472
s(dp26
S'y'
I730
sS'x'
I1011
sg21
I00
s(dp27
S'y'
I939
sS'x'
I865
sg21
I00
s(dp28
g19
S'curve'
p29
sS'x'
I583
sg21
I01
sS'y'
I947
s(dp30
S'y'
I951
sS'x'
I449
sg21
I00
s(dp31
S'y'
I882
sS'x'
I324
sg21
I00
s(dp32
g19
S'curve'
p33
sS'x'
I261
sg21
I00
sS'y'
I777
s(dp34
g19
S'line'
p35
sS'x'
I297
sg21
I00
sS'y'
I755
s(dp36
g19
S'line'
p37
sS'x'
I325
sg21
I00
sS'y'
I1321
s(dp38
g19
S'line'
p39
sS'x'
I924
sg21
I00
sS'y'
I1321
s(dp40
g19
S'line'
p41
sS'x'
I942
sg21
I00
sS'y'
I1456
s(dp42
g19
S'line'
p43
sS'x'
I184
sg21
I00
sS'y'
I1456
s(dp44
g19
S'line'
p45
sS'x'
I156
sg21
I00
sS'y'
I684
s(dp46
g19
S'line'
p47
sS'x'
I290
sg21
I00
sS'y'
I667
s(dp48
S'y'
I779
sS'x'
I355
sg21
I00
s(dp49
S'y'
I810
sS'x'
I464
sg21
I00
s(dp50
g19
S'curve'
p51
sS'x'
I557
sg21
I01
sS'y'
I809
s(dp52
S'y'
I807
sS'x'
I763
sg21
I00
s(dp53
S'y'
I650
sS'x'
I851
sg21
I00
s(dp54
g19
S'curve'
p55
sS'x'
I851
sg21
I01
sS'y'
I469
s(dp56
S'y'
I247
sS'x'
I851
sg21
I00
s(dp57
S'y'
I123
sS'x'
I736
sg21
I00
s(dp58
g19
S'curve'
p59
sS'x'
I541
sg21
I01
sS'y'
I123
s(dp60
S'y'
I123
sS'x'
I390
sg21
I00
s(dp61
S'y'
I181
sS'x'
I296
sg21
I00
s(dp62
g19
S'curve'
p63
sS'x'
I222
sg21
I00
sS'y'
I294
s(dp64
g19
S'line'
p65
sS'x'
I207
sg21
I00
sS'y'
I294
s(dp66
g19
S'line'
p67
sS'x'
I108
sg21
I00
sS'y'
I214
s(dp68
S'y'
I84
sS'x'
I179
sg21
I00
s(dp69
S'y'
I-20
sS'x'
I318
sg21
I00
stp70
stp71
sS'components'
p72
(tsS'anchors'
p73
(tsss."
HStem: -20 144<361.261 709.547> 809 126<427.683 739.938> 1321 135<405 917>
VStem: 855 160<274.647 679.766>
LayerCount: 2
Fore
SplineSet
855 461 m 0
 855 683 763 809 595 809 c 0
 498 809 393 766 324 680 c 1
 203 702 l 1
 264 1456 l 1
 935 1456 l 1
 917 1321 l 1
 405 1321 l 1
 349 820 l 1
 413 900 487 931 626 935 c 1
 811 935 1015 795 1015 470 c 0
 1015 467 1015 464 1015 461 c 0
 1015 143 794 -20 540 -20 c 0
 318 -20 179 100 122 196 c 1
 221 290 l 1
 236 290 l 1
 317 181 391 124 542 124 c 0
 724 124 855 243 855 461 c 0
EndSplineSet
EndChar

StartChar: four
Encoding: 52 52 303
Width: 1136
VWidth: 0
Flags: W
PickledData: "(dp1
S'org.pippin.gimp.org.kernagic'
p2
(dp3
S'lstem'
p4
I0
sS'rstem'
p5
I0
ssS'com.typemytype.robofont.layerData'
p6
(dp7
S'b'
(dp8
S'name'
p9
S'four'
p10
sS'lib'
p11
(dp12
sS'unicodes'
p13
(tsS'width'
p14
I1136
sS'contours'
p15
(tsS'components'
p16
(tsS'anchors'
p17
(tsss."
HStem: 0 21G<740 898> 377 136<266 740 898 1055> 1436 20G<715.971 898>
VStem: 740 158<0 377 513 1246>
LayerCount: 2
Fore
SplineSet
266 513 m 1
 740 513 l 1
 740 1246 l 1
 266 513 l 1
740 0 m 1
 740 377 l 1
 166 377 l 1
 116 515 l 1
 729 1456 l 1
 898 1456 l 1
 898 513 l 1
 1067 513 l 1
 1055 377 l 1
 898 377 l 1
 898 0 l 1
 740 0 l 1
EndSplineSet
EndChar

StartChar: fraction
Encoding: 8260 8260 304
Width: 1050
VWidth: 0
Flags: W
PickledData: "(dp1
S'org.pippin.gimp.org.kernagic'
p2
(dp3
S'lstem'
p4
I0
sS'rstem'
p5
I0
ssS'com.typemytype.robofont.layerData'
p6
(dp7
S'b'
(dp8
S'name'
p9
S'fraction'
p10
sS'lib'
p11
(dp12
sS'unicodes'
p13
(tsS'width'
p14
I1050
sS'contours'
p15
(tsS'components'
p16
(tsS'anchors'
p17
(tsss."
HStem: 0 21G<116 263.294>
LayerCount: 2
Fore
SplineSet
116 0 m 1
 895 1496 l 1
 1023 1496 l 1
 253 0 l 1
 116 0 l 1
EndSplineSet
EndChar

StartChar: g
Encoding: 103 103 305
Width: 1192
VWidth: 0
Flags: W
PickledData: "(dp1
S'org.pippin.gimp.org.kernagic'
p2
(dp3
S'lstem'
p4
I0
sS'rstem'
p5
I0
ssS'com.typemytype.robofont.layerData'
p6
(dp7
S'b'
(dp8
S'name'
p9
S'g'
sS'lib'
p10
(dp11
sS'unicodes'
p12
(tsS'width'
p13
I1192
sS'contours'
p14
((dp15
S'points'
p16
((dp17
S'segmentType'
p18
S'curve'
p19
sS'x'
I562
sS'smooth'
p20
I01
sS'y'
I980
s(dp21
S'y'
I980
sS'x'
I682
sg20
I00
s(dp22
S'y'
I936
sS'x'
I779
sg20
I00
s(dp23
g18
S'curve'
p24
sS'x'
I848
sg20
I00
sS'y'
I840
s(dp25
g18
S'line'
p26
sS'x'
I848
sg20
I00
sS'y'
I228
s(dp27
S'y'
I147
sS'x'
I789
sg20
I00
s(dp28
S'y'
I106
sS'x'
I683
sg20
I00
s(dp29
g18
S'curve'
p30
sS'x'
I564
sg20
I01
sS'y'
I106
s(dp31
S'y'
I106
sS'x'
I350
sg20
I00
s(dp32
S'y'
I272
sS'x'
I253
sg20
I00
s(dp33
g18
S'curve'
p34
sS'x'
I253
sg20
I01
sS'y'
I545
s(dp35
S'y'
I809
sS'x'
I253
sg20
I00
s(dp36
S'y'
I980
sS'x'
I352
sg20
I00
stp37
s(dp38
g16
((dp39
g18
S'curve'
p40
sS'x'
I558
sg20
I01
sS'y'
I1106
s(dp41
S'y'
I1106
sS'x'
I263
sg20
I00
s(dp42
S'y'
I882
sS'x'
I84
sg20
I00
s(dp43
g18
S'curve'
p44
sS'x'
I84
sg20
I01
sS'y'
I544
s(dp45
S'y'
I206
sS'x'
I84
sg20
I00
s(dp46
S'y'
I-22
sS'x'
I250
sg20
I00
s(dp47
g18
S'curve'
p48
sS'x'
I560
sg20
I01
sS'y'
I-20
s(dp49
S'y'
I-19
sS'x'
I672
sg20
I00
s(dp50
S'y'
I17
sS'x'
I844
sg20
I00
s(dp51
g18
S'curve'
p52
sS'x'
I918
sg20
I00
sS'y'
I198
s(dp53
g18
S'line'
p54
sS'x'
I847
sg20
I00
sS'y'
I203
s(dp55
g18
S'line'
p56
sS'x'
I841
sg20
I00
sS'y'
I-19
s(dp57
g18
S'line'
p58
sS'x'
I841
sg20
I00
sS'y'
I-456
s(dp59
g18
S'line'
p60
sS'x'
I1005
sg20
I00
sS'y'
I-456
s(dp61
g18
S'line'
p62
sS'x'
I1005
sg20
I00
sS'y'
I1082
s(dp63
g18
S'line'
p64
sS'x'
I869
sg20
I00
sS'y'
I1082
s(dp65
g18
S'line'
p66
sS'x'
I854
sg20
I00
sS'y'
I886
s(dp67
g18
S'line'
p68
sS'x'
I913
sg20
I00
sS'y'
I885
s(dp69
S'y'
I1003
sS'x'
I861
sg20
I00
s(dp70
S'y'
I1106
sS'x'
I743
sg20
I00
stp71
stp72
sS'components'
p73
(tsS'anchors'
p74
(tsssS'com.fontlab.hintData'
p75
(dp76
S'vhints'
p77
((dp78
S'position'
p79
I108
sg13
I166
s(dp80
g79
I929
sg13
I163
stp81
sS'hhints'
p82
((dp83
g79
I-457
sg13
I130
s(dp84
g79
I14
sg13
I127
s(dp85
g79
I953
sg13
I127
stp86
ss."
HStem: -484 133<297.809 754.782> -427 133<244 401.77> -20 126<435.111 783.524> 980 126<432.358 769.868> 1062 20G<895.559 1033>
VStem: 112 169<287.245 799.17> 876 157<-216.777 90 183.6 888.568> 897 136<971 1082>
LayerCount: 2
Fore
SplineSet
584 -20 m 0xa6
 277 -20 112 207 112 544 c 0
 112 882 291 1106 586 1106 c 0xb6
 724 1106 825 1049 889 971 c 1
 897 1082 l 1
 1033 1082 l 1x2d
 1033 58 l 2
 1033 -305 910 -484 552 -484 c 0xae
 431 -484 311 -458 230 -427 c 1
 244 -294 l 1
 266 -294 l 1x66
 348 -330 462 -351 556 -351 c 0
 764 -351 877 -268 877 10 c 2
 877 90 l 1
 791 0 672 -20 584 -20 c 0xa6
590 980 m 0
 380 980 281 809 281 545 c 0
 281 272 378 106 592 106 c 0
 711 106 817 147 876 228 c 1
 876 840 l 1
 807 936 710 980 590 980 c 0
EndSplineSet
EndChar

StartChar: germandbls
Encoding: 223 223 310
Width: 1278
VWidth: 0
Flags: W
PickledData: "(dp1
S'org.pippin.gimp.org.kernagic'
p2
(dp3
S'lstem'
p4
I0
sS'rstem'
p5
I0
ssS'com.typemytype.robofont.layerData'
p6
(dp7
S'b'
(dp8
S'name'
p9
S'germandbls'
p10
sS'lib'
p11
(dp12
sS'unicodes'
p13
(tsS'width'
p14
I1278
sS'contours'
p15
(tsS'components'
p16
(tsS'anchors'
p17
(tsss."
HStem: -20 134<602.32 951.88> 1 21G<169 333> 1429 131<452.043 768.335>
VStem: 169 164<1 1305.86> 624 152<753.112 913.336> 828 157<1092.54 1368.74> 1008 160<169.603 409.688>
LayerCount: 2
Fore
SplineSet
333 1 m 1x7e
 169 1 l 1x7e
 169 1088 l 2
 169 1382 321 1560 618 1560 c 0
 842 1560 985 1433 985 1244 c 0
 985 1029 776 917 776 824 c 0
 776 705 1168 592 1168 294 c 0
 1168 102 1046 -20 846 -20 c 0
 720 -20 581 18 503 58 c 1
 547 183 l 1
 603 153 716 114 827 114 c 0xbe
 955 114 1008 199 1008 291 c 0
 1008 506 624 611 624 809 c 0
 624 977 828 1037 828 1245 c 0
 828 1354 760 1429 623 1429 c 0
 436 1429 333 1336 333 1092 c 2
 333 1 l 1x7e
EndSplineSet
EndChar

StartChar: grave
Encoding: 96 96 311
Width: 795
VWidth: 0
Flags: W
PickledData: "(dp1
S'org.pippin.gimp.org.kernagic'
p2
(dp3
S'lstem'
p4
I0
sS'rstem'
p5
I0
ssS'com.typemytype.robofont.layerData'
p6
(dp7
S'b'
(dp8
S'name'
p9
S'grave'
p10
sS'lib'
p11
(dp12
sS'unicodes'
p13
(tsS'width'
p14
I795
sS'contours'
p15
(tsS'components'
p16
(tsS'anchors'
p17
(tsss."
HStem: 1044 412
VStem: 252 354
LayerCount: 2
Fore
SplineSet
606 1044 m 1
 509 1044 l 1
 252 1422 l 1
 252 1456 l 1
 423 1456 l 1
 606 1044 l 1
EndSplineSet
EndChar

StartChar: grave.cap
Encoding: 65543 -1 312
Width: 880
VWidth: 0
Flags: W
PickledData: "(dp1
S'org.pippin.gimp.org.kernagic'
p2
(dp3
S'lstem'
p4
I0
sS'rstem'
p5
I0
ssS'com.typemytype.robofont.layerData'
p6
(dp7
S'b'
(dp8
S'name'
p9
S'grave.cap'
p10
sS'lib'
p11
(dp12
sS'unicodes'
p13
(tsS'width'
p14
I880
sS'contours'
p15
(tsS'components'
p16
(tsS'anchors'
p17
(tsss."
HStem: 1058 299
VStem: 252 434
LayerCount: 2
Fore
SplineSet
552 1058 m 1
 252 1357 l 1
 440 1357 l 1
 686 1058 l 1
 552 1058 l 1
EndSplineSet
EndChar

StartChar: gravecomb
Encoding: 768 768 313
Width: 823
VWidth: 0
Flags: W
PickledData: "(dp1
S'org.pippin.gimp.org.kernagic'
p2
(dp3
S'lstem'
p4
I0
sS'rstem'
p5
I0
ssS'com.typemytype.robofont.layerData'
p6
(dp7
S'b'
(dp8
S'name'
p9
S'gravecomb'
p10
sS'lib'
p11
(dp12
sS'unicodes'
p13
(tsS'width'
p14
I823
sS'contours'
p15
(tsS'components'
p16
(tsS'anchors'
p17
(tsss."
HStem: 1058 412
VStem: 252 364
LayerCount: 2
Fore
SplineSet
522 1058 m 1
 252 1470 l 1
 440 1470 l 1
 616 1058 l 1
 522 1058 l 1
EndSplineSet
EndChar

StartChar: greater
Encoding: 62 62 314
Width: 1107
VWidth: 0
Flags: W
PickledData: "(dp1
S'org.pippin.gimp.org.kernagic'
p2
(dp3
S'lstem'
p4
I0
sS'rstem'
p5
I0
ssS'com.typemytype.robofont.layerData'
p6
(dp7
S'b'
(dp8
S'name'
p9
S'greater'
p10
sS'lib'
p11
(dp12
sS'unicodes'
p13
(tsS'width'
p14
I1107
sS'contours'
p15
(tsS'components'
p16
(tsS'anchors'
p17
(tsss."
LayerCount: 2
Fore
SplineSet
93 141 m 1
 93 286 l 1
 830 640 l 1
 95 1032 l 1
 95 1175 l 1
 1023 679 l 1
 1023 589 l 1
 93 141 l 1
EndSplineSet
EndChar

StartChar: greaterequal
Encoding: 8805 8805 315
Width: 1192
VWidth: 0
Flags: W
PickledData: "(dp1
S'org.pippin.gimp.org.kernagic'
p2
(dp3
S'lstem'
p4
I0
sS'rstem'
p5
I0
ssS'com.typemytype.robofont.layerData'
p6
(dp7
S'b'
(dp8
S'name'
p9
S'greaterequal'
p10
sS'lib'
p11
(dp12
sS'unicodes'
p13
(tsS'width'
p14
I1192
sS'contours'
p15
(tsS'components'
p16
(tsS'anchors'
p17
(tsss."
HStem: 8 125<128 1062>
LayerCount: 2
Fore
SplineSet
128 8 m 1
 128 133 l 1
 1062 134 l 1
 1062 8 l 1
 128 8 l 1
158 236 m 1
 158 373 l 1
 868 758 l 1
 162 1169 l 1
 162 1309 l 1
 1043 798 l 1
 1043 718 l 1
 158 236 l 1
EndSplineSet
EndChar

StartChar: guillemotleft
Encoding: 171 171 316
Width: 994
VWidth: 0
Flags: W
PickledData: "(dp1
S'org.pippin.gimp.org.kernagic'
p2
(dp3
S'lstem'
p4
I0
sS'rstem'
p5
I0
ssS'com.typemytype.robofont.layerData'
p6
(dp7
S'b'
(dp8
S'name'
p9
S'guillemotleft'
p10
sS'lib'
p11
(dp12
sS'unicodes'
p13
(tsS'width'
p14
I994
sS'contours'
p15
(tsS'components'
p16
(tsS'anchors'
p17
(tsss."
LayerCount: 2
Fore
SplineSet
370 148 m 1
 86 549 l 1
 374 953 l 1
 535 953 l 1
 251 552 l 1
 527 148 l 1
 370 148 l 1
723 148 m 1
 439 549 l 1
 726 953 l 1
 887 953 l 1
 603 552 l 1
 880 148 l 1
 723 148 l 1
EndSplineSet
EndChar

StartChar: guillemotright
Encoding: 187 187 317
Width: 994
VWidth: 0
Flags: W
PickledData: "(dp1
S'org.pippin.gimp.org.kernagic'
p2
(dp3
S'lstem'
p4
I0
sS'rstem'
p5
I0
ssS'com.typemytype.robofont.layerData'
p6
(dp7
S'b'
(dp8
S'name'
p9
S'guillemotright'
p10
sS'lib'
p11
(dp12
sS'unicodes'
p13
(tsS'width'
p14
I994
sS'contours'
p15
(tsS'components'
p16
(tsS'anchors'
p17
(tsss."
LayerCount: 2
Fore
SplineSet
250 148 m 1
 93 148 l 1
 370 552 l 1
 86 953 l 1
 247 953 l 1
 534 549 l 1
 250 148 l 1
603 148 m 1
 446 148 l 1
 722 552 l 1
 438 953 l 1
 599 953 l 1
 887 549 l 1
 603 148 l 1
EndSplineSet
EndChar

StartChar: guilsinglleft
Encoding: 8249 8249 318
Width: 766
VWidth: 0
Flags: W
PickledData: "(dp1
S'org.pippin.gimp.org.kernagic'
p2
(dp3
S'lstem'
p4
I0
sS'rstem'
p5
I0
ssS'com.typemytype.robofont.layerData'
p6
(dp7
S'b'
(dp8
S'name'
p9
S'guilsinglleft'
p10
sS'lib'
p11
(dp12
sS'unicodes'
p13
(tsS'width'
p14
I766
sS'contours'
p15
(tsS'components'
p16
(tsS'anchors'
p17
(tsss."
VStem: 150 458
LayerCount: 2
Fore
SplineSet
608 1001 m 1
 323 569 l 1
 602 148 l 1
 443 148 l 1
 150 570 l 1
 448 1001 l 1
 608 1001 l 1
EndSplineSet
EndChar

StartChar: guilsinglright
Encoding: 8250 8250 319
Width: 766
VWidth: 0
Flags: W
PickledData: "(dp1
S'org.pippin.gimp.org.kernagic'
p2
(dp3
S'lstem'
p4
I0
sS'rstem'
p5
I0
ssS'com.typemytype.robofont.layerData'
p6
(dp7
S'b'
(dp8
S'name'
p9
S'guilsinglright'
p10
sS'lib'
p11
(dp12
sS'unicodes'
p13
(tsS'width'
p14
I766
sS'contours'
p15
(tsS'components'
p16
(tsS'anchors'
p17
(tsss."
VStem: 150 458
LayerCount: 2
Fore
SplineSet
150 1001 m 1
 310 1001 l 1
 608 570 l 1
 315 148 l 1
 156 148 l 1
 435 569 l 1
 150 1001 l 1
EndSplineSet
EndChar

StartChar: h
Encoding: 104 104 320
Width: 1192
VWidth: 0
Flags: W
PickledData: "(dp1
S'org.pippin.gimp.org.kernagic'
p2
(dp3
S'lstem'
p4
I0
sS'rstem'
p5
I0
ssS'com.typemytype.robofont.layerData'
p6
(dp7
S'b'
(dp8
S'name'
p9
S'h'
sS'lib'
p10
(dp11
sS'unicodes'
p12
(tsS'width'
p13
I1192
sS'contours'
p14
((dp15
S'points'
p16
((dp17
S'segmentType'
p18
S'line'
p19
sS'x'
F153
sS'smooth'
p20
I00
sS'y'
F0
s(dp21
g18
S'line'
p22
sS'x'
F316
sg20
I00
sS'y'
F0
s(dp23
g18
S'line'
p24
sS'x'
F316
sg20
I01
sS'y'
F593
s(dp25
S'y'
F782
sS'x'
F316
sg20
I00
s(dp26
S'y'
F980
sS'x'
F392
sg20
I00
s(dp27
g18
S'curve'
p28
sS'x'
F646
sg20
I01
sS'y'
F980
s(dp29
S'y'
F980
sS'x'
F808
sg20
I00
s(dp30
S'y'
F873
sS'x'
F868
sg20
I00
s(dp31
g18
S'curve'
p32
sS'x'
F868
sg20
I01
sS'y'
F664
s(dp33
g18
S'line'
p34
sS'x'
F868
sg20
I00
sS'y'
F0
s(dp35
g18
S'line'
p36
sS'x'
F1034
sg20
I00
sS'y'
F0
s(dp37
g18
S'line'
p38
sS'x'
F1034
sg20
I01
sS'y'
F670
s(dp39
S'y'
F948
sS'x'
F1034
sg20
I00
s(dp40
S'y'
F1106
sS'x'
F905
sg20
I00
s(dp41
g18
S'curve'
p42
sS'x'
F673
sg20
I01
sS'y'
F1106
s(dp43
S'y'
F1106
sS'x'
F523
sg20
I00
s(dp44
S'y'
F1048
sS'x'
F387
sg20
I00
s(dp45
g18
S'curve'
p46
sS'x'
F311
sg20
I00
sS'y'
F928
s(dp47
g18
S'line'
p48
sS'x'
F317
sg20
I00
sS'y'
F1146
s(dp49
g18
S'line'
p50
sS'x'
F317
sg20
I00
sS'y'
F1560
s(dp51
g18
S'line'
p52
sS'x'
F153
sg20
I00
sS'y'
F1547
stp53
stp54
sS'components'
p55
(tsS'anchors'
p56
(tsssS'com.fontlab.hintData'
p57
(dp58
S'vhints'
p59
((dp60
S'position'
p61
I172
sg13
I165
s(dp62
g61
I875
sg13
I166
stp63
sS'hhints'
p64
((dp65
g61
I953
sg13
I126
stp66
ss."
HStem: 0 21G<163 326 878 1044> 980 126<481.647 795.399> 1540 20G<163 327>
VStem: 163 163<0 813.921 881 1547> 878 166<0 884.871>
LayerCount: 2
Fore
SplineSet
163 0 m 1
 163 1547 l 1
 327 1560 l 1
 327 1146 l 1
 321 881 l 1
 398 1056 536 1106 683 1106 c 0
 915 1106 1044 948 1044 670 c 2
 1044 0 l 1
 878 0 l 1
 878 664 l 2
 878 873 818 980 656 980 c 0
 402 980 326 782 326 593 c 2
 326 0 l 1
 163 0 l 1
EndSplineSet
EndChar

StartChar: hungarumlaut
Encoding: 733 733 323
Width: 880
VWidth: 0
Flags: W
PickledData: "(dp1
S'org.pippin.gimp.org.kernagic'
p2
(dp3
S'lstem'
p4
I0
sS'rstem'
p5
I0
ssS'com.typemytype.robofont.layerData'
p6
(dp7
S'b'
(dp8
S'name'
p9
S'hungarumlaut'
p10
sS'lib'
p11
(dp12
sS'unicodes'
p13
(tsS'width'
p14
I880
sS'contours'
p15
(tsS'components'
p16
(tsS'anchors'
p17
(tsss."
HStem: 1058 412
VStem: 201 625
LayerCount: 2
Fore
SplineSet
457 1058 m 1
 638 1470 l 1
 826 1470 l 1
 543 1058 l 1
 457 1058 l 1
201 1058 m 1
 351 1470 l 1
 527 1470 l 1
 285 1058 l 1
 201 1058 l 1
EndSplineSet
EndChar

StartChar: hungarumlaut.cap
Encoding: 65544 -1 324
Width: 880
VWidth: 0
Flags: W
PickledData: "(dp1
S'org.pippin.gimp.org.kernagic'
p2
(dp3
S'lstem'
p4
I0
sS'rstem'
p5
I0
ssS'com.typemytype.robofont.layerData'
p6
(dp7
S'b'
(dp8
S'name'
p9
S'hungarumlaut.cap'
p10
sS'lib'
p11
(dp12
sS'unicodes'
p13
(tsS'width'
p14
I880
sS'contours'
p15
(tsS'components'
p16
(tsS'anchors'
p17
(tsss."
HStem: 1058 330
VStem: 182 662
LayerCount: 2
Fore
SplineSet
438 1058 m 1
 679 1388 l 1
 844 1388 l 1
 554 1058 l 1
 438 1058 l 1
182 1058 m 1
 412 1388 l 1
 568 1388 l 1
 296 1058 l 1
 182 1058 l 1
EndSplineSet
EndChar

StartChar: hyphen
Encoding: 45 45 325
Width: 852
VWidth: 0
Flags: W
PickledData: "(dp1
S'org.pippin.gimp.org.kernagic'
p2
(dp3
S'lstem'
p4
I0
sS'rstem'
p5
I0
ssS'com.typemytype.robofont.layerData'
p6
(dp7
S'b'
(dp8
S'name'
p9
S'hyphen'
p10
sS'lib'
p11
(dp12
sS'unicodes'
p13
(tsS'width'
p14
I852
sS'contours'
p15
(tsS'components'
p16
(tsS'anchors'
p17
(tsss."
HStem: 535 155<175 666>
VStem: 175 491<535 690>
LayerCount: 2
Fore
SplineSet
175 535 m 1
 175 690 l 1
 666 690 l 1
 666 535 l 1
 175 535 l 1
EndSplineSet
EndChar

StartChar: i
Encoding: 105 105 326
Width: 586
VWidth: 0
Flags: W
PickledData: "(dp1
S'org.pippin.gimp.org.kernagic'
p2
(dp3
S'lstem'
p4
I0
sS'rstem'
p5
I136
ssS'com.typemytype.robofont.layerData'
p6
(dp7
S'b'
(dp8
S'name'
p9
S'i'
sS'lib'
p10
(dp11
sS'unicodes'
p12
(tsS'width'
p13
I586
sS'contours'
p14
(tsS'components'
p15
(tsS'anchors'
p16
(tsss."
HStem: 0 21G<216 380> 1062 20G<216 380> 1304 211<210.918 377.871>
VStem: 199 191<1314.05 1505.21> 216 164<0 1082>
LayerCount: 2
Fore
SplineSet
295 1515 m 0xf0
 363 1515 390 1477 390 1411 c 0
 390 1343 363 1304 295 1304 c 0
 225 1304 199 1343 199 1411 c 0
 199 1477 225 1515 295 1515 c 0xf0
216 0 m 1xe8
 216 1082 l 1
 380 1082 l 1
 380 0 l 1
 216 0 l 1xe8
EndSplineSet
EndChar

StartChar: infinity
Encoding: 8734 8734 335
Width: 1647
VWidth: 0
Flags: W
PickledData: "(dp1
S'org.pippin.gimp.org.kernagic'
p2
(dp3
S'lstem'
p4
I0
sS'rstem'
p5
I0
ssS'com.typemytype.robofont.layerData'
p6
(dp7
S'b'
(dp8
S'name'
p9
S'infinity'
p10
sS'lib'
p11
(dp12
sS'unicodes'
p13
(tsS'width'
p14
I1647
sS'contours'
p15
(tsS'components'
p16
(tsS'anchors'
p17
(tsss."
HStem: 247 127<284.131 554.116 1087.23 1360.58> 886 123<275.545 556.673 1087.21 1357.88>
VStem: 67 111<485.279 785.447> 1451 120<476.811 792.98>
LayerCount: 2
Fore
SplineSet
1227 374 m 0
 1379 374 1451 499 1451 657 c 0
 1451 781 1356 886 1223 886 c 0
 1088 886 979 763 892 631 c 1
 1012 463 1103 374 1227 374 c 0
418 374 m 0
 547 374 660 491 752 629 c 1
 661 776 551 886 411 886 c 0
 267 886 178 769 178 631 c 0
 178 502 274 374 418 374 c 0
416 247 m 0
 195 247 67 434 67 652 c 0
 67 851 220 1009 412 1009 c 0
 579 1009 702 900 822 737 c 1
 934 895 1057 1009 1227 1009 c 0
 1448 1009 1571 852 1571 634 c 0
 1571 406 1419 247 1225 247 c 0
 1077 247 955 336 822 518 c 1
 705 360 579 247 416 247 c 0
EndSplineSet
EndChar

StartChar: integral
Encoding: 8747 8747 336
Width: 994
VWidth: 0
Flags: W
PickledData: "(dp1
S'org.pippin.gimp.org.kernagic'
p2
(dp3
S'lstem'
p4
I0
sS'rstem'
p5
I0
ssS'com.typemytype.robofont.layerData'
p6
(dp7
S'b'
(dp8
S'name'
p9
S'integral'
p10
sS'lib'
p11
(dp12
sS'unicodes'
p13
(tsS'width'
p14
I994
sS'contours'
p15
(tsS'components'
p16
(tsS'anchors'
p17
(tsss."
HStem: -411 94<287 490.747> 1423 94<698.499 887.129>
VStem: 539 116<-267.362 1381.11>
LayerCount: 2
Fore
SplineSet
398 -411 m 0
 365 -411 328 -407 287 -398 c 1
 287 -303 l 1
 323 -313 356 -317 383 -317 c 0
 520 -317 539 -204 539 -40 c 2
 539 1153 l 2
 539 1394 601 1517 772 1517 c 0
 806 1517 845 1512 889 1502 c 1
 889 1407 l 1
 853 1418 823 1423 796 1423 c 0
 679 1423 655 1322 655 1162 c 2
 655 -32 l 2
 655 -278 579 -411 398 -411 c 0
EndSplineSet
EndChar

StartChar: j
Encoding: 106 106 339
Width: 624
VWidth: 0
Flags: W
PickledData: "(dp1
S'org.pippin.gimp.org.kernagic'
p2
(dp3
S'lstem'
p4
I211
sS'rstem'
p5
I0
ssS'com.typemytype.robofont.layerData'
p6
(dp7
S'b'
(dp8
S'name'
p9
S'j'
sS'lib'
p10
(dp11
sS'unicodes'
p12
(tsS'width'
p13
I624
sS'contours'
p14
((dp15
S'points'
p16
((dp17
S'segmentType'
p18
S'line'
p19
sS'x'
I108
sS'smooth'
p20
I01
sS'y'
I-362
s(dp21
S'y'
I-289
sS'x'
I309
sg20
I00
s(dp22
S'y'
I-261
sS'x'
I385
sg20
I00
s(dp23
g18
S'curve'
p24
sS'x'
I385
sg20
I01
sS'y'
I-5
s(dp25
S'y'
I-5
sS'x'
I385
sg20
I00
s(dp26
S'y'
I-5
sS'x'
I221
sg20
I00
s(dp27
g18
S'curve'
p28
sS'x'
I221
sg20
I01
sS'y'
I-5
s(dp29
S'y'
I-162
sS'x'
I221
sg20
I00
s(dp30
S'y'
I-170
sS'x'
I192
sg20
I00
s(dp31
g18
S'curve'
p32
sS'x'
I95
sg20
I01
sS'y'
I-212
s(dp33
g18
S'line'
p34
sS'x'
I-18
sg20
I00
sS'y'
I-261
s(dp35
g18
S'line'
p36
sS'x'
I34
sg20
I00
sS'y'
I-389
stp37
stp38
sS'components'
p39
(tsS'anchors'
p40
(tsss."
HStem: -386 21G<81.0661 150.667> 1062 20G<276 440> 1304 211<280.918 447.871>
VStem: 269 191<1314.05 1505.21> 276 164<-174.533 1082>
LayerCount: 2
Fore
SplineSet
276 -5 m 2xe8
 276 1082 l 1
 440 1082 l 1
 440 719 440 357 440 -6 c 0
 440 -261 367 -296 163 -362 c 2
 89 -386 l 1
 41 -265 l 1
 154 -219 l 2
 251 -179 276 -162 276 -5 c 2xe8
365 1515 m 0
 433 1515 460 1477 460 1411 c 0
 460 1343 433 1304 365 1304 c 0
 295 1304 269 1343 269 1411 c 0xf0
 269 1477 295 1515 365 1515 c 0
EndSplineSet
EndChar

StartChar: k
Encoding: 107 107 341
Width: 1079
VWidth: 0
Flags: W
PickledData: "(dp1
S'org.pippin.gimp.org.kernagic'
p2
(dp3
S'lstem'
p4
I0
sS'rstem'
p5
I671
ssS'com.typemytype.robofont.layerData'
p6
(dp7
S'b'
(dp8
S'name'
p9
S'k'
sS'lib'
p10
(dp11
sS'unicodes'
p12
(tsS'width'
p13
I1079
sS'contours'
p14
((dp15
S'points'
p16
((dp17
S'segmentType'
p18
S'line'
p19
sS'x'
F157
sS'smooth'
p20
I00
sS'y'
F0
s(dp21
g18
S'line'
p22
sS'x'
F321
sg20
I00
sS'y'
F0
s(dp23
g18
S'line'
p24
sS'x'
F321
sg20
I00
sS'y'
F397
s(dp25
g18
S'line'
p26
sS'x'
F450
sg20
I00
sS'y'
F507
s(dp27
g18
S'line'
p28
sS'x'
F870
sg20
I00
sS'y'
F0
s(dp29
g18
S'line'
p30
sS'x'
F1065
sg20
I00
sS'y'
F0
s(dp31
g18
S'line'
p32
sS'x'
F565
sg20
I00
sS'y'
F589
s(dp33
g18
S'line'
p34
sS'x'
F1027
sg20
I00
sS'y'
F1082
s(dp35
g18
S'line'
p36
sS'x'
F826
sg20
I00
sS'y'
F1082
s(dp37
g18
S'line'
p38
sS'x'
F315
sg20
I00
sS'y'
F534
s(dp39
g18
S'line'
p40
sS'x'
F321
sg20
I00
sS'y'
F757
s(dp41
g18
S'line'
p42
sS'x'
F321
sg20
I00
sS'y'
F1560
s(dp43
g18
S'line'
p44
sS'x'
F157
sg20
I00
sS'y'
F1547
stp45
stp46
sS'components'
p47
(tsS'anchors'
p48
(tsss."
HStem: 0 21G<156 320 852.432 1048> 1062 20G<806.248 1014> 1540 20G<156 320>
VStem: 156 164<0 397 537 1547>
LayerCount: 2
Fore
SplineSet
156 0 m 1
 156 1547 l 1
 320 1560 l 1
 320 757 l 1
 314 537 l 1
 825 1082 l 1
 1014 1082 l 1
 1014 1058 l 1
 564 589 l 1
 1048 24 l 1
 1048 0 l 1
 869 0 l 1
 449 507 l 1
 320 397 l 1
 320 0 l 1
 156 0 l 1
EndSplineSet
EndChar

StartChar: l
Encoding: 108 108 343
Width: 635
VWidth: 0
Flags: W
PickledData: "(dp1
S'org.pippin.gimp.org.kernagic'
p2
(dp3
S'lstem'
p4
I0
sS'rstem'
p5
I238
ssS'com.typemytype.robofont.layerData'
p6
(dp7
S'b'
(dp8
S'name'
p9
S'l'
sS'lib'
p10
(dp11
sS'unicodes'
p12
(tsS'width'
p13
I635
sS'contours'
p14
((dp15
S'points'
p16
((dp17
S'segmentType'
p18
S'curve'
p19
sS'x'
F480
sS'smooth'
p20
I01
sS'y'
F-8
s(dp21
g18
S'line'
p22
sS'x'
F539
sg20
I00
sS'y'
F-8
s(dp23
g18
S'line'
p24
sS'x'
F548
sg20
I00
sS'y'
F114
s(dp25
g18
S'line'
p26
sS'x'
F519
sg20
I01
sS'y'
F116
s(dp27
S'y'
F123
sS'x'
F346
sg20
I00
s(dp28
S'y'
F138
sS'x'
F313
sg20
I00
s(dp29
g18
S'curve'
p30
sS'x'
F313
sg20
I01
sS'y'
F310
s(dp31
g18
S'line'
p32
sS'x'
F313
sg20
I00
sS'y'
F1560
s(dp33
g18
S'line'
p34
sS'x'
F149
sg20
I00
sS'y'
F1548
s(dp35
g18
S'line'
p36
sS'x'
F149
sg20
I01
sS'y'
F311
s(dp37
S'y'
F45
sS'x'
F149
sg20
I00
s(dp38
S'y'
F-8
sS'x'
F264
sg20
I00
stp39
stp40
sS'components'
p41
(tsS'anchors'
p42
(tsssS'com.fontlab.hintData'
p43
(dp44
S'vhints'
p45
((dp46
S'position'
p47
I172
sg13
I166
stp48
sS'hhints'
p49
((dp50
g47
I-12
sg13
I122
stp51
ss."
HStem: -8 122<484 523> 1540 20G<175 339>
VStem: 175 164<143.875 1548>
LayerCount: 2
Fore
SplineSet
455 -8 m 2
 274 -8 175 39 175 305 c 2
 175 1548 l 1
 339 1560 l 1
 339 310 l 2
 339 138 359 127 484 118 c 2
 537 114 l 1
 523 -8 l 1
 455 -8 l 2
EndSplineSet
EndChar

StartChar: less
Encoding: 60 60 348
Width: 1107
VWidth: 0
Flags: W
PickledData: "(dp1
S'org.pippin.gimp.org.kernagic'
p2
(dp3
S'lstem'
p4
I0
sS'rstem'
p5
I0
ssS'com.typemytype.robofont.layerData'
p6
(dp7
S'b'
(dp8
S'name'
p9
S'less'
p10
sS'lib'
p11
(dp12
sS'unicodes'
p13
(tsS'width'
p14
I1107
sS'contours'
p15
(tsS'components'
p16
(tsS'anchors'
p17
(tsss."
LayerCount: 2
Fore
SplineSet
1010 135 m 1
 80 591 l 1
 80 680 l 1
 1010 1169 l 1
 1010 1026 l 1
 265 640 l 1
 1010 280 l 1
 1010 135 l 1
EndSplineSet
EndChar

StartChar: lessequal
Encoding: 8804 8804 349
Width: 1192
VWidth: 0
Flags: W
PickledData: "(dp1
S'org.pippin.gimp.org.kernagic'
p2
(dp3
S'lstem'
p4
I0
sS'rstem'
p5
I0
ssS'com.typemytype.robofont.layerData'
p6
(dp7
S'b'
(dp8
S'name'
p9
S'lessequal'
p10
sS'lib'
p11
(dp12
sS'unicodes'
p13
(tsS'width'
p14
I1192
sS'contours'
p15
(tsS'components'
p16
(tsS'anchors'
p17
(tsss."
HStem: 1 120<109 1050>
LayerCount: 2
Fore
SplineSet
109 1 m 1
 109 121 l 1
 1050 121 l 1
 1050 1 l 1
 109 1 l 1
1021 258 m 1
 144 729 l 1
 144 811 l 1
 1021 1306 l 1
 1021 1165 l 1
 322 771 l 1
 1021 397 l 1
 1021 258 l 1
EndSplineSet
EndChar

StartChar: logicalnot
Encoding: 172 172 350
Width: 1249
VWidth: 0
Flags: W
PickledData: "(dp1
S'org.pippin.gimp.org.kernagic'
p2
(dp3
S'lstem'
p4
I0
sS'rstem'
p5
I0
ssS'com.typemytype.robofont.layerData'
p6
(dp7
S'b'
(dp8
S'name'
p9
S'logicalnot'
p10
sS'lib'
p11
(dp12
sS'unicodes'
p13
(tsS'width'
p14
I1249
sS'contours'
p15
(tsS'components'
p16
(tsS'anchors'
p17
(tsss."
HStem: 676 128<105 940>
VStem: 940 121<253 676>
LayerCount: 2
Fore
SplineSet
940 253 m 1
 940 676 l 1
 105 676 l 1
 105 804 l 1
 1061 804 l 1
 1061 253 l 1
 940 253 l 1
EndSplineSet
EndChar

StartChar: lozenge
Encoding: 9674 9674 351
Width: 1164
VWidth: 0
Flags: W
PickledData: "(dp1
S'org.pippin.gimp.org.kernagic'
p2
(dp3
S'lstem'
p4
I0
sS'rstem'
p5
I0
ssS'com.typemytype.robofont.layerData'
p6
(dp7
S'b'
(dp8
S'name'
p9
S'lozenge'
p10
sS'lib'
p11
(dp12
sS'unicodes'
p13
(tsS'width'
p14
I1164
sS'contours'
p15
(tsS'components'
p16
(tsS'anchors'
p17
(tsss."
HStem: 1565 20G<526.853 648>
LayerCount: 2
Fore
SplineSet
584 133 m 1
 898 767 l 1
 590 1397 l 1
 270 769 l 1
 584 133 l 1
530 -47 m 1
 122 767 l 1
 537 1585 l 1
 638 1585 l 1
 1046 769 l 1
 630 -47 l 1
 530 -47 l 1
EndSplineSet
EndChar

StartChar: m
Encoding: 109 109 353
Width: 1789
VWidth: 0
Flags: W
PickledData: "(dp1
S'org.pippin.gimp.org.kernagic'
p2
(dp3
S'lstem'
p4
I0
sS'rstem'
p5
I0
ssS'com.typemytype.robofont.layerData'
p6
(dp7
S'b'
(dp8
S'name'
p9
S'm'
sS'lib'
p10
(dp11
sS'unicodes'
p12
(tsS'width'
p13
I1789
sS'contours'
p14
((dp15
S'points'
p16
((dp17
S'segmentType'
p18
S'line'
p19
sS'x'
I132
sS'smooth'
p20
I00
sS'y'
I0
s(dp21
g18
S'line'
p22
sS'x'
I296
sg20
I00
sS'y'
I0
s(dp23
g18
S'line'
p24
sS'x'
I296
sg20
I01
sS'y'
I611
s(dp25
S'y'
I808
sS'x'
I296
sg20
I00
s(dp26
S'y'
I980
sS'x'
I391
sg20
I00
s(dp27
g18
S'curve'
p28
sS'x'
I627
sg20
I01
sS'y'
I980
s(dp29
S'y'
I980
sS'x'
I797
sg20
I00
s(dp30
S'y'
I851
sS'x'
I846
sg20
I00
s(dp31
g18
S'curve'
p32
sS'x'
I846
sg20
I01
sS'y'
I669
s(dp33
g18
S'line'
p34
sS'x'
I846
sg20
I00
sS'y'
I0
s(dp35
g18
S'line'
p36
sS'x'
I1010
sg20
I00
sS'y'
I0
s(dp37
g18
S'line'
p38
sS'x'
I1010
sg20
I01
sS'y'
I650
s(dp39
S'y'
I945
sS'x'
I1010
sg20
I00
s(dp40
S'y'
I1106
sS'x'
I900
sg20
I00
s(dp41
g18
S'curve'
p42
sS'x'
I656
sg20
I01
sS'y'
I1106
s(dp43
S'y'
I1106
sS'x'
I473
sg20
I00
s(dp44
S'y'
I1032
sS'x'
I337
sg20
I00
s(dp45
g18
S'curve'
p46
sS'x'
I274
sg20
I00
sS'y'
I833
s(dp47
g18
S'line'
p48
sS'x'
I290
sg20
I00
sS'y'
I826
s(dp49
g18
S'line'
p50
sS'x'
I268
sg20
I00
sS'y'
I1082
s(dp51
g18
S'line'
p52
sS'x'
I132
sg20
I00
sS'y'
I1082
stp53
stp54
sS'components'
p55
(tsS'anchors'
p56
(tsssS'com.fontlab.hintData'
p57
(dp58
S'vhints'
p59
((dp60
S'position'
p61
I172
sg13
I166
s(dp62
g61
I172
sg13
I134
s(dp63
g61
I817
sg13
I166
s(dp64
g61
I1451
sg13
I166
stp65
sS'hhints'
p66
((dp67
g61
I953
sg13
I127
stp68
ss."
HStem: 0 21G<150 314 820 984 1490 1654> 980 126<465.342 732.712 1149.65 1407.11> 1062 20G<150 287.751>
VStem: 150 164<0 795.417> 150 136<918.268 1082> 820 164<0 796.196> 1490 164<0 884.21>
LayerCount: 2
Fore
SplineSet
150 0 m 1xd6
 150 1082 l 1
 286 1082 l 1xae
 305 865 l 1
 373 1038 498 1106 636 1106 c 0
 805 1106 912 1002 951 845 c 1
 1025 1030 1159 1106 1311 1106 c 0
 1531 1106 1654 965 1654 699 c 2
 1654 0 l 1
 1490 0 l 1
 1490 646 l 2
 1490 801 1464 980 1285 980 c 0
 1151 980 984 849 984 593 c 2
 984 0 l 1
 820 0 l 1
 820 609 l 2
 820 864 761 980 609 980 c 0
 439 980 340 830 314 639 c 1
 314 0 l 1
 150 0 l 1xd6
EndSplineSet
EndChar

StartChar: macron
Encoding: 175 175 354
Width: 908
VWidth: 0
Flags: W
PickledData: "(dp1
S'org.pippin.gimp.org.kernagic'
p2
(dp3
S'lstem'
p4
I0
sS'rstem'
p5
I0
ssS'com.typemytype.robofont.layerData'
p6
(dp7
S'b'
(dp8
S'name'
p9
S'macron'
p10
sS'lib'
p11
(dp12
sS'unicodes'
p13
(tsS'width'
p14
I908
sS'contours'
p15
(tsS'components'
p16
(tsS'anchors'
p17
(tsss."
HStem: 1231 122<252 837>
VStem: 252 585<1231 1353>
LayerCount: 2
Fore
SplineSet
252 1231 m 1
 252 1353 l 1
 837 1353 l 1
 837 1231 l 1
 252 1231 l 1
EndSplineSet
EndChar

StartChar: middot
Encoding: 65546 -1 355
Width: 624
VWidth: 0
Flags: W
PickledData: "(dp1
S'org.pippin.gimp.org.kernagic'
p2
(dp3
S'lstem'
p4
I0
sS'rstem'
p5
I0
ssS'com.typemytype.robofont.layerData'
p6
(dp7
S'b'
(dp8
S'name'
p9
S'middot'
p10
sS'lib'
p11
(dp12
sS'unicodes'
p13
(tsS'width'
p14
I624
sS'contours'
p15
(tsS'components'
p16
(tsS'anchors'
p17
(tsss."
HStem: 547 197<226 390>
VStem: 226 164<547 744>
LayerCount: 2
Fore
SplineSet
226 547 m 1
 226 744 l 1
 390 744 l 1
 390 547 l 1
 226 547 l 1
EndSplineSet
EndChar

StartChar: minus
Encoding: 8722 8722 356
Width: 1164
VWidth: 0
Flags: W
PickledData: "(dp1
S'org.pippin.gimp.org.kernagic'
p2
(dp3
S'lstem'
p4
I0
sS'rstem'
p5
I0
ssS'com.typemytype.robofont.layerData'
p6
(dp7
S'b'
(dp8
S'name'
p9
S'minus'
p10
sS'lib'
p11
(dp12
sS'unicodes'
p13
(tsS'width'
p14
I1164
sS'contours'
p15
(tsS'components'
p16
(tsS'anchors'
p17
(tsss."
HStem: 528 138<105 1063>
LayerCount: 2
Fore
SplineSet
105 528 m 1
 105 666 l 1
 1063 666 l 1
 1063 528 l 1
 105 528 l 1
EndSplineSet
EndChar

StartChar: multiply
Encoding: 215 215 358
Width: 994
VWidth: 0
Flags: W
PickledData: "(dp1
S'org.pippin.gimp.org.kernagic'
p2
(dp3
S'lstem'
p4
I0
sS'rstem'
p5
I0
ssS'com.typemytype.robofont.layerData'
p6
(dp7
S'b'
(dp8
S'name'
p9
S'multiply'
p10
sS'lib'
p11
(dp12
sS'unicodes'
p13
(tsS'width'
p14
I994
sS'contours'
p15
(tsS'components'
p16
(tsS'anchors'
p17
(tsss."
LayerCount: 2
Fore
SplineSet
786 253 m 1
 492 570 l 1
 196 253 l 1
 105 346 l 1
 401 667 l 1
 115 979 l 1
 206 1075 l 1
 492 763 l 1
 775 1071 l 1
 870 975 l 1
 582 667 l 1
 604 645 873 349 873 349 c 1
 786 253 l 1
EndSplineSet
EndChar

StartChar: n
Encoding: 110 110 359
Width: 1192
VWidth: 0
Flags: W
PickledData: "(dp1
S'org.pippin.gimp.org.kernagic'
p2
(dp3
S'lstem'
p4
I0
sS'rstem'
p5
I0
ssS'com.typemytype.robofont.layerData'
p6
(dp7
S'b'
(dp8
S'name'
p9
S'n'
sS'lib'
p10
(dp11
sS'unicodes'
p12
(tsS'width'
p13
I1192
sS'contours'
p14
((dp15
S'points'
p16
((dp17
S'segmentType'
p18
S'curve'
p19
sS'x'
I606
sS'smooth'
p20
I01
sS'y'
I106
s(dp21
S'y'
I106
sS'x'
I486
sg20
I00
s(dp22
S'y'
I150
sS'x'
I378
sg20
I00
s(dp23
g18
S'curve'
p24
sS'x'
I309
sg20
I00
sS'y'
I246
s(dp25
g18
S'line'
p26
sS'x'
I309
sg20
I01
sS'y'
I558
s(dp27
S'y'
I808
sS'x'
I309
sg20
I00
s(dp28
S'y'
I980
sS'x'
I399
sg20
I00
s(dp29
g18
S'curve'
p30
sS'x'
I626
sg20
I01
sS'y'
I980
s(dp31
S'y'
I980
sS'x'
I840
sg20
I00
s(dp32
S'y'
I791
sS'x'
I904
sg20
I00
s(dp33
g18
S'curve'
p34
sS'x'
I904
sg20
I01
sS'y'
I541
s(dp35
S'y'
I277
sS'x'
I904
sg20
I00
s(dp36
S'y'
I106
sS'x'
I816
sg20
I00
stp37
s(dp38
g16
((dp39
g18
S'line'
p40
sS'x'
I152
sg20
I00
sS'y'
I-456
s(dp41
g18
S'line'
p42
sS'x'
I316
sg20
I00
sS'y'
I-456
s(dp43
g18
S'line'
p44
sS'x'
I316
sg20
I00
sS'y'
I-68
s(dp45
g18
S'line'
p46
sS'x'
I308
sg20
I00
sS'y'
I206
s(dp47
g18
S'line'
p48
sS'x'
I239
sg20
I00
sS'y'
I198
s(dp49
S'y'
I62
sS'x'
I292
sg20
I00
s(dp50
S'y'
I-20
sS'x'
I423
sg20
I00
s(dp51
g18
S'curve'
p52
sS'x'
I614
sg20
I01
sS'y'
I-20
s(dp53
S'y'
I-20
sS'x'
I897
sg20
I00
s(dp54
S'y'
I210
sS'x'
I1074
sg20
I00
s(dp55
g18
S'curve'
p56
sS'x'
I1074
sg20
I01
sS'y'
I539
s(dp57
S'y'
I878
sS'x'
I1074
sg20
I00
s(dp58
S'y'
I1106
sS'x'
I938
sg20
I00
s(dp59
g18
S'curve'
p60
sS'x'
I645
sg20
I01
sS'y'
I1106
s(dp61
S'y'
I1106
sS'x'
I474
sg20
I00
s(dp62
S'y'
I1027
sS'x'
I354
sg20
I00
s(dp63
g18
S'curve'
p64
sS'x'
I294
sg20
I00
sS'y'
I846
s(dp65
g18
S'line'
p66
sS'x'
I309
sg20
I00
sS'y'
I841
s(dp67
g18
S'line'
p68
sS'x'
I288
sg20
I00
sS'y'
I1082
s(dp69
g18
S'line'
p70
sS'x'
I152
sg20
I00
sS'y'
I1082
stp71
stp72
sS'components'
p73
(tsS'anchors'
p74
(tsssS'com.fontlab.hintData'
p75
(dp76
S'vhints'
p77
((dp78
S'position'
p79
I172
sg13
I166
s(dp80
g79
I172
sg13
I144
s(dp81
g79
I881
sg13
I166
stp82
sS'hhints'
p83
((dp84
g79
I953
sg13
I127
stp85
ss."
HStem: 0 21G<161 325 875 1039> 980 126<480.236 790.498> 1062 20G<161 298.682>
VStem: 161 164<0 814.326> 161 136<911.561 1082> 875 164<0 886.481>
LayerCount: 2
Fore
SplineSet
161 0 m 1xd4
 161 1082 l 1
 297 1082 l 1xac
 315 868 l 1
 382 1041 513 1106 685 1106 c 0
 929 1106 1039 945 1039 650 c 2
 1039 0 l 1
 875 0 l 1
 875 669 l 2
 875 851 826 980 656 980 c 0
 420 980 325 808 325 611 c 2
 325 0 l 1
 161 0 l 1xd4
EndSplineSet
EndChar

StartChar: nine
Encoding: 57 57 364
Width: 1136
VWidth: 0
Flags: W
PickledData: "(dp1
S'org.pippin.gimp.org.kernagic'
p2
(dp3
S'lstem'
p4
I0
sS'rstem'
p5
I0
ssS'com.typemytype.robofont.layerData'
p6
(dp7
S'b'
(dp8
S'name'
p9
S'nine'
p10
sS'lib'
p11
(dp12
sS'unicodes'
p13
(tsS'width'
p14
I1136
sS'contours'
p15
((dp16
S'points'
p17
((dp18
S'segmentType'
p19
S'curve'
p20
sS'x'
I549
sS'smooth'
p21
I01
sS'y'
I1342
s(dp22
S'y'
I1342
sS'x'
I752
sg21
I00
s(dp23
S'y'
I1190
sS'x'
I860
sg21
I00
s(dp24
g19
S'curve'
p25
sS'x'
I860
sg21
I01
sS'y'
I1018
s(dp26
S'y'
I775
sS'x'
I860
sg21
I00
s(dp27
S'y'
I697
sS'x'
I673
sg21
I00
s(dp28
g19
S'curve'
p29
sS'x'
I543
sg21
I01
sS'y'
I697
s(dp30
S'y'
I697
sS'x'
I347
sg21
I00
s(dp31
S'y'
I831
sS'x'
I237
sg21
I00
s(dp32
g19
S'curve'
p33
sS'x'
I237
sg21
I01
sS'y'
I1012
s(dp34
S'y'
I1186
sS'x'
I237
sg21
I00
s(dp35
S'y'
I1342
sS'x'
I346
sg21
I00
stp36
s(dp37
g17
((dp38
g19
S'curve'
p39
sS'x'
I545
sg21
I01
sS'y'
I1476
s(dp40
S'y'
I1476
sS'x'
I258
sg21
I00
s(dp41
S'y'
I1268
sS'x'
I76
sg21
I00
s(dp42
g19
S'curve'
p43
sS'x'
I76
sg21
I01
sS'y'
I1011
s(dp44
S'y'
I745
sS'x'
I76
sg21
I00
s(dp45
S'y'
I565
sS'x'
I253
sg21
I00
s(dp46
g19
S'curve'
p47
sS'x'
I485
sg21
I01
sS'y'
I565
s(dp48
S'y'
I565
sS'x'
I659
sg21
I00
s(dp49
S'y'
I663
sS'x'
I765
sg21
I00
s(dp50
g19
S'curve'
p51
sS'x'
I832
sg21
I00
sS'y'
I743
s(dp52
g19
S'line'
p53
sS'x'
I822
sg21
I00
sS'y'
I750
s(dp54
g19
S'line'
p55
sS'x'
I622
sg21
I01
sS'y'
I472
s(dp56
g19
S'line'
p57
sS'x'
I292
sg21
I00
sS'y'
I21
s(dp58
g19
S'line'
p59
sS'x'
I292
sg21
I00
sS'y'
I0
s(dp60
g19
S'line'
p61
sS'x'
I465
sg21
I00
sS'y'
I0
s(dp62
g19
S'line'
p63
sS'x'
I800
sg21
I01
sS'y'
I455
s(dp64
S'y'
I644
sS'x'
I939
sg21
I00
s(dp65
S'y'
I789
sS'x'
I1019
sg21
I00
s(dp66
g19
S'curve'
p67
sS'x'
I1019
sg21
I01
sS'y'
I1008
s(dp68
S'y'
I1252
sS'x'
I1019
sg21
I00
s(dp69
S'y'
I1476
sS'x'
I847
sg21
I00
stp70
stp71
sS'components'
p72
(tsS'anchors'
p73
(tsss."
HStem: 0 21G<296 491.696> 565 132<415.92 733.635> 1344 132<432.576 768.141>
VStem: 117 162<840.288 1188.67> 915 158<844.617 1192.62>
LayerCount: 2
Fore
SplineSet
915 1019 m 0
 915 1191 803 1344 600 1344 c 0
 397 1344 279 1192 279 1018 c 0
 279 838 382 697 584 697 c 0
 720 697 915 773 915 1019 c 0
296 0 m 1
 296 21 l 1
 461 228 631 429 790 642 c 1
 717 591 627 565 543 565 c 0
 303 565 117 749 117 1016 c 0
 117 1274 312 1476 599 1476 c 0
 901 1476 1073 1252 1073 1008 c 0
 1073 790 979 640 837 460 c 2
 476 0 l 1
 296 0 l 1
EndSplineSet
EndChar

StartChar: notequal
Encoding: 8800 8800 365
Width: 1079
VWidth: 0
Flags: W
PickledData: "(dp1
S'org.pippin.gimp.org.kernagic'
p2
(dp3
S'lstem'
p4
I0
sS'rstem'
p5
I0
ssS'com.typemytype.robofont.layerData'
p6
(dp7
S'b'
(dp8
S'name'
p9
S'notequal'
p10
sS'lib'
p11
(dp12
sS'unicodes'
p13
(tsS'width'
p14
I1079
sS'contours'
p15
(tsS'components'
p16
(tsS'anchors'
p17
(tsss."
HStem: 353 117<74 328 501 988> 788 119<74 542 714 985>
LayerCount: 2
Fore
SplineSet
307 48 m 1
 213 65 l 1
 328 353 l 1
 74 353 l 1
 68 471 l 1
 385 471 l 1
 542 788 l 1
 74 788 l 1
 67 907 l 1
 594 907 l 1
 732 1202 l 1
 828 1189 l 1
 714 907 l 1
 985 907 l 1
 994 788 l 1
 663 788 l 1
 501 470 l 1
 988 470 l 1
 994 353 l 1
 450 353 l 1
 307 48 l 1
EndSplineSet
EndChar

StartChar: numbersign
Encoding: 35 35 367
Width: 1164
VWidth: 0
Flags: W
PickledData: "(dp1
S'org.pippin.gimp.org.kernagic'
p2
(dp3
S'lstem'
p4
I0
sS'rstem'
p5
I0
ssS'com.typemytype.robofont.layerData'
p6
(dp7
S'b'
(dp8
S'name'
p9
S'numbersign'
p10
sS'lib'
p11
(dp12
sS'unicodes'
p13
(tsS'width'
p14
I1164
sS'contours'
p15
(tsS'components'
p16
(tsS'anchors'
p17
(tsss."
HStem: -20 21G<170 277.069 578 683.026> 442 94<78 263 385 670 792 1004> 992 91<190 374 498 783 903 1100> 1539 20G<491.672 601 901.63 1006>
LayerCount: 2
Fore
SplineSet
578 -20 m 1
 670 442 l 1
 367 442 l 1
 273 -20 l 1
 170 -20 l 1
 263 442 l 1
 65 442 l 1
 78 536 l 1
 281 536 l 1
 374 992 l 1
 177 992 l 1
 190 1083 l 1
 393 1083 l 1
 496 1559 l 1
 601 1559 l 1
 498 1083 l 1
 802 1083 l 1
 906 1559 l 1
 1006 1559 l 1
 903 1083 l 1
 1115 1083 l 1
 1100 992 l 1
 885 992 l 1
 792 536 l 1
 1019 536 l 1
 1004 442 l 1
 772 442 l 1
 679 -20 l 1
 578 -20 l 1
690 536 m 1
 783 992 l 1
 479 992 l 1
 385 536 l 1
 690 536 l 1
EndSplineSet
EndChar

StartChar: o
Encoding: 111 111 368
Width: 1192
VWidth: 0
Flags: W
PickledData: "(dp1
S'org.pippin.gimp.org.kernagic'
p2
(dp3
S'lstem'
p4
I0
sS'rstem'
p5
I0
ssS'com.typemytype.robofont.layerData'
p6
(dp7
S'b'
(dp8
S'name'
p9
S'o'
sS'lib'
p10
(dp11
sS'unicodes'
p12
(tsS'width'
p13
I1192
sS'contours'
p14
(tsS'components'
p15
(tsS'anchors'
p16
(tsssS'com.typemytype.robofont.guides'
p17
((dp18
S'angle'
p19
F90
sg9
NsS'magnetic'
p20
I5
sS'isGlobal'
p21
I00
sS'y'
I1093
sS'x'
I582
stp22
sS'com.fontlab.hintData'
p23
(dp24
S'vhints'
p25
((dp26
S'position'
p27
I114
sg13
I164
s(dp28
g27
I946
sg13
I165
stp29
sS'hhints'
p30
((dp31
g27
I-19
sg13
I126
s(dp32
g27
I953
sg13
I127
stp33
ss."
HStem: -20 126<437.302 754.698> 980 126<442.922 749.078>
VStem: 112 170<286.714 793.9> 910 170<286.714 793.9>
LayerCount: 2
Fore
SplineSet
596 1106 m 0
 912 1106 1080 886 1080 542 c 0
 1080 206 908 -20 596 -20 c 0
 284 -20 112 206 112 542 c 0
 112 886 280 1106 596 1106 c 0
596 106 m 0
 817 106 910 294 910 541 c 0
 910 794 816 980 596 980 c 0
 376 980 282 794 282 541 c 0
 282 294 375 106 596 106 c 0
EndSplineSet
EndChar

StartChar: ogonek
Encoding: 731 731 374
Width: 766
VWidth: 0
Flags: W
PickledData: "(dp1
S'org.pippin.gimp.org.kernagic'
p2
(dp3
S'lstem'
p4
I0
sS'rstem'
p5
I0
ssS'com.typemytype.robofont.layerData'
p6
(dp7
S'b'
(dp8
S'name'
p9
S'ogonek'
p10
sS'lib'
p11
(dp12
sS'unicodes'
p13
(tsS'width'
p14
I766
sS'contours'
p15
(tsS'components'
p16
(tsS'anchors'
p17
(tsss."
HStem: -410 109<400.409 582.783>
VStem: 252 140<-293.234 -123.734>
LayerCount: 2
Fore
SplineSet
585 -380 m 1
 553 -396 490 -410 441 -410 c 0
 316 -410 252 -351 252 -260 c 0
 252 -146 354 -28 458 14 c 1
 538 14 l 1
 479 -29 392 -142 392 -220 c 0
 392 -278 430 -301 475 -301 c 0
 517 -301 564 -285 583 -277 c 1
 585 -380 l 1
EndSplineSet
EndChar

StartChar: one
Encoding: 49 49 380
Width: 1136
VWidth: 0
Flags: W
PickledData: "(dp1
S'org.pippin.gimp.org.kernagic'
p2
(dp3
S'lstem'
p4
I0
sS'rstem'
p5
I0
ssS'com.typemytype.robofont.layerData'
p6
(dp7
S'b'
(dp8
S'name'
p9
S'one'
p10
sS'lib'
p11
(dp12
sS'unicodes'
p13
(tsS'width'
p14
I1136
sS'contours'
p15
(tsS'components'
p16
(tsS'anchors'
p17
(tsss."
HStem: 0 123<158 549 715 1064> 1166 135<171 311.15> 1436 20G<524 715>
VStem: 549 166<123 1302>
LayerCount: 2
Fore
SplineSet
158 0 m 1
 158 123 l 1
 549 123 l 1
 549 1302 l 1
 437 1239 245 1176 171 1166 c 1
 171 1301 l 1
 254 1319 486 1402 562 1456 c 1
 715 1456 l 1
 715 123 l 1
 1064 123 l 1
 1064 0 l 1
 158 0 l 1
EndSplineSet
EndChar

StartChar: onehalf
Encoding: 189 189 381
Width: 1647
VWidth: 0
Flags: W
PickledData: "(dp1
S'org.pippin.gimp.org.kernagic'
p2
(dp3
S'lstem'
p4
I0
sS'rstem'
p5
I0
ssS'com.typemytype.robofont.layerData'
p6
(dp7
S'b'
(dp8
S'name'
p9
S'onehalf'
p10
sS'lib'
p11
(dp12
sS'unicodes'
p13
(tsS'width'
p14
I1647
sS'contours'
p15
(tsS'components'
p16
(tsS'anchors'
p17
(tsss."
HStem: 0 114<1218 1562> 593 112<35 183 321 460> 751 120<1147.24 1407.94> 1456 20G<190 321 1169.7 1313>
VStem: 183 138<705 1333> 1444 132<484.38 713.384>
LayerCount: 2
Fore
SplineSet
35 593 m 1
 35 705 l 1
 183 705 l 1
 183 1333 l 1
 146 1309 54 1272 26 1259 c 1
 26 1373 l 1
 56 1386 169 1437 211 1476 c 1
 321 1476 l 1
 321 705 l 1
 460 705 l 1
 460 593 l 1
 35 593 l 1
274 0 m 1
 1182 1476 l 1
 1313 1476 l 1
 406 0 l 1
 274 0 l 1
1041 0 m 1
 1041 110 l 1
 1289 358 l 2
 1404 474 1444 536 1444 607 c 0
 1444 705 1373 751 1291 751 c 0
 1213 751 1130 716 1072 637 c 1
 1000 716 l 1
 1053 812 1178 871 1293 871 c 0
 1445 871 1576 782 1576 615 c 0
 1576 474 1513 402 1389 281 c 2
 1218 114 l 1
 1568 114 l 1
 1562 0 l 1
 1041 0 l 1
EndSplineSet
EndChar

StartChar: onequarter
Encoding: 188 188 382
Width: 1590
VWidth: 0
Flags: W
PickledData: "(dp1
S'org.pippin.gimp.org.kernagic'
p2
(dp3
S'lstem'
p4
I0
sS'rstem'
p5
I0
ssS'com.typemytype.robofont.layerData'
p6
(dp7
S'b'
(dp8
S'name'
p9
S'onequarter'
p10
sS'lib'
p11
(dp12
sS'unicodes'
p13
(tsS'width'
p14
I1590
sS'contours'
p15
(tsS'components'
p16
(tsS'anchors'
p17
(tsss."
HStem: 0 21G<281 425.29 1268 1395> 191 106<1002 1267 1396 1509> 593 112<42 190 328 467> 1456 20G<197 328 1176.7 1320>
VStem: 190 138<705 1333> 1267 129<0 191 297 690>
LayerCount: 2
Fore
SplineSet
1002 297 m 1
 1267 297 l 1
 1267 690 l 1
 1002 297 l 1
281 0 m 1
 1189 1476 l 1
 1320 1476 l 1
 413 0 l 1
 281 0 l 1
1268 0 m 1
 1268 191 l 1
 863 191 l 1
 863 284 l 1
 1258 857 l 1
 1396 857 l 1
 1396 297 l 1
 1509 297 l 1
 1517 191 l 1
 1395 191 l 1
 1395 0 l 1
 1268 0 l 1
42 593 m 1
 42 705 l 1
 190 705 l 1
 190 1333 l 1
 153 1309 61 1272 33 1259 c 1
 33 1373 l 1
 63 1386 176 1437 218 1476 c 1
 328 1476 l 1
 328 705 l 1
 467 705 l 1
 467 593 l 1
 42 593 l 1
EndSplineSet
EndChar

StartChar: onesuperior
Encoding: 65547 -1 383
Width: 795
VWidth: 0
Flags: W
PickledData: "(dp1
S'org.pippin.gimp.org.kernagic'
p2
(dp3
S'lstem'
p4
I0
sS'rstem'
p5
I0
ssS'com.typemytype.robofont.layerData'
p6
(dp7
S'b'
(dp8
S'name'
p9
S'onesuperior'
p10
sS'lib'
p11
(dp12
sS'unicodes'
p13
(tsS'width'
p14
I795
sS'contours'
p15
(tsS'components'
p16
(tsS'anchors'
p17
(tsss."
HStem: 572 112<185 339 477 616> 1436 20G<346 477>
VStem: 339 138<684 1312>
LayerCount: 2
Fore
SplineSet
185 572 m 1
 185 684 l 1
 339 684 l 1
 339 1312 l 1
 302 1288 209 1251 175 1238 c 1
 175 1352 l 1
 211 1365 325 1416 367 1456 c 1
 477 1456 l 1
 477 684 l 1
 616 684 l 1
 616 572 l 1
 185 572 l 1
EndSplineSet
EndChar

StartChar: ordmasculine
Encoding: 186 186 385
Width: 965
VWidth: 0
Flags: W
PickledData: "(dp1
S'org.pippin.gimp.org.kernagic'
p2
(dp3
S'lstem'
p4
I0
sS'rstem'
p5
I0
ssS'com.typemytype.robofont.layerData'
p6
(dp7
S'b'
(dp8
S'name'
p9
S'ordmasculine'
p10
sS'lib'
p11
(dp12
sS'unicodes'
p13
(tsS'width'
p14
I965
sS'contours'
p15
(tsS'components'
p16
(tsS'anchors'
p17
(tsss."
HStem: 713 107<357.218 611.144> 1370 107<359.356 603.791>
VStem: 144 137<900.401 1287.22> 686 130<900.644 1280.77>
LayerCount: 2
Fore
SplineSet
816 1092 m 0
 816 878 686 713 480 713 c 0
 262 713 144 875 144 1092 c 0
 144 1314 262 1477 480 1477 c 0
 704 1477 816 1317 816 1092 c 0
281 1092 m 0
 281 921 347 820 480 820 c 0
 620 820 686 920 686 1089 c 0
 686 1263 616 1370 480 1370 c 0
 348 1370 281 1265 281 1092 c 0
EndSplineSet
EndChar

StartChar: oslash
Encoding: 248 248 386
Width: 1192
VWidth: 0
Flags: W
PickledData: "(dp1
S'org.pippin.gimp.org.kernagic'
p2
(dp3
S'lstem'
p4
I0
sS'rstem'
p5
I0
ssS'com.typemytype.robofont.layerData'
p6
(dp7
S'b'
(dp8
S'name'
p9
S'oslash'
p10
sS'lib'
p11
(dp12
sS'unicodes'
p13
(tsS'width'
p14
I1192
sS'contours'
p15
(tsS'components'
p16
(tsS'anchors'
p17
(tsss."
HStem: -20 126<336.302 653.698> 980 126<341.922 648.078>
VStem: 11 170<286.714 793.9> 809 170<286.714 793.9>
LayerCount: 2
Fore
SplineSet
151 -162 m 1
 86 -124 l 1
 805 1238 l 1
 876 1200 l 1
 151 -162 l 1
EndSplineSet
Refer: 368 111 N 1 0 0 1 -101 0 2
EndChar

StartChar: p
Encoding: 112 112 389
Width: 1192
VWidth: 0
Flags: W
PickledData: "(dp1
S'org.pippin.gimp.org.kernagic'
p2
(dp3
S'lstem'
p4
I0
sS'rstem'
p5
I0
ssS'com.typemytype.robofont.layerData'
p6
(dp7
S'b'
(dp8
S'name'
p9
S'p'
sS'lib'
p10
(dp11
sS'unicodes'
p12
(tsS'width'
p13
I1192
sS'contours'
p14
((dp15
S'points'
p16
((dp17
S'segmentType'
p18
S'curve'
p19
sS'x'
I591
sS'smooth'
p20
I01
sS'y'
I-20
s(dp21
S'y'
I-20
sS'x'
I886
sg20
I00
s(dp22
S'y'
I204
sS'x'
I1054
sg20
I00
s(dp23
g18
S'curve'
p24
sS'x'
I1054
sg20
I01
sS'y'
I542
s(dp25
S'y'
I880
sS'x'
I1054
sg20
I00
s(dp26
S'y'
I1118
sS'x'
I892
sg20
I00
s(dp27
g18
S'curve'
p28
sS'x'
I605
sg20
I01
sS'y'
I1106
s(dp29
S'y'
I1101
sS'x'
I493
sg20
I00
s(dp30
S'y'
I1056
sS'x'
I326
sg20
I00
s(dp31
g18
S'curve'
p32
sS'x'
I270
sg20
I00
sS'y'
I826
s(dp33
g18
S'line'
p34
sS'x'
I291
sg20
I00
sS'y'
I824
s(dp35
g18
S'line'
p36
sS'x'
I297
sg20
I00
sS'y'
I1105
s(dp37
g18
S'line'
p38
sS'x'
I297
sg20
I00
sS'y'
I1560
s(dp39
g18
S'line'
p40
sS'x'
I133
sg20
I00
sS'y'
I1548
s(dp41
g18
S'line'
p42
sS'x'
I133
sg20
I00
sS'y'
I0
s(dp43
g18
S'line'
p44
sS'x'
I264
sg20
I00
sS'y'
I0
s(dp45
g18
S'line'
p46
sS'x'
I284
sg20
I00
sS'y'
I200
s(dp47
g18
S'line'
p48
sS'x'
I225
sg20
I00
sS'y'
I193
s(dp49
S'y'
I51
sS'x'
I278
sg20
I00
s(dp50
S'y'
I-20
sS'x'
I406
sg20
I00
stp51
s(dp52
g16
((dp53
g18
S'curve'
p54
sS'x'
I567
sg20
I01
sS'y'
I108
s(dp55
S'y'
I108
sS'x'
I428
sg20
I00
s(dp56
S'y'
I173
sS'x'
I341
sg20
I00
s(dp57
g18
S'curve'
p58
sS'x'
I290
sg20
I00
sS'y'
I248
s(dp59
g18
S'line'
p60
sS'x'
I290
sg20
I01
sS'y'
I519
s(dp61
S'y'
I814
sS'x'
I290
sg20
I00
s(dp62
S'y'
I980
sS'x'
I391
sg20
I00
s(dp63
g18
S'curve'
p64
sS'x'
I605
sg20
I01
sS'y'
I980
s(dp65
S'y'
I980
sS'x'
I808
sg20
I00
s(dp66
S'y'
I799
sS'x'
I885
sg20
I00
s(dp67
g18
S'curve'
p68
sS'x'
I885
sg20
I01
sS'y'
I542
s(dp69
S'y'
I275
sS'x'
I885
sg20
I00
s(dp70
S'y'
I108
sS'x'
I779
sg20
I00
stp71
stp72
sS'components'
p73
(tsS'anchors'
p74
(tsssS'com.fontlab.hintData'
p75
(dp76
S'vhints'
p77
((dp78
S'position'
p79
I172
sg13
I166
s(dp80
g79
I172
sg13
I138
s(dp81
g79
I959
sg13
I167
stp82
sS'hhints'
p83
((dp84
g79
I-19
sg13
I127
s(dp85
g79
I953
sg13
I127
stp86
ss."
HStem: -456 21G<156 320> -20 126<424.14 765.602> 980 126<469.086 775.902> 1062 20G<156 293.511>
VStem: 156 164<-456 87 190.381 825.701> 156 136<892.259 1082> 908 170<277.217 822.051>
LayerCount: 2
Fore
SplineSet
156 -456 m 1xea
 156 1082 l 1
 292 1082 l 1xd6
 309 857 l 1
 364 1028 490 1106 649 1106 c 0
 942 1106 1078 878 1078 539 c 0
 1078 210 901 -20 618 -20 c 0
 487 -20 384 19 315 87 c 1
 320 -68 l 1
 320 -456 l 1
 156 -456 l 1xea
610 106 m 0
 820 106 908 277 908 541 c 0
 908 791 844 980 630 980 c 0xe2
 403 980 313 808 313 558 c 2
 313 246 l 1
 382 150 490 106 610 106 c 0
EndSplineSet
EndChar

StartChar: paragraph
Encoding: 182 182 390
Width: 1136
VWidth: 0
Flags: W
PickledData: "(dp1
S'org.pippin.gimp.org.kernagic'
p2
(dp3
S'lstem'
p4
I0
sS'rstem'
p5
I0
ssS'com.typemytype.robofont.layerData'
p6
(dp7
S'b'
(dp8
S'name'
p9
S'paragraph'
p10
sS'lib'
p11
(dp12
sS'unicodes'
p13
(tsS'width'
p14
I1136
sS'contours'
p15
(tsS'components'
p16
(tsS'anchors'
p17
(tsss."
HStem: -20 21G<498 622 798 922> 1334 122<622 798 922 1038>
VStem: 116 506<937.629 1287.23> 498 124<-20 771> 798 124<-20 1334>
LayerCount: 2
Fore
SplineSet
498 -20 m 1xd8
 498 771 l 1xd8
 217 771 116 942 116 1117 c 0xe8
 116 1276 209 1456 529 1456 c 2
 1038 1456 l 1
 1038 1334 l 1
 922 1334 l 1
 922 -20 l 1
 798 -20 l 1
 798 1334 l 1
 622 1334 l 1
 622 -20 l 1
 498 -20 l 1xd8
EndSplineSet
EndChar

StartChar: parenleft
Encoding: 40 40 391
Width: 766
VWidth: 0
Flags: W
PickledData: "(dp1
S'org.pippin.gimp.org.kernagic'
p2
(dp3
S'lstem'
p4
I0
sS'rstem'
p5
I0
ssS'com.typemytype.robofont.layerData'
p6
(dp7
S'b'
(dp8
S'name'
p9
S'parenright'
p10
sS'lib'
p11
(dp12
sS'unicodes'
p13
(tsS'width'
p14
I766
sS'contours'
p15
(tsS'components'
p16
(tsS'anchors'
p17
(tsss."
VStem: 211 150<296.572 1063.43>
LayerCount: 2
Fore
SplineSet
361 680 m 0
 361 391 429 101 604 -196 c 1
 604 -230 l 1
 468 -230 l 1
 300 45 211 357 211 680 c 0
 211 1003 300 1315 468 1590 c 1
 604 1590 l 1
 604 1556 l 1
 429 1259 361 969 361 680 c 0
EndSplineSet
EndChar

StartChar: parenright
Encoding: 41 41 392
Width: 766
VWidth: 0
Flags: W
PickledData: "(dp1
S'org.pippin.gimp.org.kernagic'
p2
(dp3
S'lstem'
p4
I0
sS'rstem'
p5
I0
ssS'com.typemytype.robofont.layerData'
p6
(dp7
S'b'
(dp8
S'name'
p9
S'parenright'
p10
sS'lib'
p11
(dp12
sS'unicodes'
p13
(tsS'width'
p14
I766
sS'contours'
p15
(tsS'components'
p16
(tsS'anchors'
p17
(tsss."
VStem: 410 150<296.572 1063.43>
LayerCount: 2
Fore
SplineSet
410 680 m 0
 410 969 342 1259 167 1556 c 1
 167 1590 l 1
 303 1590 l 1
 471 1315 560 1003 560 680 c 0
 560 357 471 45 303 -230 c 1
 167 -230 l 1
 167 -196 l 1
 342 101 410 391 410 680 c 0
EndSplineSet
EndChar

StartChar: partialdiff
Encoding: 8706 8706 393
Width: 1249
VWidth: 0
Flags: W
PickledData: "(dp1
S'org.pippin.gimp.org.kernagic'
p2
(dp3
S'lstem'
p4
I0
sS'rstem'
p5
I0
ssS'com.typemytype.robofont.layerData'
p6
(dp7
S'b'
(dp8
S'name'
p9
S'partialdiff'
p10
sS'lib'
p11
(dp12
sS'unicodes'
p13
(tsS'width'
p14
I1249
sS'contours'
p15
(tsS'components'
p16
(tsS'anchors'
p17
(tsss."
HStem: -27 147<411.371 675.419> 934 142<508.053 799.77> 1504 145<431.99 761.643>
VStem: 154 143<249.05 674.292> 937 148<900 1275.77>
LayerCount: 2
Fore
SplineSet
541 120 m 0
 752 120 892 383 923 705 c 1
 889 826 798 934 658 934 c 0
 456 934 297 712 297 451 c 0
 297 251 392 120 541 120 c 0
540 -27 m 0
 271 -27 154 182 154 452 c 0
 154 805 352 1076 633 1076 c 0
 767 1076 870 1012 936 900 c 1
 936 918 937 951 937 979 c 0
 937 1303 824 1504 613 1504 c 0
 513 1504 415 1460 337 1404 c 1
 324 1550 l 1
 405 1608 517 1649 637 1649 c 0
 927 1649 1085 1418 1085 915 c 0
 1085 452 924 -27 540 -27 c 0
EndSplineSet
EndChar

StartChar: percent
Encoding: 37 37 394
Width: 1533
VWidth: 0
Flags: W
PickledData: "(dp1
S'org.pippin.gimp.org.kernagic'
p2
(dp3
S'lstem'
p4
I0
sS'rstem'
p5
I0
ssS'com.typemytype.robofont.layerData'
p6
(dp7
S'b'
(dp8
S'name'
p9
S'percent'
p10
sS'lib'
p11
(dp12
sS'unicodes'
p13
(tsS'width'
p14
I1533
sS'contours'
p15
(tsS'components'
p16
(tsS'anchors'
p17
(tsss."
HStem: -1 95<949.157 1191.36> 666 97<949.931 1191.72> 714 96<204.532 446.362> 1381 96<205.305 446.721> 1437 20G<1038.62 1172>
VStem: 33 109<873.114 1314.7> 509 116<873.922 1316.33> 771 116<157.818 599.859> 1254 116<158.625 601.487>
LayerCount: 2
Fore
SplineSet
221 0 m 1x8f80
 1050 1457 l 1
 1172 1457 l 1
 353 0 l 1
 221 0 l 1x8f80
325 714 m 0xb780
 99 714 33 881 33 1096 c 0
 33 1313 103 1477 325 1477 c 0
 552 1477 625 1316 625 1096 c 0
 625 881 549 714 325 714 c 0xb780
326 810 m 0
 482 810 509 936 509 1097 c 0
 509 1264 481 1381 326 1381 c 0
 170 1381 142 1258 142 1097 c 0
 142 931 170 810 326 810 c 0
1071 94 m 0
 1227 94 1254 221 1254 382 c 0
 1254 549 1226 666 1071 666 c 0xc780
 915 666 887 543 887 382 c 0
 887 216 915 94 1071 94 c 0
1070 -1 m 0
 844 -1 771 166 771 381 c 0
 771 598 848 763 1070 763 c 0
 1297 763 1370 601 1370 381 c 0
 1370 166 1294 -1 1070 -1 c 0
EndSplineSet
EndChar

StartChar: period
Encoding: 46 46 395
Width: 624
VWidth: 0
Flags: W
PickledData: "(dp1
S'org.pippin.gimp.org.kernagic'
p2
(dp3
S'lstem'
p4
I0
sS'rstem'
p5
I0
ssS'com.typemytype.robofont.layerData'
p6
(dp7
S'b'
(dp8
S'name'
p9
S'period'
p10
sS'lib'
p11
(dp12
sS'unicodes'
p13
(tsS'width'
p14
I624
sS'contours'
p15
(tsS'components'
p16
(tsS'anchors'
p17
(tsss."
HStem: -11 234<229.07 399.837>
VStem: 214 201<2.53564 209.823>
LayerCount: 2
Fore
SplineSet
316 223 m 0
 386 223 415 181 415 108 c 0
 415 32 386 -11 316 -11 c 0
 242 -11 214 32 214 108 c 0
 214 181 242 223 316 223 c 0
EndSplineSet
EndChar

StartChar: periodcentered
Encoding: 183 183 396
Width: 653
VWidth: 0
Flags: W
PickledData: "(dp1
S'org.pippin.gimp.org.kernagic'
p2
(dp3
S'lstem'
p4
I0
sS'rstem'
p5
I0
ssS'com.typemytype.robofont.layerData'
p6
(dp7
S'b'
(dp8
S'name'
p9
S'periodcentered'
p10
sS'lib'
p11
(dp12
sS'unicodes'
p13
(tsS'width'
p14
I653
sS'contours'
p15
(tsS'components'
p16
(tsS'anchors'
p17
(tsss."
HStem: 514 218<226.727 408.994>
VStem: 207 222<534.604 711.824>
LayerCount: 2
Fore
SplineSet
318 732 m 0
 381 732 429 688 429 624 c 0
 429 559 381 514 318 514 c 0
 254 514 207 559 207 624 c 0
 207 688 254 732 318 732 c 0
EndSplineSet
EndChar

StartChar: perthousand
Encoding: 8240 8240 397
Width: 1931
VWidth: 0
Flags: W
PickledData: "(dp1
S'org.pippin.gimp.org.kernagic'
p2
(dp3
S'lstem'
p4
I0
sS'rstem'
p5
I0
ssS'com.typemytype.robofont.layerData'
p6
(dp7
S'b'
(dp8
S'name'
p9
S'perthousand'
p10
sS'lib'
p11
(dp12
sS'unicodes'
p13
(tsS'width'
p14
I1931
sS'contours'
p15
(tsS'components'
p16
(tsS'anchors'
p17
(tsss."
HStem: -29 123<755.648 988.892 1507.09 1741.95> 610 125<755.425 993.041 1508 1745.1> 795 123<96.0278 287.155> 1437 120<97.3897 290.093>
VStem: -87 121<986.198 1371.72> 355 125<990.628 1366.24> 553 128<179.282 526.093> 1068 125<182.69 529.286> 1306 124<179.282 523.833> 1823 122<182.293 523.04>
LayerCount: 2
Fore
SplineSet
194 918 m 0
 302 918 355 1038 355 1176 c 0
 355 1323 302 1437 190 1437 c 0
 80 1437 34 1317 34 1178 c 0
 34 1032 81 918 194 918 c 0
190 795 m 0
 12 795 -87 949 -87 1178 c 0
 -87 1397 12 1557 192 1557 c 0
 381 1557 480 1408 480 1174 c 0
 480 958 374 795 190 795 c 0
51 -21 m 1
 883 1545 l 1
 1036 1545 l 1
 181 -21 l 1
 51 -21 l 1
874 94 m 0
 1003 94 1068 217 1068 354 c 0
 1068 500 1007 610 873 610 c 0
 744 610 681 493 681 354 c 0
 681 208 745 94 874 94 c 0
872 -29 m 0
 658 -29 553 125 553 354 c 0
 553 572 656 735 874 735 c 0
 1092 735 1193 583 1193 351 c 0
 1193 135 1087 -29 872 -29 c 0
1629 94 m 0
 1758 94 1823 215 1823 354 c 0
 1823 497 1754 610 1626 610 c 0
 1493 610 1430 493 1430 354 c 0
 1430 208 1495 94 1629 94 c 0
1623 -29 m 0
 1411 -29 1306 125 1306 354 c 0
 1306 572 1412 735 1629 735 c 0
 1843 735 1945 587 1945 351 c 0
 1945 135 1838 -29 1623 -29 c 0
EndSplineSet
EndChar

StartChar: plus
Encoding: 43 43 398
Width: 1136
VWidth: 0
Flags: W
PickledData: "(dp1
S'org.pippin.gimp.org.kernagic'
p2
(dp3
S'lstem'
p4
I0
sS'rstem'
p5
I0
ssS'com.typemytype.robofont.layerData'
p6
(dp7
S'b'
(dp8
S'name'
p9
S'plus'
p10
sS'lib'
p11
(dp12
sS'unicodes'
p13
(tsS'width'
p14
I1136
sS'contours'
p15
(tsS'components'
p16
(tsS'anchors'
p17
(tsss."
HStem: 611 166<118 476 648 1001>
VStem: 476 172<227 611 777 1156>
LayerCount: 2
Fore
SplineSet
476 227 m 1
 476 611 l 1
 118 611 l 1
 118 777 l 1
 477 777 l 1
 477 1156 l 1
 648 1156 l 1
 648 777 l 1
 1001 777 l 1
 1001 611 l 1
 648 611 l 1
 648 227 l 1
 476 227 l 1
EndSplineSet
EndChar

StartChar: plusminus
Encoding: 177 177 399
Width: 1136
VWidth: 0
Flags: W
PickledData: "(dp1
S'org.pippin.gimp.org.kernagic'
p2
(dp3
S'lstem'
p4
I0
sS'rstem'
p5
I0
ssS'com.typemytype.robofont.layerData'
p6
(dp7
S'b'
(dp8
S'name'
p9
S'plusminus'
p10
sS'lib'
p11
(dp12
sS'unicodes'
p13
(tsS'width'
p14
I1136
sS'contours'
p15
(tsS'components'
p16
(tsS'anchors'
p17
(tsss."
HStem: 0 118<105 1034> 610 119<126 498 624 989>
VStem: 498 126<212 610 729 1117>
LayerCount: 2
Fore
SplineSet
498 212 m 1
 498 610 l 1
 126 610 l 1
 126 729 l 1
 498 729 l 1
 498 1117 l 1
 623 1117 l 1
 623 729 l 1
 989 729 l 1
 989 610 l 1
 624 610 l 1
 624 212 l 1
 498 212 l 1
105 0 m 1
 105 118 l 1
 1034 118 l 1
 1034 0 l 1
 105 0 l 1
EndSplineSet
EndChar

StartChar: product
Encoding: 8719 8719 400
Width: 1533
VWidth: 0
Flags: W
PickledData: "(dp1
S'org.pippin.gimp.org.kernagic'
p2
(dp3
S'lstem'
p4
I0
sS'rstem'
p5
I0
ssS'com.typemytype.robofont.layerData'
p6
(dp7
S'b'
(dp8
S'name'
p9
S'product'
p10
sS'lib'
p11
(dp12
sS'unicodes'
p13
(tsS'width'
p14
I1533
sS'contours'
p15
(tsS'components'
p16
(tsS'anchors'
p17
(tsss."
HStem: 0 21G<198 371 1164 1336> 1346 150<371 1164>
VStem: 198 173<0 1346> 1164 172<0 1346>
LayerCount: 2
Fore
SplineSet
198 0 m 1
 198 1496 l 1
 1336 1496 l 1
 1336 0 l 1
 1164 0 l 1
 1164 1346 l 1
 371 1346 l 1
 371 0 l 1
 198 0 l 1
EndSplineSet
EndChar

